<svg width="259" height="161" viewBox="0 0 259 161" fill="none" xmlns="http://www.w3.org/2000/svg">
<path d="M131.934 6.27446C169.188 16.1985 211.416 36.3353 237.329 65.7407C254.806 85.5747 268.843 116.119 247.014 139.121C192.566 196.515 5.53292 130.313 0.134819 52.2756C-4.13728 -9.55584 94.2694 -3.75954 131.934 6.27446ZM134.703 12.2222C103.072 3.60577 51.6922 -1.31634 22.7627 18.0085C-13.7507 42.4035 13.8367 82.4417 37.7581 103.23C80.3944 140.284 167.299 169.282 222.482 148.617C260.71 134.306 260.312 102.469 237.665 74.1147C213.955 44.4338 170.74 22.0312 134.703 12.2222Z" fill="#F3EFE8"/>
<path d="M134.703 12.2223C170.737 22.039 213.952 44.4416 237.657 74.1127C260.312 102.469 260.702 134.303 222.474 148.615C167.294 169.271 80.3895 140.273 37.7507 103.227C13.8368 82.4427 -13.7582 42.4009 22.7553 18.006C51.6924 -1.31623 103.072 3.60587 134.703 12.2223ZM128.825 15.1224C103.585 8.30947 72.2443 5.85467 46.6144 12.2139C-12.2843 26.8228 8.15077 73.8457 42.6349 102.044C82.6785 134.801 142.665 156.274 195.651 150.587C247.78 144.99 267.467 112.467 229.644 70.7587C204.63 43.1707 164.227 24.6823 128.83 15.1328L128.825 15.1224Z" fill="black"/>
<path d="M97.5004 68.2627C95.4054 65.3999 86.5164 60.0187 88.8054 56.1174C98.2624 52.1224 96.2394 60.1278 102.46 63.3822L97.4974 68.2707L97.5004 68.2627Z" fill="#E0DFDE"/>
<path d="M104.535 57.4785C105.637 58.9339 104.782 62.4793 109.274 62.4606C107.864 63.4498 107.514 64.351 105.348 64.3973C104.947 64.4038 104.43 64.0137 103.904 63.8898L104.535 57.4785Z" fill="#E0DFDE"/>
<path d="M122.895 60.6144C121.545 60.0794 119.942 59.3945 118.562 59.0918C119.546 56.9458 123.47 58.3249 122.895 60.6144Z" fill="#E0DFDE"/>
<path d="M115.674 58.0768C115.501 58.0596 112.416 58.4511 112.267 58.5376L115.674 58.0768Z" fill="#E0DFDE"/>
<path d="M102.645 76.7047C103.067 73.5707 103.591 74.0847 103.683 73.7527L102.645 76.7047Z" fill="#E0DFDE"/>
<path d="M127.227 62.1371C126.888 61.8703 126.255 61.8823 125.783 61.6296L127.009 60.437L127.219 62.1345L127.227 62.1371Z" fill="#E0DFDE"/>
<path d="M141.633 72.3397C151.9 69.6187 147.225 96.2877 137.854 94.1397C128.892 92.0847 140.059 72.7587 141.633 72.3397Z" fill="#E0DFDE"/>
<path d="M229.637 70.7557C204.622 43.168 164.22 24.6796 128.822 15.1301C103.583 8.31716 72.2416 5.86235 46.6117 12.2216C-12.287 26.8305 8.14814 73.8537 42.6321 102.052C82.6754 134.809 142.663 156.282 195.648 150.595C247.778 144.997 267.465 112.475 229.642 70.7657L229.637 70.7557Z" fill="#F3EFE8"/>
<path d="M125.379 57.9527L143.233 42.091C143.364 41.9745 143.379 41.7731 143.266 41.6412L142.486 40.7289C142.373 40.597 142.175 40.5846 142.044 40.7012L124.19 56.5628C124.059 56.6794 124.044 56.8808 124.157 57.0127L124.937 57.9249C125.05 58.0568 125.248 58.0692 125.379 57.9527Z" fill="#065A35"/>
<path d="M145.007 65.9261L144.85 41.9804C144.849 41.8044 144.707 41.6646 144.534 41.6682L143.337 41.6929C143.164 41.6965 143.025 41.842 143.026 42.018L143.183 65.9637C143.184 66.1397 143.326 66.2795 143.499 66.2759L144.696 66.2512C144.869 66.2476 145.008 66.1021 145.007 65.9261Z" fill="#065A35"/>
<path d="M155.32 39.8011C151.188 42.7852 147.223 43.5533 142.586 41.7848C142.218 41.6469 142.009 41.252 142.081 40.8521C142.124 40.6329 142.246 40.4324 142.429 40.2972C146.562 37.3131 150.53 36.5372 155.164 38.3135C155.531 38.4514 155.741 38.8463 155.668 39.2462C155.625 39.4655 155.504 39.6659 155.32 39.8011Z" fill="#065A35"/>
<path d="M132.519 66.0287C130.071 69.6826 125.197 70.6696 121.629 68.2266C118.07 65.7861 117.166 60.841 119.617 57.1791C122.065 53.5249 126.668 53.3108 130.235 55.7539C133.802 58.1971 134.97 62.3668 132.519 66.0287Z" fill="#FACB2C"/>
<path d="M150.545 68.5437C149.467 72.8187 144.934 76.2177 140.746 75.1797C136.557 74.1417 134.033 69.8427 135.111 65.5678C136.188 61.2931 140.45 58.6669 144.638 59.7049C148.827 60.7429 151.623 64.2692 150.545 68.5437Z" fill="#FACB2C"/>
<path d="M171.912 74.3097L189.766 58.4485C189.897 58.3319 189.912 58.1305 189.799 57.9986L189.019 57.0863C188.906 56.9545 188.708 56.9421 188.577 57.0586L170.723 72.9207C170.591 73.0367 170.577 73.2387 170.689 73.3697L171.47 74.2827C171.583 74.4147 171.781 74.4267 171.912 74.3097Z" fill="#065A35"/>
<path d="M191.537 82.2846L191.38 58.3391C191.379 58.1632 191.238 58.0234 191.065 58.027L189.868 58.0517C189.695 58.0553 189.555 58.2008 189.557 58.3768L189.714 82.3226C189.715 82.4986 189.856 82.6386 190.029 82.6346L191.226 82.6096C191.399 82.6066 191.539 82.4606 191.537 82.2846Z" fill="#065A35"/>
<path d="M201.858 56.157C197.726 59.1411 193.761 59.9092 189.124 58.1407C188.756 58.0028 188.547 57.6079 188.619 57.208C188.662 56.9887 188.784 56.7883 188.967 56.6531C193.099 53.669 197.067 52.8931 201.702 54.6694C202.069 54.8073 202.279 55.2022 202.206 55.6021C202.163 55.8214 202.042 56.0218 201.858 56.157Z" fill="#065A35"/>
<path d="M179.05 82.3816C176.602 86.0356 171.999 86.2506 168.431 83.8066C164.872 81.3666 163.696 77.1946 166.147 73.5326C168.595 69.8786 173.47 68.8916 177.037 71.3346C180.604 73.7776 181.5 78.7196 179.05 82.3816Z" fill="#EB4424"/>
<path d="M196.54 86.4456C195.462 90.7196 191.201 93.3456 187.012 92.3086C182.824 91.2706 181.056 87.2366 182.133 82.9616C183.211 78.6876 186.716 75.7956 190.905 76.8336C195.093 77.8716 197.617 82.1706 196.54 86.4456Z" fill="#EB4424"/>
<path d="M78.6205 41.5222L96.4745 25.6605C96.6055 25.544 96.6205 25.3426 96.5075 25.2107L95.7275 24.2984C95.6145 24.1665 95.4165 24.1541 95.2855 24.2707L77.4311 40.1323C77.2999 40.2489 77.285 40.4503 77.3978 40.5821L78.1783 41.4944C78.2911 41.6263 78.4885 41.6387 78.6205 41.5222Z" fill="#065A35"/>
<path d="M98.2554 49.4962L98.0984 25.5504C98.0974 25.3744 97.9554 25.2347 97.7824 25.2383L96.5854 25.263C96.4124 25.2665 96.2734 25.4121 96.2744 25.5881L96.4314 49.5338C96.4334 49.7098 96.5744 49.8495 96.7474 49.846L97.9444 49.8212C98.1174 49.8177 98.2564 49.6721 98.2554 49.4962Z" fill="#065A35"/>
<path d="M108.563 23.3681C104.431 26.3521 100.466 27.1203 95.8294 25.3518C95.4614 25.2139 95.2524 24.819 95.3244 24.4191C95.3674 24.1998 95.4894 23.9994 95.6724 23.8642C99.8044 20.8801 103.772 20.1042 108.407 21.8805C108.774 22.0184 108.984 22.4133 108.911 22.8132C108.868 23.0324 108.747 23.2329 108.563 23.3681Z" fill="#065A35"/>
<path d="M84.5214 48.2916C82.0734 51.9458 77.1992 52.9327 73.632 50.4895C70.0723 48.0491 69.9245 43.3697 72.3753 39.7078C74.8261 36.0459 78.9414 34.801 82.5094 37.2442C86.0764 39.6873 86.9724 44.6297 84.5214 48.2916Z" fill="#EB4424"/>
<path d="M103.516 52.8837C102.439 57.1584 98.1774 59.7846 93.9894 58.7467C89.8004 57.7087 86.5204 53.1439 87.5984 48.8691C88.6754 44.5944 93.6934 42.234 97.8814 43.2719C102.07 44.3099 104.594 48.609 103.516 52.8837Z" fill="#EB4424"/>
<path d="M43.722 63.5401L43.7519 63.4551C44.0397 62.636 44.2597 62.0101 44.4324 61.5672C44.5974 61.1217 44.8573 60.5272 45.2024 59.7629C45.555 59.0013 45.8781 58.4203 46.182 58.0149C46.4859 57.6094 46.8796 57.1661 47.3733 56.6798C47.8595 56.1909 48.3648 55.8649 48.8844 55.6916C49.4041 55.5183 50.0208 55.4312 50.732 55.438C51.4459 55.4371 52.2098 55.584 53.0263 55.871C54.0622 56.2351 54.8925 56.7005 55.5146 57.2751C56.1367 57.8497 56.5511 58.5076 56.7681 59.2437C56.9748 59.9848 57.0724 60.7224 57.0608 61.4562C57.0492 62.1901 56.9316 63.0083 56.7155 63.9134C56.6464 64.1582 56.4911 64.286 56.2473 64.2784L51.9966 64.191C51.8491 64.1999 51.7411 64.1446 51.6549 64.0274C51.5789 63.9052 51.5489 63.7731 51.5772 63.6442C52.0715 61.8992 51.9846 60.9137 51.3344 60.6852C51.1529 60.6214 50.9649 60.6248 50.775 60.7056C50.5852 60.7865 50.3985 60.9553 50.2148 61.212C50.0312 61.4687 49.8729 61.7256 49.7379 61.9646C49.6002 62.2114 49.445 62.5563 49.2621 63.0042C49.0868 63.4548 48.9467 63.8049 48.8468 64.065C48.7469 64.3251 48.6063 64.7011 48.4298 65.2034C48.2532 65.7056 48.1229 66.0765 48.0484 66.3369C47.969 66.5868 47.8565 66.9553 47.7087 67.4242C47.5609 67.8932 47.471 68.2697 47.4268 68.5407C47.3798 68.8197 47.3452 69.1107 47.3279 69.4257C47.3106 69.7417 47.3507 69.9897 47.4482 70.1717C47.5457 70.3537 47.6903 70.4737 47.8718 70.5377C48.522 70.7657 49.2064 70.0517 49.9124 68.3807C49.9737 68.2547 50.0798 68.1707 50.2128 68.1307C50.3485 68.0827 50.4749 68.1097 50.5817 68.2167L53.9416 70.8387C54.1419 70.9697 54.1886 71.1517 54.0866 71.3937C53.6889 72.2347 53.2689 72.9467 52.8187 73.5267C52.3686 74.1057 51.8311 74.6207 51.2061 75.0697C50.5811 75.5177 49.8463 75.7717 48.9967 75.8207C48.1519 75.8797 47.2205 75.7257 46.2073 75.3697C45.3908 75.0827 44.6954 74.7167 44.1314 74.2667C43.5675 73.8167 43.1333 73.3607 42.8336 72.9077C42.534 72.4557 42.3464 71.8777 42.273 71.1917C42.1997 70.5057 42.1699 69.9137 42.1789 69.4047C42.1955 68.8987 42.2994 68.2407 42.5083 67.4284C42.7097 66.6137 42.8892 65.9822 43.0364 65.5391C43.1864 65.0882 43.3988 64.4597 43.6867 63.6406L43.7166 63.5556L43.722 63.5401Z" fill="black"/>
<path d="M60.282 58.8898C60.32 58.7816 60.3931 58.6944 60.5062 58.6387C60.6192 58.5829 60.7235 58.5762 60.837 58.616L64.7309 59.9845C64.8367 60.0217 64.9214 60.0949 64.9747 60.2092C65.028 60.3234 65.0332 60.4294 64.9925 60.5453L62.714 67.0286C62.6759 67.1367 62.6784 67.2505 62.7317 67.3647C62.785 67.479 62.8622 67.5495 62.9756 67.5893L64.5256 68.1337C64.6314 68.1717 64.7433 68.1677 64.8564 68.1117C64.9694 68.0557 65.0398 67.9762 65.0805 67.8603L67.3591 61.3771C67.3971 61.2689 67.4702 61.1817 67.5833 61.1259C67.6963 61.0702 67.8006 61.0634 67.914 61.1033L71.808 62.4718C71.9138 62.509 71.9985 62.5822 72.0518 62.6964C72.1051 62.8106 72.1103 62.9167 72.0696 63.0326L65.5191 81.6707C65.4811 81.7787 65.408 81.8667 65.2949 81.9217C65.1819 81.9777 65.0776 81.9847 64.9641 81.9447L61.0702 80.5767C60.9644 80.5387 60.8797 80.4657 60.8264 80.3517C60.7731 80.2377 60.7679 80.1317 60.8086 80.0157L63.0871 73.5317C63.1252 73.4237 63.1227 73.3107 63.0694 73.1957C63.0161 73.0817 62.9389 73.0117 62.8255 72.9717L61.2755 72.4267C61.1696 72.3897 61.0578 72.3937 60.9447 72.4497C60.8317 72.5047 60.7613 72.5847 60.7206 72.7007L58.442 79.1837C58.404 79.2917 58.3309 79.3787 58.2178 79.4347C58.1048 79.4907 58.0005 79.4977 57.8871 79.4577L53.9931 78.0887C53.8873 78.0517 53.8026 77.9787 53.7493 77.8647C53.696 77.7497 53.6908 77.6437 53.7315 77.5277L60.282 58.8898Z" fill="black"/>
<path d="M74.2699 63.8058C74.3079 63.6976 74.381 63.6105 74.494 63.5547C74.607 63.4989 74.7115 63.4922 74.8249 63.5321L85.7955 67.3878C85.9015 67.425 85.9865 67.4982 86.0395 67.6124C86.0935 67.7267 86.0984 67.8327 86.0574 67.9486L84.6585 71.9286C84.6205 72.0366 84.5475 72.1236 84.4345 72.1796C84.3215 72.2346 84.2175 72.2416 84.1035 72.2016L77.8736 70.0126C77.745 69.9676 77.6256 69.9686 77.5201 70.0266C77.4071 70.0826 77.3368 70.1626 77.296 70.2786L76.7094 71.9476C76.6714 72.0556 76.6738 72.1696 76.7271 72.2836C76.7804 72.3976 76.8728 72.4736 76.9937 72.5156L81.7875 74.2006C81.8935 74.2376 81.9775 74.3116 82.0315 74.4256C82.0845 74.5396 82.0845 74.6606 82.0405 74.7846L80.6535 78.7336C80.6065 78.8646 80.5315 78.9596 80.4205 79.0076C80.3075 79.0636 80.2035 79.0706 80.0905 79.0306L75.2964 77.3456C75.1678 77.3006 75.0484 77.3016 74.9429 77.3606C74.8299 77.4156 74.7595 77.4956 74.7187 77.6116L74.143 79.2496C74.0968 79.3806 74.0965 79.5026 74.1525 79.6086C74.2058 79.7236 74.2982 79.7986 74.4192 79.8416L80.6495 82.0316C80.7555 82.0686 80.8395 82.1416 80.8935 82.2556C80.9465 82.3696 80.9515 82.4756 80.9115 82.5916L79.5125 86.5716C79.4745 86.6796 79.4015 86.7666 79.2885 86.8226C79.1755 86.8786 79.0705 86.8856 78.9575 86.8456L67.9865 82.9896C67.8806 82.9526 67.7959 82.8796 67.7426 82.7646C67.6893 82.6506 67.6841 82.5446 67.7248 82.4286L74.2754 63.7904L74.2699 63.8058Z" fill="black"/>
<path d="M88.3565 84.9747C88.3515 84.7467 88.2535 84.5907 88.0565 84.5217C87.9285 84.4767 87.8085 84.4777 87.7035 84.5367C87.5905 84.5917 87.5195 84.6717 87.4785 84.7877L86.0425 88.8757C86.0045 88.9837 85.9315 89.0707 85.8185 89.1267C85.7055 89.1817 85.6005 89.1887 85.4875 89.1487L81.5935 87.7807C81.4875 87.7437 81.4025 87.6697 81.3495 87.5557C81.2965 87.4417 81.2915 87.3357 81.3315 87.2197L87.8825 68.5817C87.9205 68.4727 87.9935 68.3857 88.1065 68.3307C88.2195 68.2747 88.3235 68.2677 88.4375 68.3077L93.9345 70.2397C94.9695 70.6037 95.8095 71.1157 96.4495 71.7837C97.0925 72.4437 97.5125 73.2077 97.7135 74.0597C97.9155 74.9117 97.9765 75.8017 97.8925 76.7177C97.8155 77.6377 97.5955 78.6017 97.2455 79.5987C96.3785 82.0637 95.1185 83.7397 93.4605 84.6147C93.3165 84.6857 93.2375 84.8147 93.2305 85.0027L92.9915 91.1697C92.9775 91.3297 92.9095 91.4537 92.7875 91.5327C92.6665 91.6117 92.5315 91.6337 92.3875 91.5827L88.4415 90.1957C88.2445 90.1267 88.1515 89.9807 88.1715 89.7537L88.3565 84.9747ZM90.5095 79.9837C90.6905 80.0477 90.8655 80.0827 91.0255 80.0867C91.1855 80.0907 91.3285 80.0457 91.4585 79.9437C91.5875 79.8417 91.6935 79.7577 91.7785 79.6827C91.8645 79.6087 91.9535 79.4757 92.0425 79.2717C92.1285 79.0767 92.1945 78.9347 92.2245 78.8497L92.8655 77.0267C92.8985 76.9337 92.9425 76.7837 92.9925 76.5677C93.0485 76.3617 93.0645 76.1937 93.0445 76.0817C93.0245 75.9707 92.9945 75.8387 92.9515 75.6937C92.9115 75.5407 92.8285 75.4157 92.7035 75.3117C92.5795 75.2067 92.4235 75.1177 92.2425 75.0537L91.4785 74.7847C91.3495 74.7397 91.2305 74.7417 91.1255 74.7997C91.0125 74.8557 90.9415 74.9347 90.9005 75.0507L89.4645 79.1387C89.4265 79.2467 89.4285 79.3607 89.4825 79.4747C89.5355 79.5887 89.6275 79.6647 89.7485 79.7077L90.5125 79.9757L90.5095 79.9837Z" fill="black"/>
<path d="M101.882 89.7286C101.877 89.5006 101.779 89.3446 101.583 89.2756C101.454 89.2306 101.335 89.2316 101.229 89.2906C101.116 89.3456 101.046 89.4256 101.005 89.5416L99.5684 93.6296C99.5304 93.7376 99.4574 93.8246 99.3444 93.8806C99.2314 93.9356 99.1274 93.9426 99.0144 93.9026L95.1204 92.5346C95.0144 92.4976 94.9294 92.4236 94.8764 92.3096C94.8224 92.1956 94.8174 92.0896 94.8584 91.9736L101.408 73.3356C101.446 73.2266 101.52 73.1396 101.633 73.0846C101.746 73.0286 101.85 73.0216 101.963 73.0616L107.46 74.9936C108.496 75.3576 109.336 75.8696 109.976 76.5376C110.619 77.1976 111.038 77.9616 111.24 78.8136C111.442 79.6656 111.503 80.5556 111.419 81.4716C111.342 82.3916 111.122 83.3556 110.771 84.3526C109.905 86.8176 108.645 88.4936 106.987 89.3686C106.843 89.4396 106.764 89.5686 106.757 89.7566L106.518 95.9236C106.504 96.0836 106.435 96.2076 106.314 96.2866C106.193 96.3656 106.058 96.3876 105.914 96.3366L101.967 94.9496C101.771 94.8806 101.677 94.7346 101.698 94.5076L101.882 89.7286ZM104.036 84.7376C104.217 84.8016 104.392 84.8366 104.552 84.8406C104.711 84.8446 104.855 84.7996 104.984 84.6976C105.113 84.5956 105.22 84.5116 105.305 84.4366C105.391 84.3626 105.48 84.2296 105.568 84.0256C105.654 83.8306 105.721 83.6886 105.751 83.6036L106.392 81.7806C106.424 81.6876 106.468 81.5386 106.519 81.3216C106.574 81.1156 106.591 80.9476 106.571 80.8356C106.55 80.7246 106.52 80.5926 106.478 80.4476C106.438 80.2946 106.355 80.1696 106.23 80.0656C106.105 79.9606 105.95 79.8716 105.768 79.8076L105.005 79.5396C104.876 79.4936 104.757 79.4956 104.651 79.5536C104.538 79.6096 104.468 79.6886 104.427 79.8046L102.99 83.8926C102.952 84.0006 102.955 84.1146 103.008 84.2286C103.061 84.3426 103.154 84.4186 103.275 84.4616L104.038 84.7296L104.036 84.7376Z" fill="black"/>
<path d="M113.692 88.7567C113.711 88.7027 113.72 88.6537 113.711 88.6067C113.687 82.8247 113.692 79.2327 113.734 77.8317C113.727 77.6827 113.786 77.5637 113.92 77.4717C114.054 77.3807 114.179 77.3637 114.308 77.4087L118.361 78.8327C118.466 78.8707 118.551 78.9437 118.61 79.0417C118.669 79.1407 118.671 79.2547 118.633 79.3627L116.872 86.2107C116.807 86.3957 116.88 86.5257 117.084 86.5977C117.288 86.6697 117.427 86.6137 117.492 86.4287L120.372 79.9737C120.425 79.8707 120.511 79.7967 120.621 79.7487C120.731 79.7007 120.833 79.7017 120.946 79.7417L124.946 81.1477C125.09 81.1977 125.182 81.2997 125.224 81.4447C125.266 81.5897 125.243 81.7297 125.159 81.8477L118.496 90.1937C118.496 90.1937 118.436 90.2677 118.417 90.3217L115.308 99.1697C115.27 99.2777 115.197 99.3647 115.084 99.4207C114.971 99.4767 114.866 99.4827 114.753 99.4437L110.859 98.0747C110.753 98.0377 110.668 97.9647 110.615 97.8497C110.562 97.7357 110.557 97.6297 110.597 97.5137L113.677 88.7507L113.692 88.7567Z" fill="black"/>
<path d="M132.383 84.2297C132.421 84.1217 132.494 84.0347 132.607 83.9787C132.72 83.9237 132.825 83.9167 132.938 83.9567L138.435 85.8887C139.471 86.2527 140.31 86.7647 140.951 87.4317C141.594 88.0927 142.013 88.8557 142.215 89.7087C142.416 90.5607 142.478 91.4507 142.393 92.3667C142.317 93.2867 142.099 94.2427 141.752 95.2317C141.404 96.2217 140.975 97.1037 140.46 97.8687C139.944 98.6337 139.34 99.2897 138.657 99.8307C137.967 100.37 137.164 100.696 136.247 100.816C135.332 100.929 134.354 100.811 133.318 100.447L132.555 100.178C132.426 100.133 132.307 100.135 132.201 100.193C132.088 100.249 132.018 100.328 131.977 100.444L130.54 104.532C130.502 104.64 130.429 104.727 130.316 104.783C130.203 104.839 130.099 104.846 129.986 104.806L126.092 103.437C125.986 103.4 125.901 103.327 125.848 103.213C125.794 103.098 125.789 102.992 125.83 102.877L132.38 84.2377L132.383 84.2297ZM135.013 95.6247C135.195 95.6887 135.369 95.7237 135.529 95.7277C135.689 95.7317 135.832 95.6867 135.962 95.5847C136.091 95.4827 136.197 95.3987 136.282 95.3237C136.368 95.2497 136.457 95.1167 136.546 94.9137C136.632 94.7177 136.698 94.5757 136.728 94.4907L137.369 92.6677C137.402 92.5747 137.446 92.4257 137.496 92.2087C137.552 92.0027 137.568 91.8347 137.548 91.7237C137.528 91.6117 137.498 91.4797 137.455 91.3347C137.416 91.1817 137.332 91.0567 137.207 90.9527C137.083 90.8477 136.927 90.7587 136.746 90.6947L135.982 90.4267C135.854 90.3807 135.734 90.3827 135.629 90.4407C135.516 90.4967 135.445 90.5757 135.404 90.6917L133.968 94.7797C133.93 94.8877 133.932 95.0017 133.986 95.1157C134.039 95.2307 134.131 95.3057 134.252 95.3487L135.016 95.6167L135.013 95.6247Z" fill="black"/>
<path d="M145.691 88.9067C145.729 88.7987 145.802 88.7117 145.915 88.6557C146.028 88.5997 146.132 88.5937 146.246 88.6337L150.139 90.0017C150.245 90.0387 150.33 90.1117 150.383 90.2267C150.437 90.3407 150.442 90.4467 150.401 90.5627L143.851 109.201C143.813 109.309 143.739 109.397 143.626 109.452C143.513 109.508 143.409 109.515 143.296 109.475L139.402 108.106C139.296 108.069 139.211 107.996 139.158 107.882C139.105 107.768 139.099 107.662 139.14 107.546L145.691 88.9067Z" fill="black"/>
<path d="M148.978 100.533L149.008 100.448C149.296 99.6287 149.516 99.0027 149.689 98.5597C149.854 98.1147 150.114 97.5197 150.459 96.7557C150.811 95.9937 151.134 95.4127 151.438 95.0077C151.742 94.6017 152.136 94.1587 152.63 93.6727C153.116 93.1837 153.621 92.8577 154.141 92.6837C154.66 92.5107 155.277 92.4237 155.988 92.4307C156.702 92.4297 157.466 92.5767 158.283 92.8637C159.318 93.2277 160.149 93.6927 160.771 94.2677C161.393 94.8427 161.807 95.4997 162.024 96.2367C162.231 96.9777 162.329 97.7147 162.317 98.4487C162.305 99.1827 162.188 100.001 161.972 100.906C161.903 101.151 161.747 101.279 161.504 101.271L157.253 101.184C157.105 101.193 156.997 101.137 156.911 101.02C156.835 100.898 156.805 100.766 156.833 100.637C157.328 98.8917 157.241 97.9067 156.591 97.6777C156.409 97.6137 156.221 97.6177 156.031 97.6987C155.841 97.7787 155.655 97.9477 155.471 98.2047C155.287 98.4617 155.129 98.7177 154.994 98.9577C154.856 99.2037 154.701 99.5487 154.518 99.9967C154.343 100.448 154.203 100.798 154.103 101.058C154.003 101.318 153.862 101.694 153.686 102.196C153.509 102.699 153.379 103.069 153.305 103.33C153.225 103.58 153.113 103.948 152.965 104.417C152.817 104.886 152.727 105.263 152.683 105.534C152.636 105.812 152.601 106.104 152.584 106.419C152.567 106.734 152.607 106.983 152.704 107.165C152.802 107.346 152.946 107.467 153.128 107.53C153.778 107.759 154.463 107.045 155.169 105.374C155.23 105.248 155.336 105.164 155.469 105.124C155.605 105.076 155.731 105.103 155.838 105.21L159.198 107.832C159.398 107.963 159.445 108.144 159.343 108.386C158.945 109.228 158.525 109.94 158.075 110.519C157.625 111.099 157.087 111.613 156.462 112.062C155.837 112.511 155.102 112.765 154.253 112.814C153.408 112.873 152.477 112.719 151.464 112.363C150.647 112.076 149.952 111.71 149.388 111.26C148.824 110.81 148.389 110.354 148.09 109.901C147.79 109.448 147.603 108.87 147.529 108.185C147.456 107.499 147.426 106.907 147.435 106.398C147.452 105.892 147.556 105.233 147.765 104.421C147.966 103.607 148.145 102.975 148.293 102.532C148.443 102.081 148.655 101.453 148.943 100.633L148.973 100.548L148.978 100.533Z" fill="black"/>
<path d="M165.538 95.8826C165.576 95.7746 165.649 95.6866 165.762 95.6316C165.875 95.5756 165.98 95.5686 166.093 95.6086L169.987 96.9776C170.093 97.0146 170.178 97.0876 170.231 97.2016C170.284 97.3156 170.289 97.4216 170.249 97.5376L167.94 104.107C167.87 104.307 167.92 104.455 168.096 104.534C168.279 104.642 168.434 104.61 168.552 104.443L172.456 98.2186C172.588 98.0126 172.762 97.9526 172.981 98.0296L176.898 99.4056C177.041 99.4566 177.136 99.5506 177.178 99.6956C177.223 99.8326 177.2 99.9726 177.11 100.106L171.158 108.172C171.088 108.251 171.058 108.336 171.071 108.419L170.658 118.466C170.649 118.611 170.58 118.734 170.469 118.834C170.34 118.91 170.198 118.93 170.054 118.879L166.137 117.503C165.918 117.426 165.82 117.27 165.846 117.027L166.695 109.729C166.707 109.525 166.606 109.402 166.395 109.372C166.209 109.323 166.08 109.4 166.015 109.585L163.698 116.177C163.66 116.285 163.587 116.372 163.474 116.428C163.361 116.484 163.257 116.49 163.143 116.45L159.249 115.082C159.143 115.045 159.059 114.972 159.005 114.857C158.952 114.743 158.947 114.637 158.988 114.521L165.538 95.8826Z" fill="black"/>
<path d="M178.656 100.493C178.694 100.385 178.768 100.298 178.881 100.242C178.994 100.186 179.098 100.18 179.211 100.219L183.105 101.588C183.211 101.625 183.296 101.698 183.349 101.813C183.402 101.927 183.408 102.033 183.367 102.149L176.816 120.787C176.778 120.895 176.705 120.982 176.592 121.038C176.479 121.094 176.375 121.101 176.261 121.061L172.368 119.692C172.262 119.655 172.177 119.582 172.124 119.468C172.07 119.354 172.065 119.248 172.106 119.132L178.656 100.493Z" fill="black"/>
<path d="M185.567 102.922C185.605 102.814 185.678 102.727 185.791 102.671C185.904 102.615 186.009 102.608 186.122 102.648L190.122 104.054C190.341 104.131 190.442 104.279 190.422 104.507L189.712 111.915C189.69 112.098 189.774 112.197 189.97 112.222C190.141 112.265 190.249 112.199 190.309 112.029L192.637 105.407C192.675 105.298 192.748 105.211 192.861 105.156C192.974 105.1 193.078 105.093 193.192 105.133L197.086 106.501C197.191 106.539 197.276 106.612 197.329 106.726C197.383 106.84 197.388 106.946 197.347 107.062L190.797 125.701C190.759 125.809 190.686 125.896 190.572 125.952C190.459 126.007 190.355 126.014 190.242 125.974L186.242 124.569C186.023 124.492 185.922 124.343 185.942 124.116L186.652 116.708C186.673 116.525 186.589 116.426 186.394 116.4C186.223 116.357 186.114 116.424 186.055 116.594L183.727 123.216C183.689 123.324 183.616 123.411 183.503 123.467C183.39 123.523 183.286 123.53 183.172 123.49L179.278 122.121C179.172 122.084 179.088 122.011 179.034 121.897C178.981 121.782 178.976 121.676 179.017 121.56L185.567 102.922Z" fill="black"/>
<path d="M195.902 117.024L195.932 116.939C196.219 116.12 196.439 115.494 196.612 115.052C196.777 114.606 197.037 114.012 197.382 113.247C197.735 112.486 198.058 111.905 198.362 111.499C198.666 111.094 199.059 110.65 199.553 110.164C200.039 109.675 200.544 109.349 201.064 109.176C201.584 109.003 202.208 108.918 202.927 108.928C203.648 108.929 204.42 109.079 205.236 109.366C206.249 109.722 207.072 110.185 207.694 110.759C208.316 111.334 208.731 111.992 208.948 112.728C209.154 113.469 209.252 114.207 209.235 114.956C209.218 115.705 209.1 116.524 208.884 117.429C208.821 117.658 208.671 117.77 208.424 117.771L204.163 117.714C204.021 117.707 203.915 117.644 203.826 117.535C203.737 117.426 203.718 117.288 203.754 117.136C204.24 115.414 204.153 114.429 203.503 114.2C203.322 114.137 203.134 114.14 202.949 114.205C202.762 114.279 202.578 114.44 202.394 114.696C202.211 114.953 202.053 115.21 201.918 115.449C201.78 115.696 201.625 116.041 201.439 116.496C201.261 116.955 201.121 117.305 201.024 117.557C200.929 117.802 200.789 118.178 200.612 118.68C200.436 119.182 200.303 119.561 200.225 119.829C200.141 120.094 200.031 120.455 199.883 120.924C199.735 121.393 199.648 121.762 199.604 122.033C199.562 122.296 199.528 122.588 199.51 122.903C199.493 123.218 199.533 123.466 199.631 123.648C199.728 123.83 199.873 123.95 200.054 124.014C200.636 124.219 201.238 123.666 201.857 122.365C201.918 122.238 201.926 122.12 201.876 121.998C201.825 121.876 201.736 121.792 201.615 121.75L201.373 121.665C201.244 121.619 201.152 121.544 201.106 121.432C201.053 121.318 201.053 121.196 201.096 121.073L202.074 118.291C202.112 118.183 202.185 118.096 202.298 118.04C202.411 117.984 202.531 117.983 202.652 118.025L207.604 119.766C207.733 119.811 207.825 119.887 207.871 119.998C207.924 120.112 207.929 120.218 207.888 120.334L206.411 124.538C206.08 125.238 205.754 125.852 205.424 126.379C205.092 126.913 204.697 127.408 204.227 127.877C203.756 128.345 203.243 128.694 202.691 128.935C202.142 129.167 201.497 129.288 200.765 129.291C200.033 129.294 199.237 129.144 198.382 128.844C197.528 128.544 196.87 128.191 196.306 127.741C195.742 127.291 195.308 126.835 195.008 126.382C194.709 125.929 194.521 125.351 194.448 124.666C194.374 123.98 194.345 123.388 194.354 122.879C194.37 122.373 194.474 121.714 194.683 120.902C194.885 120.088 195.064 119.456 195.211 119.013C195.361 118.562 195.576 117.926 195.87 117.091L195.889 117.037L195.902 117.024Z" fill="black"/>
<path d="M80.6444 97.1526C81.3314 95.1976 82.4534 94.5416 84.0494 95.1026C85.6444 95.6636 85.9994 96.8036 85.3884 98.5426C84.7014 100.498 83.5784 101.154 81.9914 100.596C80.4034 100.038 80.0324 98.8916 80.6444 97.1526ZM84.8654 98.5066C85.4934 96.7216 85.0874 95.9186 83.7864 95.4616C82.6824 95.0736 81.7234 95.5786 81.1614 97.1786C80.5344 98.9636 80.9504 99.7866 82.2434 100.242C83.3464 100.63 84.3034 100.107 84.8654 98.5066Z" fill="black"/>
<path d="M87.7904 102.513L87.9314 102.111L88.5444 102.326L88.5754 102.285L89.3554 100.067C89.5724 99.4487 89.3464 99.0047 88.8014 98.8137C88.3174 98.6437 87.7144 98.8137 87.2884 99.1067L86.4334 101.541L86.4324 101.592L87.0444 101.808L86.9034 102.21L85.2544 101.63L85.3964 101.228L85.9934 101.438L86.0244 101.397L87.0814 98.3907L87.0794 98.3467L86.3844 98.1027L86.5254 97.7007L87.6214 98.0857L87.4544 98.6087L87.4924 98.6227C87.9534 98.3507 88.4834 98.2677 88.9674 98.4377C89.6934 98.6927 90.0424 99.3447 89.7594 100.149L88.9554 102.436L88.9544 102.488L89.5514 102.698L89.4104 103.1L87.7624 102.52L87.7904 102.513Z" fill="black"/>
<path d="M90.0434 103.305L90.1855 102.903L90.7825 103.113L90.8135 103.072L92.3695 98.6437L92.3715 98.5917L91.6755 98.3477L91.8165 97.9457L92.9285 98.3367L91.2175 103.205L91.2165 103.257L91.8135 103.466L91.6725 103.868L90.0385 103.294L90.0434 103.305Z" fill="black"/>
<path d="M93.9985 104.694L93.8245 104.633L93.7515 100.684L93.2675 100.513L93.4085 100.112L94.9515 100.654L94.8095 101.056L94.2205 100.848L94.1915 100.882L94.2585 104.317L94.3115 104.336L96.5125 101.697L96.5115 101.653L95.9365 101.451L96.0775 101.05L97.5675 101.573L97.4255 101.975L96.9425 101.805L93.6835 105.686C93.2815 106.179 92.7495 106.435 92.2735 106.267C91.7065 106.068 91.4775 105.632 91.6945 105.013C91.7435 104.874 91.8065 104.792 92.0405 104.875C92.2295 104.941 92.2555 105.037 92.2145 105.153C92.1925 105.215 92.1585 105.263 92.1345 105.333C92.0415 105.596 92.1015 105.764 92.4045 105.871C92.7445 105.99 93.1355 105.746 93.4985 105.318L94.0135 104.7L93.9985 104.694Z" fill="black"/>
<path d="M98.0224 108.158L98.1634 107.756L98.7604 107.966L98.7924 107.925L100.492 103.087L100.49 103.043L99.7954 102.799L99.9364 102.397L101.032 102.782L100.879 103.267L100.917 103.28C101.433 103.019 101.94 102.98 102.371 103.131C103.392 103.49 103.744 104.421 103.307 105.665C102.823 107.041 101.894 107.582 100.828 107.208C100.382 107.051 100.04 106.766 99.8284 106.379L99.7904 106.366L99.1934 108.066L99.1914 108.117L99.8874 108.362L99.7464 108.764L98.0144 108.155L98.0224 108.158ZM99.9534 105.902C100.144 106.325 100.513 106.654 100.913 106.795C101.775 107.098 102.457 106.73 102.862 105.578C103.239 104.504 103.008 103.807 102.199 103.523C101.784 103.376 101.246 103.431 100.716 103.731L99.9504 105.91L99.9534 105.902Z" fill="black"/>
<path d="M106.458 109.074C106.141 108.962 105.991 108.71 106.096 108.339L106.043 108.32C105.588 108.577 105.077 108.701 104.495 108.496C103.913 108.292 103.601 107.705 103.821 107.079C104.084 106.329 104.966 105.997 106.741 106.456L106.795 106.301C107.029 105.637 106.917 105.181 106.222 104.936C105.647 104.734 105.251 104.847 105.14 105.164C105.115 105.233 105.106 105.308 105.087 105.362C105.049 105.47 104.969 105.529 104.78 105.462C104.545 105.38 104.548 105.277 104.596 105.138C104.852 104.411 105.544 104.255 106.383 104.55C107.328 104.882 107.506 105.561 107.231 106.342L106.496 108.436C106.457 108.544 106.506 108.648 106.612 108.685L107.043 108.836L106.902 109.238L106.448 109.079L106.458 109.074ZM106.635 106.783C105.166 106.466 104.484 106.617 104.275 107.212C104.136 107.607 104.306 107.97 104.737 108.121C105.168 108.273 105.778 108.131 106.236 107.893L106.627 106.78L106.635 106.783Z" fill="black"/>
<path d="M107.555 109.459L107.696 109.057L108.293 109.267L108.325 109.226L109.381 106.22L109.379 106.176L108.684 105.932L108.825 105.53L109.937 105.92L109.622 106.817L109.652 106.827C110.38 106.206 110.776 106.094 111.169 106.232C111.676 106.41 111.845 106.921 111.635 107.516C111.557 107.74 111.501 107.825 111.267 107.742C111.07 107.673 111.047 107.57 111.088 107.454C111.115 107.377 111.179 107.269 111.222 107.145C111.298 106.929 111.26 106.724 110.965 106.62C110.647 106.509 110.149 106.742 109.375 107.494L108.715 109.372L108.714 109.424L109.311 109.634L109.17 110.035L107.537 109.461L107.555 109.459Z" fill="black"/>
<path d="M113.717 111.408C113.394 111.503 113.082 111.497 112.727 111.372C112.19 111.184 111.949 110.708 112.164 110.098L113.071 107.517L113.069 107.473L112.434 107.25L112.575 106.848L113.225 107.076L113.524 106.226L113.925 106.367L113.626 107.217L115.033 107.711L114.816 108.087L113.485 107.619L112.589 110.169C112.415 110.664 112.57 110.874 112.956 111.01C113.236 111.108 113.582 111.065 113.877 110.952L113.717 111.408Z" fill="black"/>
<path d="M117.324 110.835C117.794 109.498 118.733 108.882 119.92 109.299C120.963 109.666 121.349 110.6 120.917 111.828C120.447 113.165 119.501 113.779 118.321 113.365C117.278 112.998 116.892 112.064 117.324 110.835ZM120.463 111.765C120.852 110.66 120.595 109.988 119.703 109.674C118.864 109.379 118.158 109.817 117.778 110.899C117.397 111.981 117.653 112.678 118.538 112.989C119.423 113.3 120.083 112.847 120.463 111.765Z" fill="black"/>
<path d="M120.87 114.139L121.011 113.737L121.608 113.947L121.639 113.906L122.696 110.9L122.694 110.856L122.059 110.633L122.2 110.231L122.851 110.459L122.981 110.088C123.334 109.084 123.866 108.706 124.652 108.983C125.303 109.211 125.534 109.666 125.319 110.276C125.278 110.392 125.215 110.5 124.981 110.418C124.792 110.351 124.758 110.253 124.796 110.145C124.81 110.106 124.849 110.042 124.879 109.957C124.972 109.694 124.867 109.484 124.527 109.364C124.005 109.181 123.681 109.379 123.368 110.268L123.249 110.608L124.481 111.041L124.264 111.416L123.108 111.01L122.035 114.062L122.034 114.114L122.805 114.385L122.664 114.786L120.857 114.151L120.87 114.139Z" fill="black"/>
<path d="M127.757 116.342C127.435 116.437 127.123 116.432 126.767 116.307C126.231 116.118 125.99 115.643 126.204 115.032L127.111 112.452L127.11 112.408L126.475 112.184L126.616 111.783L127.266 112.011L127.565 111.161L127.966 111.302L127.667 112.152L129.073 112.646L128.856 113.021L127.526 112.554L126.63 115.104C126.456 115.598 126.611 115.809 126.997 115.945C127.276 116.043 127.623 116 127.918 115.886L127.757 116.342Z" fill="black"/>
<path d="M130.873 117.654L131.014 117.252L131.626 117.468L131.658 117.427L132.437 115.209C132.654 114.591 132.428 114.146 131.884 113.955C131.4 113.785 130.807 113.95 130.371 114.248L129.515 116.682L129.514 116.734L130.127 116.949L129.985 117.351L128.337 116.772L128.478 116.37L129.076 116.58L129.107 116.539L130.663 112.111L130.664 112.059L129.969 111.815L130.11 111.413L131.221 111.804L130.54 113.743L130.578 113.756C131.038 113.484 131.569 113.402 132.053 113.572C132.778 113.827 133.127 114.479 132.845 115.282L132.041 117.57L132.039 117.621L132.637 117.831L132.496 118.233L130.847 117.654H130.873Z" fill="black"/>
<path d="M136.285 119.174C135.85 119.325 135.364 119.354 134.819 119.163C133.738 118.783 133.323 117.838 133.754 116.609C134.227 115.265 135.178 114.661 136.32 115.063C137.235 115.384 137.538 116.212 137.253 117.023C137.175 117.247 137.049 117.507 136.914 117.746L134.17 116.781C133.841 117.812 134.151 118.477 135.036 118.787C135.46 118.936 135.948 118.9 136.451 118.703L136.288 119.167L136.285 119.174ZM136.68 117.229C136.714 117.155 136.786 116.998 136.811 116.928C137.066 116.202 136.798 115.682 136.118 115.443C135.438 115.204 134.724 115.518 134.313 116.398L136.672 117.227L136.68 117.229Z" fill="black"/>
<path d="M143.058 118.803L143.091 118.059C142.894 117.894 142.63 117.749 142.282 117.627C141.602 117.388 141.2 117.542 141.053 117.959C140.887 118.43 141.173 118.704 141.896 119.089C142.712 119.523 143.032 119.991 142.798 120.656C142.54 121.39 141.841 121.613 140.866 121.27C140.473 121.132 140.064 120.893 139.765 120.658L140.016 119.531L140.334 119.642L140.27 120.453C140.507 120.649 140.77 120.794 141.065 120.898C141.745 121.137 142.215 121.033 142.384 120.554C142.533 120.129 142.377 119.848 141.559 119.396C140.764 118.951 140.383 118.583 140.636 117.864C140.888 117.146 141.511 116.922 142.486 117.265C142.789 117.371 143.065 117.503 143.3 117.681L143.705 117.641L143.358 118.917L143.056 118.81L143.058 118.803Z" fill="black"/>
<path d="M145.707 122.651C145.385 122.746 145.073 122.74 144.717 122.615C144.18 122.427 143.94 121.951 144.154 121.341L145.061 118.76L145.06 118.716L144.425 118.493L144.566 118.091L145.216 118.32L145.515 117.47L145.916 117.61L145.617 118.46L147.023 118.955L146.806 119.33L145.476 118.862L144.579 121.412C144.406 121.907 144.561 122.118 144.946 122.253C145.226 122.351 145.573 122.308 145.867 122.195L145.707 122.651Z" fill="black"/>
<path d="M147.016 121.27C147.486 119.934 148.425 119.317 149.612 119.734C150.655 120.101 151.041 121.035 150.609 122.264C150.139 123.601 149.193 124.214 148.013 123.8C146.97 123.433 146.584 122.499 147.016 121.27ZM150.156 122.2C150.544 121.095 150.287 120.423 149.395 120.11C148.556 119.815 147.85 120.252 147.47 121.334C147.089 122.416 147.345 123.114 148.23 123.425C149.115 123.735 149.775 123.282 150.156 122.2Z" fill="black"/>
<path d="M150.63 124.598L150.771 124.196L151.368 124.406L151.4 124.365L152.456 121.359L152.454 121.315L151.759 121.07L151.9 120.669L153.011 121.059L152.696 121.956L152.727 121.966C153.455 121.345 153.851 121.233 154.244 121.371C154.751 121.549 154.92 122.06 154.71 122.655C154.632 122.879 154.576 122.964 154.342 122.881C154.145 122.812 154.122 122.709 154.163 122.593C154.19 122.515 154.254 122.407 154.297 122.284C154.373 122.067 154.335 121.863 154.04 121.759C153.722 121.648 153.224 121.881 152.45 122.633L151.79 124.511L151.789 124.562L152.386 124.772L152.245 125.174L150.612 124.6L150.63 124.598Z" fill="black"/>
<path d="M156.202 126.556L156.028 126.495L155.955 122.545L155.471 122.375L155.612 121.973L157.155 122.516L157.014 122.917L156.424 122.71L156.395 122.743L156.462 126.179L156.515 126.197L158.716 123.559L158.715 123.515L158.14 123.313L158.282 122.911L159.771 123.435L159.63 123.837L159.146 123.667L155.887 127.548C155.485 128.041 154.953 128.297 154.477 128.129C153.91 127.93 153.681 127.493 153.898 126.875C153.947 126.736 154.01 126.654 154.244 126.736C154.433 126.803 154.459 126.899 154.418 127.015C154.397 127.076 154.363 127.125 154.338 127.195C154.246 127.458 154.305 127.626 154.608 127.732C154.948 127.852 155.34 127.608 155.703 127.179L156.217 126.562L156.202 126.556Z" fill="black"/>
</svg>
