<svg width="177" height="180" viewBox="0 0 177 180" fill="none" xmlns="http://www.w3.org/2000/svg">
<path d="M176.869 70.8971C176.759 68.181 158.913 60.3664 154.301 56.1967C153.785 55.7342 153.533 55.0485 153.598 54.3563L156.006 29.6531C156.129 28.395 155.175 27.287 153.928 27.2595C147.698 27.114 130.942 28.494 128.149 26.7049C125.654 25.1073 120.157 10.1281 117.409 3.61735C116.914 2.45145 115.546 1.95905 114.447 2.54995L92.841 14.1549C92.145 14.527 91.311 14.4861 90.651 14.0339L70.6034 0.372252C69.5948 -0.315748 68.2372 -0.0217468 67.6102 1.02045L54.8161 22.0711C54.474 22.6364 53.8979 23.0172 53.2516 23.0741C48.4967 23.495 34.1169 20.9286 28.5419 20.7313C27.3332 20.6886 26.3493 21.6836 26.3671 22.9182L26.7587 48.2882C26.7735 49.1568 26.2714 49.9437 25.4941 50.2919L2.78939 60.3773C1.64519 60.888 1.17109 62.2844 1.78639 63.3965C4.78549 68.7942 14.4339 82.1339 14.1622 86.3859C13.8521 91.1649 0.912289 102.803 0.022789 108.78C-0.107211 109.652 0.328689 110.512 1.08229 110.951L22.0515 123.265C22.7743 123.689 23.1922 124.498 23.1175 125.338L20.9817 150.466C20.8751 151.735 21.8689 152.834 23.1233 152.833L47.561 152.799C48.3929 152.798 49.158 153.29 49.5114 154.058L59.6859 176.23C60.159 177.262 61.3363 177.768 62.3704 177.357C67.3909 175.378 79.1168 166.874 83.983 164.949C84.654 164.686 85.405 164.793 85.989 165.22L105.152 179.212C105.433 179.421 105.759 179.551 106.103 179.601L107.612 179.814C108.471 179.939 109.316 179.521 109.747 178.756L121.812 157.414C122.189 156.751 122.875 156.333 123.631 156.335C128.72 156.368 142.871 158.873 148.275 158.726C149.425 158.692 150.345 157.752 150.346 156.576L150.382 131.867C150.386 131.147 150.725 130.472 151.314 130.088C155.594 127.279 169.627 122.227 174.168 119.188C175.119 118.553 175.402 117.267 174.812 116.268L162.247 95.0969C161.867 94.4599 161.829 93.6799 162.151 93.0219C164.922 87.3779 176.988 74.0402 176.856 70.9L176.869 70.8971Z" fill="#F3EFE8"/>
<path d="M106.194 170.095C105.763 170.189 105.317 170.209 104.865 170.141L103.548 169.949C102.948 169.864 102.37 169.63 101.885 169.278L85.144 157.059C83.274 157.803 79.6915 160.052 76.225 162.228C72.3608 164.65 68.7113 166.941 66.3352 167.878C64.5033 168.607 62.4306 167.776 61.6179 166.008L52.7307 146.642L31.3388 146.591C30.3196 146.59 29.3753 146.2 28.6785 145.479C27.9479 144.731 27.5879 143.708 27.677 142.679L29.5457 120.736C29.5574 120.629 29.5028 120.537 29.4559 120.513L11.1408 109.763C9.8614 109.009 9.1685 107.602 9.3856 106.171C9.8513 103.04 13.002 99.0848 16.3378 94.8958C18.6919 91.9368 21.6235 88.2508 21.7212 86.7488C21.8593 84.6018 17.1783 77.2641 14.3834 72.8739C13.0311 70.759 11.8652 68.9288 11.1147 67.5761C10.6144 66.6743 10.5339 65.5985 10.8909 64.6217C11.23 63.6904 11.9583 62.9238 12.8808 62.5095L32.7068 53.6979L32.3794 31.4413C32.3648 30.4135 32.7946 29.421 33.5557 28.7096C34.2894 28.0318 35.2394 27.6807 36.2445 27.7122C38.3414 27.7908 41.6995 28.2191 45.2507 28.6747C49.9856 29.2822 55.3477 29.9683 57.5784 29.7689L68.652 11.4019C69.7042 9.66573 72.2868 9.10643 73.9696 10.2503L91.475 22.193L110.276 12.0743C111.177 11.5888 112.25 11.4878 113.218 11.797C114.239 12.1226 115.058 12.8654 115.463 13.8364C115.988 15.0787 116.632 16.6759 117.33 18.4274C119.249 23.2219 122.829 32.1332 124.215 33.2514C125.605 34.0022 134.153 33.7147 138.736 33.5593C141.572 33.4641 144.029 33.3817 145.73 33.4217C146.733 33.4465 147.661 33.8546 148.338 34.5798C149.042 35.3337 149.387 36.3521 149.291 37.383L147.191 58.9614C147.183 59.0531 147.215 59.1361 147.257 59.1686C148.868 60.6254 152.798 62.7979 156.596 64.9023C164.623 69.3494 167.434 71.0931 167.524 73.1702C167.606 75.1175 165.468 78.1474 160.582 84.5888C158.08 87.8908 155.491 91.3018 154.509 93.2998C154.485 93.3468 154.485 93.4438 154.537 93.5218L165.515 112.013C166.495 113.655 165.994 115.791 164.377 116.874C162.191 118.337 158.045 120.127 153.658 122.025C149.931 123.635 146.083 125.299 144.401 126.403L144.38 148.071C144.376 150.071 142.774 151.671 140.737 151.738C138.042 151.81 133.224 151.206 128.569 150.616C124.884 150.148 121.07 149.666 119.141 149.655L108.693 168.288C108.162 169.226 107.248 169.874 106.215 170.098L106.194 170.095ZM84.459 153.637C85.492 153.413 86.573 153.636 87.445 154.27L104.186 166.49L105.503 166.682L115.965 148.053C116.633 146.877 117.882 146.15 119.237 146.161C121.396 146.178 125.153 146.651 129.13 147.153C133.428 147.696 138.297 148.316 140.695 148.246V126.576C140.7 125.35 141.309 124.222 142.335 123.55C144.29 122.269 148.118 120.61 152.176 118.859C156.214 117.113 160.385 115.31 162.28 114.042C162.296 114.017 162.334 113.905 162.268 113.795L151.29 95.3048C150.669 94.2628 150.615 92.9878 151.149 91.9038C152.286 89.5958 154.858 86.2018 157.586 82.6008C159.878 79.5793 163.276 75.1003 163.769 73.5682C162.725 72.3966 157.912 69.7304 154.667 67.9354C150.507 65.6327 146.584 63.4587 144.67 61.7283C143.819 60.9648 143.4 59.8654 143.513 58.7201L145.613 37.1417C145.626 37.0075 145.546 36.9279 145.522 36.9123C143.955 36.8781 141.436 36.9668 138.772 37.0526C129.735 37.356 124.098 37.4489 122.06 36.1397C120.195 34.9523 118.024 30.1155 113.862 19.732C113.168 18.0003 112.537 16.4281 112.021 15.1976L93.16 25.2324C91.91 25.8974 90.418 25.8261 89.263 25.0384L71.7573 13.0957L60.669 31.459C60.0561 32.4704 58.9992 33.1283 57.8368 33.2347C55.184 33.4702 49.8432 32.7863 44.6662 32.1224C41.2442 31.6872 38.0059 31.2676 36.0765 31.1942C36.0794 31.2074 36.0719 31.2367 36.0753 31.2844L36.4158 53.4413C36.4411 54.9027 35.5713 56.2326 34.2119 56.8384L14.3792 65.6514C14.3792 65.6514 14.333 65.7583 14.3971 65.862C15.1011 67.128 16.2371 68.9161 17.5595 70.9891C22.2747 78.3884 25.602 83.8608 25.4104 86.8488C25.2455 89.4178 22.4716 92.9028 19.2662 96.9258C16.5027 100.395 13.3742 104.325 13.0431 106.541C13.0323 106.62 13.0803 106.713 13.1419 106.741L31.4569 117.492C32.672 118.204 33.3485 119.504 33.2265 120.893L31.3578 142.837C31.3452 142.971 31.4315 143.049 31.4542 143.058L52.7717 143.022C54.2201 143.02 55.538 143.855 56.1294 145.145L65.0166 164.51C65.0536 164.585 65.0991 164.603 65.0991 164.603C67.035 163.81 70.7029 161.508 74.2418 159.281C78.0204 156.913 81.591 154.673 83.871 153.771C84.062 153.695 84.263 153.631 84.462 153.588L84.459 153.637Z" fill="black"/>
<path d="M32.3266 82.0029C32.3065 81.9099 32.321 81.8169 32.3781 81.7289C32.4352 81.6399 32.5075 81.5899 32.6069 81.5689L42.2157 79.4876C42.3084 79.4675 42.4017 79.4819 42.4903 79.5388C42.5788 79.5957 42.6291 79.6679 42.6506 79.767L43.3877 83.1709C43.4077 83.2629 43.3932 83.3559 43.3361 83.4449C43.279 83.5329 43.2067 83.5839 43.1074 83.6049L37.6507 84.7869C37.5381 84.8109 37.4525 84.8639 37.4021 84.9509C37.345 85.0399 37.329 85.1259 37.3505 85.2249L37.6596 86.6529C37.6797 86.7459 37.7314 86.8239 37.82 86.8809C37.9086 86.9379 38.0084 86.9509 38.1144 86.9279L42.3129 86.0189C42.4056 85.9989 42.4988 86.0129 42.5874 86.0699C42.676 86.1269 42.7292 86.2119 42.7521 86.3179L43.4834 89.6949C43.5077 89.8079 43.4932 89.9009 43.4361 89.9889C43.379 90.0779 43.3067 90.1279 43.2074 90.1499L39.0089 91.0589C38.8963 91.0829 38.8108 91.1359 38.7603 91.2229C38.7032 91.3119 38.6873 91.3979 38.7087 91.4969L39.0122 92.8979C39.0365 93.0109 39.0882 93.0899 39.1768 93.1469C39.2654 93.2029 39.3652 93.2159 39.4712 93.1929L44.9279 92.0119C45.0206 91.9919 45.1139 92.0059 45.2025 92.0629C45.291 92.1199 45.3413 92.1919 45.3628 92.2909L46.0999 95.6949C46.1199 95.7869 46.1054 95.8799 46.0483 95.9689C45.9912 96.0569 45.9189 96.1079 45.8196 96.1289L36.2107 98.2099C36.118 98.2299 36.0248 98.2159 35.9362 98.1589C35.8476 98.1019 35.7973 98.0299 35.7758 97.9309L32.3237 81.9899L32.3266 82.0029Z" fill="black"/>
<path d="M44.2466 79.4215C44.2265 79.3289 44.241 79.2358 44.2981 79.1474C44.3552 79.0589 44.4275 79.0086 44.5269 78.9871L51.0564 77.5731C51.1491 77.553 51.2424 77.5674 51.3281 77.6111C51.4152 77.6614 51.4641 77.727 51.4856 77.8261L54.8135 89.6079C54.8478 89.7669 54.9577 89.8259 55.1365 89.7869C55.3153 89.7489 55.3909 89.6489 55.3565 89.4899L53.512 77.3873C53.4919 77.2948 53.5079 77.2083 53.5664 77.1264C53.6249 77.0445 53.6987 77.0009 53.798 76.9794L60.3275 75.5654C60.4202 75.5453 60.5135 75.5597 60.6021 75.6166C60.6906 75.6735 60.7409 75.7457 60.7624 75.8448L64.2145 91.7859C64.2346 91.8779 64.2201 91.9709 64.163 92.0599C64.1059 92.1479 64.0336 92.1989 63.9342 92.2199L60.5238 92.9589C60.4311 92.9789 60.3378 92.9639 60.2492 92.9079C60.1607 92.8509 60.1104 92.7779 60.0889 92.6789L57.5069 80.7565C57.4726 80.5979 57.3745 80.5292 57.2127 80.5504C57.0495 80.565 56.9791 80.6563 56.9936 80.8193L58.0725 93.1639C58.1036 93.3719 58.0073 93.5039 57.7822 93.5519L54.279 94.3109C54.0539 94.3599 53.9118 94.2799 53.8542 94.0779L49.7291 82.3929C49.6815 82.2369 49.573 82.1839 49.4184 82.2379C49.2623 82.2859 49.2029 82.3959 49.2358 82.5479L51.8177 94.4709C51.8378 94.5629 51.8233 94.6559 51.7662 94.7449C51.7091 94.8329 51.6368 94.8829 51.5374 94.9049L48.127 95.6429C48.0343 95.6629 47.941 95.6489 47.8524 95.5919C47.7638 95.5349 47.7136 95.4629 47.6921 95.3639L44.2399 79.4229L44.2466 79.4215Z" fill="black"/>
<path d="M64.4104 84.7828C64.3337 84.4608 64.2312 84.0188 64.1109 83.4638C63.9907 82.9088 63.8948 82.4658 63.8379 82.1388C63.7744 81.8138 63.7013 81.3798 63.6199 80.8441C63.5385 80.3082 63.4852 79.87 63.4732 79.5267C63.4561 79.1914 63.4658 78.788 63.4877 78.3127C63.511 77.8441 63.5779 77.4491 63.6966 77.1328C63.8087 76.8179 63.9628 76.4732 64.1619 76.1118C64.3595 75.7438 64.606 75.4413 64.8984 75.1912C65.1923 74.9477 65.5582 74.7162 65.9974 74.5035C66.4366 74.2907 66.9285 74.1289 67.4847 74.0084C68.041 73.8879 68.5557 73.8318 69.037 73.8452C69.5183 73.8586 69.939 73.9128 70.3088 74.0195C70.6771 74.1197 71.0281 74.2997 71.3602 74.5529C71.6924 74.8062 71.9739 75.0497 72.2062 75.2899C72.4385 75.5302 72.6695 75.8608 72.8846 76.2777C73.0997 76.6947 73.2768 77.0646 73.4066 77.3755C73.5429 77.685 73.6823 78.1046 73.8313 78.6327C73.979 79.1543 74.0852 79.581 74.1554 79.9048L74.7279 82.5488C74.798 82.8718 74.8778 83.3048 74.9592 83.8408C75.0406 84.3768 75.0872 84.8158 75.0926 85.1608C75.0965 85.4988 75.0934 85.9008 75.0715 86.3768C75.0496 86.8518 74.9812 87.2398 74.8626 87.5558C74.7505 87.8708 74.5964 88.2158 74.3973 88.5768C74.1997 88.9448 73.9532 89.2478 73.6608 89.4978C73.3683 89.7478 73.001 89.9728 72.575 90.1828C72.149 90.3928 71.6506 90.5558 71.0943 90.6768C70.538 90.7968 70.0167 90.8548 69.5354 90.8408C69.0475 90.8288 68.6201 90.7758 68.2504 90.6698C67.8821 90.5698 67.5311 90.3898 67.199 90.1358C66.8668 89.8828 66.5853 89.6398 66.353 89.3988C66.1207 89.1588 65.8911 88.8348 65.6746 88.4118C65.4581 87.9878 65.289 87.6228 65.1564 87.2988C65.0318 86.9798 64.8924 86.5608 64.7463 86.0458C64.6001 85.5308 64.4886 85.1118 64.4104 84.7828ZM70.2012 86.5528C70.3602 86.5178 70.493 86.4268 70.593 86.2808C70.6931 86.1348 70.7538 85.9348 70.7751 85.6808C70.7964 85.4268 70.8059 85.1828 70.805 84.9548C70.8042 84.7268 70.7757 84.4348 70.7146 84.0888C70.6534 83.7418 70.6108 83.4818 70.5707 83.2968L70.1041 81.1418C70.0555 80.9168 69.9764 80.6161 69.8735 80.2371C69.7706 79.8581 69.6703 79.5546 69.5819 79.3385C69.4935 79.1224 69.3904 78.9026 69.2646 78.6738C69.1388 78.445 69.0008 78.2881 68.8507 78.203C68.7005 78.1179 68.5434 78.0966 68.3712 78.1339C68.199 78.1711 68.0714 78.2541 67.9765 78.3923C67.8817 78.5305 67.821 78.7304 67.7945 78.9922C67.768 79.2539 67.7599 79.5047 67.7674 79.7314C67.7763 79.9648 67.8157 80.2745 67.8802 80.6687C67.9514 81.0618 68.004 81.3688 68.0446 81.5878C68.0867 81.8138 68.1502 82.1398 68.2432 82.5688L68.4235 83.4018C68.455 83.5468 68.4965 83.7388 68.5627 83.9808C68.6223 84.2238 68.6828 84.4388 68.7375 84.6278C68.7923 84.8168 68.8646 85.0218 68.9464 85.2398C69.0296 85.4638 69.1122 85.6538 69.1944 85.8088C69.2765 85.9638 69.3705 86.1098 69.4734 86.2328C69.5777 86.3618 69.6933 86.4478 69.8164 86.5038C69.9462 86.5588 70.074 86.5728 70.1998 86.5458L70.2012 86.5528Z" fill="black"/>
<path d="M77.7262 76.4816C77.7062 76.3891 77.6545 76.3104 77.5659 76.2534C77.4773 76.1965 77.3907 76.1807 77.2913 76.2022L74.9073 76.7185C74.8146 76.7385 74.7214 76.7241 74.6328 76.6672C74.5442 76.6103 74.4939 76.5382 74.4725 76.439L73.7354 73.0354C73.7153 72.9428 73.7298 72.8498 73.7869 72.7613C73.844 72.6728 73.9163 72.6226 74.0157 72.601L83.625 70.5202C83.717 70.5001 83.81 70.5145 83.899 70.5714C83.988 70.6283 84.038 70.7005 84.059 70.7996L84.797 74.2033C84.817 74.2958 84.802 74.3889 84.745 74.4774C84.688 74.5658 84.616 74.6161 84.516 74.6376L82.132 75.1539C82.039 75.1739 81.961 75.2256 81.903 75.3141C81.846 75.4026 81.83 75.4891 81.852 75.5882L84.412 87.4119C84.432 87.5039 84.418 87.5969 84.361 87.6859C84.304 87.7739 84.231 87.8249 84.132 87.8459L80.722 88.5849C80.629 88.6049 80.536 88.5899 80.4471 88.5329C80.3585 88.4769 80.3082 88.4039 80.2867 88.3049L77.7262 76.4816Z" fill="black"/>
<path d="M85.39 70.5113C85.37 70.4188 85.385 70.3257 85.442 70.2372C85.499 70.1487 85.571 70.0985 85.671 70.077L89.081 69.3384C89.174 69.3183 89.267 69.3327 89.356 69.3896C89.444 69.4466 89.495 69.5187 89.516 69.6178L92.968 85.5588C92.988 85.6518 92.974 85.7448 92.917 85.8328C92.86 85.9218 92.787 85.9718 92.688 85.9928L89.278 86.7318C89.185 86.7518 89.092 86.7378 89.003 86.6808C88.914 86.6238 88.864 86.5518 88.843 86.4518L85.39 70.5113Z" fill="black"/>
<path d="M93.164 78.5559C93.087 78.2335 92.985 77.7921 92.865 77.237C92.744 76.6818 92.648 76.239 92.592 75.9123C92.528 75.587 92.455 75.1531 92.374 74.6172C92.292 74.0814 92.239 73.6432 92.227 73.2998C92.21 72.9645 92.219 72.5611 92.241 72.0859C92.265 71.6172 92.332 71.2222 92.45 70.9059C92.562 70.591 92.716 70.2463 92.916 69.8849C93.113 69.5169 93.36 69.2145 93.652 68.9643C93.946 68.7208 94.312 68.4893 94.751 68.2766C95.19 68.0639 95.682 67.902 96.238 67.7815C96.795 67.6611 97.309 67.6049 97.791 67.6183C98.272 67.6317 98.693 67.6859 99.062 67.7927C99.431 67.8928 99.782 68.0728 100.114 68.3261C100.446 68.5793 100.728 68.8228 100.96 69.0631C101.192 69.3034 101.423 69.6339 101.638 70.0509C101.853 70.4679 102.03 70.8377 102.16 71.1487C102.297 71.4582 102.436 71.8777 102.585 72.4059C102.733 72.9274 102.839 73.3541 102.909 73.678L103.482 76.3216C103.552 76.6454 103.631 77.0779 103.713 77.6138C103.794 78.1497 103.841 78.5893 103.846 78.9341C103.85 79.2723 103.847 79.6742 103.825 80.1495C103.803 80.6247 103.735 81.0128 103.616 81.3298C103.504 81.6438 103.35 81.9888 103.151 82.3508C102.953 82.7188 102.707 83.0208 102.414 83.2708C102.122 83.5208 101.755 83.7458 101.329 83.9558C100.903 84.1658 100.404 84.3288 99.848 84.4498C99.292 84.5698 98.77 84.6278 98.289 84.6138C97.801 84.6018 97.374 84.5498 97.004 84.4428C96.636 84.3428 96.285 84.1628 95.953 83.9088C95.62 83.6558 95.339 83.4128 95.107 83.1718C94.874 82.9318 94.645 82.6078 94.428 82.1848C94.212 81.7608 94.043 81.3958 93.91 81.0718C93.785 80.753 93.646 80.3335 93.5 79.8185C93.354 79.3036 93.242 78.8849 93.164 78.5559ZM98.948 80.3269C99.107 80.2925 99.24 80.2014 99.34 80.0552C99.44 79.909 99.501 79.7091 99.522 79.4554C99.543 79.2017 99.553 78.9574 99.552 78.7293C99.551 78.5012 99.523 78.2098 99.462 77.8633C99.4 77.5167 99.358 77.2561 99.318 77.0711L98.851 74.9165C98.803 74.6918 98.723 74.3907 98.621 74.0116C98.518 73.6326 98.417 73.3292 98.329 73.1131C98.241 72.897 98.137 72.6771 98.012 72.4484C97.886 72.2196 97.748 72.0627 97.598 71.9776C97.448 71.8925 97.29 71.8711 97.118 71.9084C96.946 71.9457 96.818 72.0287 96.724 72.1669C96.629 72.305 96.568 72.505 96.542 72.7667C96.515 73.0285 96.507 73.2793 96.514 73.506C96.523 73.7393 96.563 74.0491 96.627 74.4433C96.698 74.8361 96.751 75.143 96.792 75.3625C96.834 75.5887 96.897 75.9139 96.99 76.3435L97.171 77.1763C97.202 77.3217 97.244 77.5133 97.31 77.755C97.369 77.9981 97.43 78.2133 97.485 78.4021C97.539 78.5909 97.612 78.7967 97.693 79.0142C97.777 79.2383 97.859 79.428 97.941 79.5832C98.024 79.7384 98.117 79.8841 98.22 80.0071C98.325 80.1367 98.44 80.2224 98.563 80.2788C98.693 80.3337 98.821 80.3475 98.947 80.3203L98.948 80.3269Z" fill="black"/>
<path d="M103.085 66.6794C103.065 66.5869 103.08 66.4938 103.137 66.4053C103.194 66.3168 103.266 66.2666 103.365 66.245L106.869 65.4864C107.061 65.4448 107.198 65.5049 107.283 65.6733L110.022 71.1827C110.087 71.3209 110.191 71.3537 110.343 71.2862C110.486 71.2415 110.535 71.1478 110.503 71.0024L109.277 65.3385C109.257 65.246 109.271 65.1529 109.328 65.0644C109.385 64.9759 109.458 64.9257 109.557 64.9042L112.968 64.1656C113.06 64.1455 113.154 64.1599 113.242 64.2169C113.331 64.2738 113.381 64.3459 113.402 64.4451L116.855 80.386C116.875 80.4785 116.86 80.5716 116.803 80.6601C116.746 80.7486 116.674 80.7988 116.574 80.8203L113.071 81.5788C112.879 81.6208 112.741 81.5608 112.656 81.3918L109.917 75.8827C109.853 75.7445 109.748 75.7117 109.597 75.7791C109.454 75.8239 109.405 75.9176 109.436 76.063L110.663 81.7268C110.683 81.8198 110.668 81.9128 110.611 82.0008C110.554 82.0898 110.482 82.1398 110.383 82.1608L106.972 82.8998C106.879 82.9198 106.786 82.9058 106.698 82.8488C106.609 82.7918 106.559 82.7198 106.537 82.6208L103.085 66.6794Z" fill="black"/>
<path d="M128.48 77.82C128.504 77.9324 128.491 78.0321 128.449 78.1243C128.386 78.2208 128.309 78.2791 128.21 78.3006L124.845 79.0291C124.753 79.0492 124.659 79.0348 124.574 78.9911C124.488 78.9474 124.436 78.8686 124.416 78.7761L124.004 77.3224C123.984 77.2299 123.934 77.1577 123.847 77.1074C123.76 77.0571 123.675 77.0479 123.575 77.0694L122.383 77.3275C122.291 77.3476 122.212 77.3993 122.152 77.4745C122.092 77.5498 122.077 77.6429 122.097 77.7354L122.324 79.2293C122.344 79.3218 122.329 79.4149 122.269 79.4902C122.211 79.572 122.137 79.6157 122.038 79.6372L118.674 80.3657C118.561 80.3901 118.466 80.3691 118.383 80.3041C118.299 80.2391 118.253 80.1524 118.229 80.04L116.544 63.744C116.528 63.5121 116.631 63.3791 116.856 63.3304L122.816 62.0397C122.909 62.0196 123.002 62.034 123.088 62.0777C123.175 62.128 123.224 62.1936 123.245 62.2927L128.48 77.82ZM121.067 66.9919C121.017 66.823 120.899 66.7586 120.713 66.7987C120.528 66.8389 120.46 66.9434 120.498 67.1153L121.356 72.8104C121.368 72.9256 121.414 73.0124 121.511 73.0745C121.607 73.1366 121.702 73.1576 121.801 73.1361L122.371 73.0127C122.464 72.9927 122.541 72.9344 122.597 72.8393C122.652 72.7442 122.666 72.6445 122.641 72.5322L121.067 66.9919Z" fill="black"/>
<path d="M126.422 61.6256C126.402 61.5331 126.416 61.44 126.473 61.3515C126.53 61.2631 126.603 61.2128 126.702 61.1913L130.112 60.4527C130.205 60.4327 130.298 60.4471 130.387 60.504C130.476 60.5609 130.526 60.6331 130.547 60.7322L133.104 72.5359C133.128 72.6483 133.18 72.727 133.268 72.7839C133.357 72.8409 133.457 72.8538 133.563 72.8309L139.019 71.6492C139.112 71.6291 139.205 71.6435 139.294 71.7004C139.382 71.7574 139.433 71.8295 139.454 71.9286L140.191 75.3323C140.211 75.4248 140.197 75.5179 140.14 75.6064C140.083 75.6948 140.01 75.7451 139.911 75.7666L130.302 77.8475C130.209 77.8676 130.116 77.8532 130.028 77.7962C129.939 77.7393 129.889 77.6672 129.867 77.568L126.415 61.6271L126.422 61.6256Z" fill="black"/>
<path d="M43.0571 100.436C43.0371 100.343 43.0516 100.25 43.1087 100.162C43.1658 100.073 43.2381 100.023 43.3374 100.002L46.7479 99.2629C46.8406 99.2429 46.9338 99.2569 47.0224 99.3139C47.111 99.3709 47.1613 99.4429 47.1828 99.5429L49.739 111.346C49.7633 111.459 49.815 111.537 49.9036 111.594C49.9922 111.651 50.092 111.664 50.198 111.641L55.6547 110.46C55.7474 110.439 55.8407 110.454 55.9293 110.511C56.0178 110.568 56.0681 110.64 56.0896 110.739L56.8267 114.143C56.8467 114.235 56.8322 114.328 56.7751 114.417C56.718 114.505 56.6457 114.555 56.5464 114.577L46.9375 116.658C46.8448 116.678 46.7516 116.664 46.663 116.607C46.5744 116.55 46.5241 116.478 46.5026 116.378L43.0505 100.437L43.0571 100.436Z" fill="black"/>
<path d="M67.8824 111.7C67.9067 111.812 67.8937 111.912 67.8512 112.004C67.7889 112.101 67.7114 112.159 67.6121 112.181L64.248 112.909C64.1553 112.929 64.0621 112.915 63.9763 112.871C63.8906 112.827 63.8389 112.749 63.8189 112.656L63.407 111.202C63.3869 111.11 63.3367 111.038 63.2495 110.987C63.1623 110.937 63.0772 110.928 62.9778 110.949L61.7858 111.208C61.6931 111.228 61.6142 111.279 61.5542 111.355C61.4943 111.43 61.4797 111.523 61.4998 111.615L61.7262 113.109C61.7463 113.202 61.7318 113.295 61.6718 113.37C61.6133 113.452 61.5395 113.496 61.4402 113.517L58.0761 114.246C57.9635 114.27 57.8689 114.249 57.7855 114.184C57.7021 114.119 57.6555 114.032 57.6312 113.92L55.9463 97.6238C55.9307 97.3918 56.0337 97.2588 56.2588 97.2098L62.2188 95.9198C62.3115 95.8998 62.4048 95.9138 62.4905 95.9578C62.5777 96.0078 62.6265 96.0738 62.648 96.1728L67.8824 111.7ZM60.4696 100.872C60.4192 100.703 60.3012 100.639 60.1158 100.679C59.9304 100.719 59.8629 100.823 59.9001 100.995L60.7591 106.69C60.7702 106.806 60.8167 106.892 60.9133 106.955C61.01 107.017 61.1046 107.038 61.204 107.016L61.7735 106.893C61.8662 106.873 61.9437 106.814 61.9994 106.719C62.055 106.624 62.0681 106.525 62.0438 106.412L60.4696 100.872Z" fill="black"/>
<path d="M65.8243 95.5059C65.8043 95.4129 65.8188 95.3199 65.8759 95.2309C65.933 95.1429 66.0053 95.0929 66.1046 95.0709L69.6078 94.3129C69.7998 94.2709 69.9376 94.3309 70.0226 94.4999L72.7617 100.009C72.8263 100.147 72.9305 100.18 73.0823 100.112C73.2251 100.068 73.2741 99.9739 73.2426 99.8289L72.0161 94.1649C71.996 94.0719 72.0105 93.9789 72.0676 93.8909C72.1247 93.8019 72.1971 93.7519 72.2964 93.7299L75.7068 92.9919C75.7995 92.9719 75.8928 92.9859 75.9814 93.0429C76.07 93.0999 76.1202 93.1719 76.1417 93.2709L79.5939 109.212C79.6139 109.305 79.5994 109.398 79.5423 109.486C79.4852 109.575 79.4129 109.625 79.3136 109.647L75.8104 110.405C75.6184 110.447 75.4805 110.387 75.3956 110.218L72.6564 104.709C72.5918 104.571 72.4877 104.538 72.3359 104.605C72.1931 104.65 72.144 104.744 72.1755 104.889L73.4021 110.553C73.4221 110.646 73.4076 110.739 73.3505 110.827C73.2934 110.916 73.2211 110.966 73.1218 110.987L69.7113 111.726C69.6186 111.746 69.5254 111.732 69.4368 111.675C69.3482 111.618 69.2979 111.546 69.2764 111.447L65.8243 95.5059Z" fill="black"/>
<path d="M79.4704 100.895L79.4546 100.822C79.3029 100.121 79.187 99.5859 79.1172 99.1999C79.0408 98.8149 78.9675 98.2839 78.8811 97.5969C78.8014 96.9089 78.7796 96.3599 78.8209 95.9429C78.8623 95.5259 78.9519 95.0429 79.0947 94.4859C79.231 93.9309 79.4526 93.4809 79.7515 93.1329C80.0504 92.7849 80.4639 92.4529 80.987 92.1459C81.508 91.8319 82.13 91.6009 82.846 91.4459C83.733 91.2539 84.53 91.2189 85.231 91.3509C85.932 91.4829 86.52 91.7639 86.999 92.1859C87.474 92.6159 87.868 93.0909 88.184 93.6249C88.499 94.1509 88.775 94.7839 89.016 95.5129C89.071 95.7019 89.012 95.8459 88.834 95.9539L85.733 97.7669C85.627 97.8249 85.525 97.8329 85.412 97.7879C85.298 97.7439 85.225 97.6629 85.184 97.5399C84.78 96.1189 84.285 95.4649 83.715 95.5889C83.556 95.6229 83.422 95.7079 83.318 95.8339C83.215 95.9669 83.153 96.1599 83.133 96.4209C83.113 96.6809 83.111 96.9299 83.119 97.1569C83.128 97.3899 83.167 97.6999 83.233 98.1009C83.306 98.4999 83.358 98.8069 83.399 99.0269C83.438 99.2399 83.502 99.5649 83.595 99.9949C83.688 100.424 83.758 100.748 83.82 100.97C83.875 101.193 83.954 101.494 84.053 101.888C84.152 102.282 84.251 102.578 84.337 102.781C84.422 102.984 84.525 103.204 84.651 103.433C84.777 103.662 84.915 103.819 85.065 103.904C85.215 103.989 85.372 104.01 85.531 103.976C86.041 103.865 86.233 103.215 86.108 102.031C86.097 101.916 86.051 101.829 85.961 101.765C85.871 101.702 85.77 101.682 85.664 101.705L85.452 101.751C85.339 101.776 85.239 101.763 85.157 101.704C85.069 101.647 85.016 101.562 84.993 101.456L84.477 99.0769C84.457 98.9839 84.472 98.8909 84.529 98.8029C84.586 98.7139 84.672 98.6609 84.778 98.6379L89.115 97.6989C89.228 97.6749 89.328 97.6879 89.41 97.7459C89.498 97.8029 89.548 97.8749 89.57 97.9739L90.348 101.569C90.417 102.205 90.451 102.779 90.444 103.292C90.438 103.806 90.371 104.332 90.237 104.866C90.103 105.4 89.886 105.869 89.593 106.279C89.299 106.681 88.886 107.048 88.36 107.369C87.833 107.691 87.193 107.933 86.444 108.095C85.696 108.257 85.067 108.297 84.462 108.227C83.858 108.157 83.346 108.033 82.929 107.839C82.513 107.646 82.125 107.329 81.772 106.879C81.418 106.43 81.137 106.027 80.92 105.666C80.709 105.304 80.496 104.796 80.29 104.135C80.0778 103.475 79.9302 102.954 79.842 102.579C79.7523 102.197 79.6284 101.656 79.4738 100.942L79.4638 100.896L79.4704 100.895Z" fill="black"/>
<path d="M91.152 98.3648L89.426 90.3938C89.406 90.3018 89.42 90.2088 89.477 90.1198C89.535 90.0318 89.607 89.9818 89.706 89.9598L93.117 89.2218C93.209 89.2008 93.303 89.2158 93.391 89.2728C93.48 89.3298 93.53 89.4018 93.552 89.5008L95.458 98.3038C95.489 98.4498 95.531 98.6408 95.597 98.8828C95.657 99.1258 95.717 99.3408 95.772 99.5298C95.827 99.7188 95.899 99.9248 95.981 100.142C96.064 100.366 96.147 100.556 96.229 100.711C96.311 100.866 96.405 101.012 96.508 101.135C96.612 101.265 96.728 101.35 96.851 101.407C96.981 101.462 97.108 101.475 97.234 101.448C97.36 101.421 97.471 101.355 97.553 101.255C97.642 101.152 97.703 101.021 97.746 100.867C97.789 100.712 97.814 100.541 97.825 100.366C97.835 100.19 97.832 99.9828 97.815 99.7448C97.798 99.5058 97.779 99.2888 97.765 99.0978C97.75 98.9008 97.71 98.6808 97.657 98.4368L95.624 89.0518C95.604 88.9598 95.619 88.8658 95.676 88.7778C95.733 88.6898 95.805 88.6388 95.905 88.6178L99.315 87.8788C99.408 87.8588 99.501 87.8738 99.59 87.9298C99.678 87.9868 99.728 88.0598 99.75 88.1588L101.762 97.4508C101.832 97.7748 101.904 98.2018 101.979 98.7388C102.052 99.2698 102.099 99.7098 102.111 100.053C102.131 100.402 102.121 100.805 102.099 101.28C102.076 101.749 102.009 102.144 101.89 102.46C101.772 102.777 101.624 103.12 101.425 103.481C101.227 103.849 100.981 104.152 100.689 104.402C100.396 104.652 100.029 104.877 99.603 105.087C99.177 105.297 98.678 105.46 98.122 105.58C97.566 105.701 97.044 105.758 96.563 105.745C96.075 105.733 95.648 105.68 95.278 105.573C94.91 105.473 94.559 105.293 94.227 105.04C93.895 104.787 93.613 104.543 93.381 104.303C93.149 104.063 92.919 103.739 92.702 103.315C92.487 102.898 92.318 102.534 92.187 102.216C92.056 101.898 91.925 101.484 91.776 100.956C91.628 100.434 91.515 100.009 91.438 99.6868C91.361 99.3638 91.259 98.9228 91.139 98.3678L91.152 98.3648Z" fill="black"/>
<path d="M114.536 101.597C114.56 101.709 114.547 101.809 114.505 101.901C114.443 101.998 114.365 102.056 114.266 102.077L110.902 102.806C110.809 102.826 110.716 102.812 110.63 102.768C110.544 102.724 110.492 102.645 110.472 102.553L110.061 101.099C110.041 101.007 109.99 100.935 109.903 100.884C109.816 100.834 109.731 100.825 109.631 100.846L108.439 101.104C108.347 101.124 108.268 101.176 108.208 101.251C108.148 101.327 108.133 101.42 108.153 101.512L108.38 103.006C108.4 103.099 108.385 103.192 108.325 103.267C108.267 103.349 108.193 103.392 108.094 103.414L104.73 104.143C104.617 104.167 104.522 104.146 104.439 104.081C104.356 104.016 104.309 103.929 104.285 103.817L102.6 87.5209C102.584 87.2889 102.687 87.1559 102.912 87.1069L108.872 85.8169C108.965 85.7959 109.058 85.8109 109.144 85.8549C109.231 85.9049 109.28 85.9699 109.302 86.0699L114.536 101.597ZM107.123 90.7689C107.073 90.5999 106.955 90.5349 106.769 90.5759C106.584 90.6159 106.516 90.7199 106.554 90.8919L107.413 96.5869C107.424 96.7019 107.47 96.7889 107.567 96.8509C107.664 96.9129 107.758 96.9339 107.858 96.9129L108.427 96.7899C108.52 96.7689 108.597 96.7109 108.653 96.6159C108.709 96.5209 108.722 96.4209 108.697 96.3089L107.123 90.7689Z" fill="black"/>
<path d="M113.893 93.4399L113.877 93.3679C113.725 92.6669 113.609 92.1319 113.54 91.7449C113.463 91.3609 113.39 90.8299 113.303 90.1429C113.224 89.4549 113.202 88.9059 113.243 88.4889C113.285 88.0709 113.374 87.5879 113.517 87.0319C113.653 86.4759 113.875 86.0269 114.174 85.6789C114.473 85.3299 114.886 84.9979 115.409 84.6909C115.93 84.3779 116.553 84.1459 117.268 83.9909C118.155 83.7989 118.952 83.7649 119.653 83.8969C120.354 84.0289 120.942 84.3099 121.422 84.7319C121.896 85.1619 122.29 85.6369 122.607 86.1699C122.922 86.6969 123.197 87.3289 123.438 88.0589C123.493 88.2479 123.434 88.3919 123.257 88.4999L120.155 90.3129C120.05 90.3699 119.948 90.3789 119.834 90.3339C119.72 90.2889 119.647 90.2079 119.607 90.0859C119.202 88.6649 118.707 88.0109 118.137 88.1339C117.978 88.1689 117.844 88.2529 117.74 88.3799C117.637 88.5129 117.575 88.7059 117.555 88.9659C117.535 89.2269 117.534 89.4759 117.541 89.7029C117.55 89.9359 117.589 90.2459 117.655 90.6469C117.728 91.0459 117.781 91.3529 117.821 91.5719C117.86 91.7849 117.924 92.1109 118.017 92.5399C118.11 92.9699 118.18 93.2939 118.242 93.5149C118.297 93.7389 118.376 94.0399 118.475 94.4339C118.575 94.8269 118.674 95.1239 118.759 95.3269C118.845 95.5299 118.948 95.7499 119.073 95.9779C119.199 96.2069 119.337 96.3639 119.487 96.4489C119.638 96.5339 119.795 96.5559 119.954 96.5209C120.464 96.4109 120.655 95.7599 120.531 94.5769C120.52 94.4609 120.473 94.3749 120.383 94.3109C120.293 94.2469 120.192 94.2279 120.086 94.2509L119.874 94.2969C119.761 94.3209 119.662 94.3079 119.58 94.2499C119.491 94.1929 119.438 94.1079 119.415 94.0019L118.9 91.6229C118.88 91.5299 118.894 91.4369 118.951 91.3479C119.008 91.2599 119.094 91.2069 119.2 91.1839L123.537 90.2449C123.65 90.2199 123.75 90.2329 123.832 90.2919C123.92 90.3479 123.971 90.4209 123.992 90.5199L124.771 94.1149C124.839 94.7509 124.873 95.3239 124.867 95.8379C124.86 96.3509 124.794 96.8779 124.66 97.4119C124.526 97.9459 124.308 98.4149 124.016 98.8239C123.722 99.2269 123.309 99.5929 122.782 99.9149C122.256 100.236 121.615 100.479 120.867 100.641C120.118 100.803 119.489 100.842 118.885 100.773C118.28 100.703 117.768 100.579 117.352 100.385C116.935 100.192 116.548 99.8739 116.194 99.4249C115.84 98.9759 115.559 98.5729 115.342 98.2119C115.132 97.8489 114.918 97.3419 114.712 96.6809C114.5 96.0209 114.352 95.4989 114.264 95.1239C114.175 94.7419 114.051 94.2019 113.896 93.4879L113.886 93.4419L113.893 93.4399Z" fill="black"/>
<path d="M124.014 82.9038C123.994 82.8118 124.008 82.7188 124.065 82.6298C124.122 82.5418 124.195 82.4908 124.294 82.4698L133.903 80.3888C133.996 80.3687 134.089 80.3831 134.178 80.44C134.266 80.497 134.316 80.5691 134.338 80.6682L135.075 84.0718C135.095 84.1648 135.08 84.2578 135.023 84.3458C134.966 84.4348 134.894 84.4848 134.795 84.5058L129.338 85.6878C129.225 85.7118 129.14 85.7658 129.089 85.8528C129.032 85.9408 129.016 86.0278 129.038 86.1268L129.347 87.5538C129.367 87.6468 129.419 87.7258 129.507 87.7818C129.596 87.8388 129.696 87.8518 129.802 87.8288L134 86.9198C134.093 86.8998 134.186 86.9148 134.275 86.9708C134.363 87.0278 134.416 87.1138 134.439 87.2188L135.171 90.5968C135.195 90.7088 135.181 90.8018 135.123 90.8908C135.066 90.9788 134.994 91.0288 134.895 91.0508L130.696 91.9598C130.584 91.9838 130.498 92.0378 130.448 92.1248C130.39 92.2128 130.375 92.2998 130.396 92.3988L130.699 93.7998C130.724 93.9118 130.775 93.9908 130.864 94.0478C130.953 94.1048 131.052 94.1178 131.158 94.0948L136.615 92.9128C136.708 92.8928 136.801 92.9068 136.89 92.9638C136.978 93.0208 137.029 93.0928 137.05 93.1928L137.787 96.5958C137.807 96.6888 137.793 96.7818 137.736 96.8698C137.678 96.9588 137.606 97.0088 137.507 97.0298L127.898 99.1108C127.805 99.1308 127.712 99.1168 127.623 99.0598C127.535 99.0028 127.485 98.9308 127.463 98.8318L124.011 82.8908L124.014 82.9038Z" fill="black"/>
<path d="M55.8407 125.468L56.1188 125.408C56.1188 125.408 56.5594 126.226 56.5622 126.239C56.8097 126.261 57.1817 126.25 57.4863 126.184C58.3737 125.992 58.776 125.545 58.6501 124.963C58.5127 124.329 58.0588 124.282 57.102 124.282C56.2408 124.274 55.5256 124.173 55.3452 123.34C55.1778 122.567 55.6514 122.001 56.7507 121.763C57.148 121.677 57.5105 121.654 57.8536 121.669L58.1782 121.44L58.4702 122.788L58.1987 122.847L57.8183 122.051C57.5215 122.025 57.1827 122.029 56.7788 122.117C55.9576 122.295 55.6086 122.668 55.7259 123.21C55.8605 123.831 56.3144 123.878 57.2527 123.889C58.2256 123.9 58.8585 124.005 59.0388 124.838C59.2192 125.67 58.6931 126.283 57.521 126.536C57.1435 126.618 56.6495 126.642 56.1971 126.602L55.834 125.469L55.8407 125.468Z" fill="black"/>
<path d="M62.0175 125.307C61.8267 125.514 61.5988 125.646 61.2876 125.714C60.8174 125.816 60.4351 125.587 60.322 125.065L59.8426 122.851L59.8222 122.821L59.2659 122.941L59.1915 122.598L59.761 122.474L59.6036 121.747L59.9545 121.671L60.112 122.398L61.3437 122.132L61.3519 122.49L60.1864 122.742L60.6587 124.923C60.7503 125.346 60.9549 125.426 61.2926 125.353C61.5376 125.3 61.7687 125.118 61.9316 124.91L62.016 125.3L62.0175 125.307Z" fill="black"/>
<path d="M62.7935 125.305L62.7191 124.961L63.2422 124.848L63.2469 124.805L62.6901 122.234L62.6697 122.204L62.0605 122.336L61.986 121.992L62.9595 121.781L63.1255 122.548L63.152 122.542C63.4048 121.789 63.6414 121.537 63.9858 121.462C64.4295 121.366 64.7754 121.651 64.8856 122.16C64.9271 122.352 64.9244 122.435 64.7191 122.48C64.547 122.517 64.4849 122.454 64.462 122.349C64.4477 122.283 64.4461 122.179 64.4232 122.073C64.3831 121.888 64.2669 121.768 64.0087 121.824C63.7305 121.884 63.4733 122.265 63.2449 123.131L63.5927 124.737L63.6145 124.774L64.1376 124.661L64.2121 125.004L62.7817 125.314L62.7935 125.305Z" fill="black"/>
<path d="M65.5005 123.079C65.2529 121.935 65.6598 121.093 66.6995 120.868C67.6134 120.67 68.3013 121.157 68.5289 122.208C68.7765 123.352 68.363 124.195 67.3299 124.419C66.416 124.617 65.7281 124.129 65.5005 123.079ZM68.1752 122.368C67.9705 121.423 67.4906 121.063 66.7091 121.232C65.9741 121.392 65.6567 122.007 65.8571 122.932C66.0574 123.857 66.5483 124.235 67.3231 124.068C68.0979 123.9 68.3756 123.293 68.1752 122.368Z" fill="black"/>
<path d="M71.7798 123.359L71.7054 123.015L72.2418 122.899L72.2465 122.856L71.8357 120.959C71.7212 120.431 71.3631 120.218 70.8863 120.321C70.4625 120.413 70.1016 120.795 69.923 121.187L70.3738 123.269L70.3956 123.305L70.932 123.189L71.0065 123.533L69.5628 123.846L69.4884 123.502L70.0116 123.389L70.0162 123.346L69.4595 120.775L69.4391 120.745L68.8298 120.877L68.7554 120.533L69.7156 120.325L69.8248 120.765L69.8579 120.758C70.0725 120.373 70.4174 120.077 70.8412 119.985C71.477 119.847 72.0146 120.153 72.1634 120.84L72.5871 122.796L72.6089 122.833L73.1321 122.72L73.2065 123.063L71.7628 123.376L71.7798 123.359Z" fill="black"/>
<path d="M75.6442 122.411C76.4575 122.325 76.7986 122.555 76.9102 123.071C77.0376 123.659 76.5196 124.276 75.4998 124.497C74.5528 124.702 74.0087 124.495 73.8828 123.913C73.8126 123.589 73.9303 123.204 74.295 122.904L74.2893 122.877C74.0545 122.818 73.8952 122.658 73.8494 122.447C73.8036 122.235 73.8491 121.997 74.0995 121.777L74.0938 121.75C73.7146 121.632 73.4585 121.314 73.3554 120.838C73.1779 120.018 73.5284 119.396 74.3959 119.208C74.6012 119.164 74.7872 119.158 74.9656 119.181L76.2305 118.908L76.2387 119.266L75.3389 119.433C75.6122 119.574 75.8157 119.841 75.8959 120.212C76.0633 120.985 75.6976 121.569 74.8367 121.756C74.6778 121.79 74.5212 121.803 74.3802 121.792C74.1949 121.929 74.1484 122.098 74.1827 122.257C74.2242 122.449 74.4118 122.546 74.6706 122.525L75.639 122.419L75.6442 122.411ZM74.2402 123.739C74.3246 124.129 74.6998 124.324 75.415 124.17C76.2759 123.983 76.6324 123.581 76.5465 123.184C76.4836 122.893 76.2727 122.752 75.8706 122.784C75.4111 122.807 74.9632 122.884 74.6353 122.906C74.2558 123.203 74.1806 123.496 74.2336 123.74L74.2402 123.739ZM75.5368 120.282C75.408 119.688 74.9987 119.43 74.4226 119.555C73.8464 119.68 73.5978 120.1 73.7295 120.708C73.8612 121.316 74.2316 121.554 74.8276 121.425C75.4236 121.296 75.6685 120.89 75.5368 120.282Z" fill="black"/>
<path d="M81.149 121.164C80.958 121.371 80.73 121.503 80.4192 121.571C79.949 121.672 79.5667 121.444 79.4536 120.922L78.9742 118.708L78.9538 118.678L78.3975 118.798L78.3231 118.454L78.8926 118.331L78.7352 117.604L79.0861 117.528L79.2436 118.255L80.4753 117.988L80.4835 118.346L79.318 118.599L79.7903 120.78C79.8819 121.203 80.0865 121.283 80.4242 121.21C80.669 121.157 80.9 120.975 81.063 120.767L81.148 121.157L81.149 121.164Z" fill="black"/>
<path d="M81.487 119.617C81.239 118.473 81.646 117.631 82.686 117.406C83.599 117.208 84.287 117.696 84.515 118.746C84.763 119.89 84.349 120.733 83.316 120.957C82.402 121.155 81.714 120.668 81.487 119.617ZM84.161 118.906C83.957 117.961 83.477 117.601 82.695 117.77C81.96 117.93 81.643 118.545 81.843 119.47C82.043 120.396 82.534 120.774 83.309 120.606C84.084 120.438 84.362 119.831 84.161 118.906Z" fill="black"/>
<path d="M87.759 119.898L87.685 119.554L88.221 119.438L88.226 119.396L87.815 117.499C87.701 116.97 87.343 116.757 86.866 116.86C86.442 116.952 86.081 117.335 85.902 117.726L86.353 119.808L86.375 119.845L86.911 119.729L86.986 120.073L85.542 120.385L85.468 120.042L85.991 119.928L85.996 119.886L85.439 117.315L85.418 117.285L84.809 117.417L84.735 117.073L85.695 116.865L85.804 117.305L85.837 117.298C86.052 116.912 86.397 116.616 86.821 116.524C87.456 116.387 87.994 116.692 88.143 117.38L88.566 119.336L88.588 119.373L89.111 119.259L89.186 119.603L87.742 119.916L87.759 119.898Z" fill="black"/>
<path d="M92.332 118.603C92.084 118.899 91.746 119.132 91.269 119.235C90.322 119.44 89.608 118.958 89.38 117.907C89.131 116.757 89.553 115.919 90.553 115.702C91.354 115.529 91.936 115.977 92.087 116.671C92.128 116.863 92.152 117.1 92.159 117.326L89.755 117.847C89.971 118.713 90.486 119.045 91.261 118.877C91.632 118.797 91.968 118.558 92.245 118.2L92.332 118.603ZM91.763 117.066C91.755 116.999 91.739 116.857 91.726 116.797C91.591 116.176 91.17 115.928 90.574 116.057C89.978 116.186 89.601 116.718 89.69 117.515L91.757 117.068L91.763 117.066Z" fill="black"/>
<path d="M93.412 118.342C93.359 118.097 93.471 117.907 93.696 117.858C93.921 117.81 94.099 117.93 94.154 118.181C94.208 118.432 94.097 118.622 93.872 118.671C93.647 118.72 93.468 118.6 93.412 118.342Z" fill="black"/>
<path d="M100.885 117.09L98.826 113.537L98.793 113.544L98.402 117.628L97.892 117.738L95.888 113.737L95.332 113.858L95.258 113.514L96.814 113.177L96.888 113.521L96.279 113.653L96.285 113.679L98.077 117.311L98.116 117.302L98.497 113.2L98.491 113.174L97.908 113.3L97.834 112.956L99.489 112.598L99.564 112.941L98.988 113.066L98.993 113.093L101.043 116.668L101.07 116.663L101.192 112.616L101.186 112.59L100.577 112.722L100.502 112.378L102.039 112.046L102.113 112.389L101.57 112.507L101.408 116.977L100.892 117.089L100.885 117.09Z" fill="black"/>
<path d="M105.729 115.702C105.481 115.998 105.143 116.23 104.666 116.334C103.719 116.539 103.005 116.057 102.777 115.006C102.528 113.856 102.95 113.018 103.95 112.801C104.751 112.627 105.333 113.076 105.483 113.77C105.525 113.961 105.549 114.198 105.556 114.425L103.152 114.946C103.368 115.812 103.883 116.143 104.658 115.976C105.029 115.895 105.365 115.656 105.641 115.299L105.729 115.702ZM105.16 114.165C105.152 114.097 105.135 113.956 105.123 113.896C104.988 113.275 104.567 113.027 103.971 113.156C103.375 113.285 102.998 113.817 103.087 114.614L105.153 114.166L105.16 114.165Z" fill="black"/>
<path d="M109.282 115.237C109.003 115.298 108.785 115.186 108.698 114.879L108.652 114.889C108.435 115.268 108.12 115.572 107.61 115.682C107.1 115.793 106.617 115.517 106.501 114.981C106.363 114.34 106.853 113.722 108.335 113.27L108.307 113.137C108.184 112.569 107.903 112.298 107.294 112.43C106.791 112.539 106.554 112.791 106.613 113.062C106.626 113.121 106.652 113.178 106.662 113.224C106.682 113.316 106.65 113.393 106.484 113.428C106.279 113.473 106.235 113.399 106.209 113.28C106.075 112.659 106.506 112.248 107.241 112.088C108.069 111.909 108.495 112.308 108.639 112.976L109.027 114.767C109.047 114.859 109.128 114.911 109.22 114.891L109.598 114.809L109.672 115.153L109.275 115.239L109.282 115.237ZM108.404 113.552C107.205 113.971 106.779 114.375 106.889 114.884C106.962 115.221 107.244 115.402 107.622 115.32C107.999 115.238 108.378 114.873 108.603 114.506L108.397 113.554L108.404 113.552Z" fill="black"/>
<path d="M112.917 114.45L111.419 112.941L110.866 113.718L111.028 114.465L111.049 114.502L111.612 114.38L111.687 114.723L110.223 115.04L110.149 114.697L110.672 114.583L110.677 114.541L109.857 110.754L109.835 110.717L109.225 110.849L109.151 110.505L110.125 110.294L110.781 113.328L112.074 111.519L112.069 111.492L111.625 111.589L111.553 111.258L112.865 110.974L112.939 111.318L112.522 111.408L111.627 112.654L113.03 114.073L113.566 113.957L113.64 114.3L112.919 114.457L112.917 114.45Z" fill="black"/>
<path d="M116.129 113.754L116.054 113.411L116.578 113.298L116.582 113.255L116.025 110.684L116.005 110.654L115.449 110.774L115.374 110.431L115.944 110.307L115.875 109.99C115.689 109.131 115.907 108.634 116.596 108.485C117.166 108.361 117.532 108.58 117.645 109.102C117.666 109.201 117.668 109.304 117.463 109.349C117.297 109.385 117.23 109.33 117.21 109.238C117.203 109.205 117.203 109.142 117.187 109.069C117.139 108.845 116.971 108.743 116.673 108.807C116.216 108.906 116.069 109.187 116.233 109.947L116.296 110.238L117.376 110.004L117.384 110.362L116.371 110.582L116.936 113.192L116.958 113.229L117.633 113.083L117.708 113.426L116.125 113.769L116.129 113.754Z" fill="black"/>
<path d="M121.354 112.623C121.076 112.683 120.857 112.571 120.77 112.265L120.724 112.275C120.508 112.654 120.192 112.958 119.682 113.068C119.172 113.178 118.69 112.902 118.574 112.367C118.435 111.726 118.925 111.108 120.408 110.655L120.379 110.523C120.256 109.955 119.975 109.683 119.366 109.815C118.863 109.924 118.626 110.176 118.685 110.447C118.698 110.507 118.724 110.563 118.734 110.61C118.754 110.702 118.722 110.778 118.556 110.814C118.351 110.858 118.307 110.785 118.282 110.666C118.147 110.045 118.578 109.633 119.313 109.474C120.141 109.295 120.567 109.694 120.711 110.361L121.099 112.152C121.119 112.245 121.2 112.296 121.293 112.276L121.67 112.195L121.745 112.538L121.347 112.624L121.354 112.623ZM120.483 110.937C119.284 111.355 118.858 111.759 118.968 112.268C119.041 112.605 119.323 112.786 119.701 112.704C120.078 112.622 120.456 112.257 120.682 111.89L120.476 110.938L120.483 110.937Z" fill="black"/>
<path d="M124.9 111.551C124.652 111.846 124.314 112.079 123.837 112.182C122.89 112.387 122.176 111.905 121.948 110.854C121.699 109.704 122.121 108.866 123.121 108.649C123.876 108.486 124.406 108.821 124.53 109.396C124.552 109.495 124.553 109.598 124.348 109.643C124.183 109.679 124.115 109.624 124.095 109.531C124.088 109.498 124.08 109.396 124.073 109.363C124.011 109.079 123.74 108.882 123.183 109.002C122.429 109.166 122.103 109.776 122.305 110.708C122.507 111.64 123.029 112.004 123.831 111.831C124.201 111.75 124.538 111.511 124.814 111.154L124.901 111.557L124.9 111.551Z" fill="black"/>
<path d="M127.829 111.055C127.638 111.262 127.41 111.394 127.099 111.462C126.629 111.564 126.247 111.335 126.134 110.813L125.654 108.599L125.634 108.569L125.078 108.689L125.003 108.346L125.573 108.222L125.415 107.495L125.766 107.419L125.924 108.146L127.155 107.879L127.164 108.237L125.998 108.49L126.47 110.671C126.562 111.094 126.767 111.174 127.104 111.101C127.349 111.048 127.58 110.866 127.743 110.658L127.828 111.048L127.829 111.055Z" fill="black"/>
<path d="M130.386 108.169L130.083 107.633C129.869 107.603 129.615 107.617 129.31 107.683C128.714 107.812 128.492 108.095 128.569 108.452C128.656 108.855 128.983 108.923 129.673 108.877C130.451 108.819 130.888 109.015 131.012 109.584C131.148 110.211 130.74 110.666 129.886 110.851C129.541 110.926 129.142 110.936 128.822 110.902L128.509 110.001L128.787 109.941L129.097 110.538C129.354 110.572 129.607 110.559 129.866 110.503C130.462 110.374 130.755 110.096 130.666 109.686C130.588 109.323 130.352 109.194 129.563 109.233C128.794 109.268 128.358 109.176 128.225 108.561C128.092 107.946 128.443 107.518 129.297 107.333C129.562 107.275 129.819 107.247 130.067 107.27L130.341 107.065L130.651 108.112L130.386 108.169Z" fill="black"/>
<path d="M132.126 109.958C132.073 109.714 132.184 109.523 132.409 109.475C132.634 109.426 132.813 109.546 132.867 109.797C132.922 110.049 132.81 110.239 132.585 110.288C132.36 110.336 132.182 110.216 132.126 109.958Z" fill="black"/>
</svg>
