<svg width="63" height="48" viewBox="0 0 63 48" fill="none" xmlns="http://www.w3.org/2000/svg">
<g clip-path="url(#clip0_1_31)">
<path d="M16.5983 13.8857V5.97563C16.5983 5.84817 16.6436 5.73571 16.7417 5.63824C16.8398 5.54826 16.953 5.49578 17.0813 5.49578H21.6555C21.7838 5.49578 21.897 5.54077 21.9876 5.63824C22.0782 5.73571 22.131 5.84817 22.131 5.97563V13.8857C22.131 14.7104 22.2518 15.3927 22.5009 15.94C22.7424 16.4798 23.0896 16.7498 23.5425 16.7498C23.9954 16.7498 24.3351 16.4873 24.569 15.955C24.803 15.4227 24.9238 14.7329 24.9238 13.8857V5.97563C24.9238 5.84817 24.9691 5.73571 25.0672 5.63824C25.1653 5.54826 25.2786 5.49578 25.4069 5.49578H29.981C30.1093 5.49578 30.2226 5.54077 30.3207 5.63824C30.4113 5.73571 30.4641 5.84817 30.4641 5.97563V21.7732C30.4641 21.9007 30.4188 22.0131 30.3207 22.1106C30.2226 22.2006 30.1093 22.253 29.981 22.253H25.4069C25.2786 22.253 25.1653 22.2081 25.0672 22.1106C24.9766 22.0206 24.9238 21.9007 24.9238 21.7732V20.3112C24.9238 20.1837 24.8634 20.1012 24.7502 20.0712C24.637 20.0412 24.5389 20.0712 24.4785 20.1837C23.6859 21.5633 22.5764 22.2455 21.1498 22.2455C19.7232 22.2455 18.5532 21.5108 17.7758 20.0262C16.9983 18.5417 16.6058 16.4948 16.6058 13.8857H16.5983Z" fill="#FACB2C"/>
<path d="M32.6002 5.97563C32.6002 5.84817 32.6455 5.73571 32.7436 5.63824C32.8417 5.54077 32.9474 5.49578 33.0757 5.49578H37.6499C37.7782 5.49578 37.8914 5.54077 37.9895 5.63824C38.0877 5.73571 38.1329 5.84817 38.1329 5.97563V7.43767C38.1329 7.56513 38.1933 7.64761 38.3066 7.6776C38.4198 7.70759 38.5179 7.6776 38.5783 7.56513C39.3708 6.19306 40.4804 5.50328 41.907 5.50328C43.3336 5.50328 44.5035 6.24555 45.281 7.73008C46.0584 9.21462 46.4509 11.269 46.4509 13.8932V21.7807C46.4509 21.9082 46.4057 22.0206 46.3075 22.1181C46.2094 22.2156 46.0962 22.2605 45.9679 22.2605H41.3937C41.2654 22.2605 41.1522 22.2156 41.0616 22.1181C40.9635 22.0281 40.9182 21.9082 40.9182 21.7807V13.8932C40.9182 13.0459 40.7974 12.3561 40.5483 11.8163C40.3068 11.2765 39.9596 11.0066 39.5067 11.0066C39.0614 11.0066 38.7142 11.269 38.4802 11.8013C38.2462 12.3336 38.1254 13.0309 38.1254 13.9007V21.7882C38.1254 21.9157 38.0801 22.0281 37.982 22.1256C37.8839 22.2231 37.7706 22.268 37.6423 22.268H33.0682C32.9399 22.268 32.8266 22.2231 32.7361 22.1256C32.6379 22.0356 32.5927 21.9157 32.5927 21.7882V5.97563H32.6002Z" fill="#FACB2C"/>
<path d="M48.3757 0.472352C48.3757 0.344892 48.421 0.232427 48.5191 0.134958C48.6097 0.044986 48.7229 0 48.8513 0H53.4254C53.5537 0 53.6669 0.0449859 53.7651 0.142455C53.8632 0.232427 53.9085 0.344892 53.9085 0.47985V10.8416C53.9085 10.9916 53.9915 11.0815 54.1651 11.1265C54.3387 11.1715 54.4444 11.119 54.4821 10.9691L56.4371 5.81818C56.5277 5.60075 56.6711 5.50328 56.89 5.50328H61.4943C61.6679 5.50328 61.8038 5.57826 61.9095 5.72071C62.0151 5.87067 62.0302 6.02062 61.9472 6.16307L58.8072 13.6982C58.7468 13.8032 58.7468 13.9157 58.8072 14.0431L61.9472 21.5783C62.0302 21.7282 62.0227 21.8782 61.9095 22.0206C61.8038 22.1706 61.6679 22.2381 61.4943 22.2381H56.9202C56.6862 22.2381 56.5277 22.1331 56.4371 21.9232L54.4821 16.7798C54.4218 16.6298 54.3085 16.5773 54.1651 16.6223C53.9915 16.6673 53.9085 16.7573 53.9085 16.9072V21.7732C53.9085 21.9007 53.8632 22.0131 53.7651 22.1106C53.6669 22.2081 53.5537 22.253 53.4254 22.253H48.8513C48.7229 22.253 48.6097 22.2081 48.5191 22.1106C48.421 22.0206 48.3757 21.9007 48.3757 21.7732V0.472352Z" fill="#FACB2C"/>
<path d="M14.764 0.142455C14.6659 0.0449859 14.5452 0 14.3942 0H9.85024C9.69928 0 9.58606 0.0449859 9.50303 0.142455C9.41245 0.232427 9.37471 0.344892 9.37471 0.47985V11.254C9.37471 11.7863 9.37471 12.2062 9.35961 12.5211C9.35207 12.836 9.33697 13.2484 9.31433 13.7432C9.29168 14.2455 9.24639 14.6429 9.18601 14.9353C9.11808 15.2352 9.04259 15.5351 8.94447 15.8425C8.84634 16.1425 8.71803 16.3749 8.55952 16.5248C8.40101 16.6673 8.20476 16.7423 7.96322 16.7423C7.28389 16.7423 6.8612 15.9175 6.69514 14.2905L7.17067 14.1781C7.50278 14.1031 7.68394 13.7432 7.54052 13.4358L4.86095 7.3627C4.6798 6.94283 4.0835 6.92784 3.8797 7.34021L0.0603686 14.9353C-0.14343 15.3477 0.218878 15.8051 0.671764 15.7001L1.20768 15.5726C1.31335 16.4649 1.47941 17.2746 1.70585 17.9869C1.94739 18.7441 2.31725 19.4714 2.80787 20.1462C3.2985 20.8285 3.97783 21.3458 4.8534 21.7057C5.72144 22.0656 6.76307 22.2455 7.95567 22.2455C8.91428 22.2455 9.77476 22.1181 10.5145 21.8632C11.2617 21.6082 11.8731 21.3008 12.3562 20.941C12.8317 20.5811 13.2469 20.0787 13.5865 19.4189C13.9262 18.7666 14.1753 18.1668 14.3338 17.642C14.4923 17.1097 14.6206 16.4049 14.7188 15.5127C14.8093 14.6204 14.8697 13.9231 14.8773 13.4133C14.8848 12.9035 14.8924 12.1837 14.8924 11.254V0.472352C14.8924 0.344892 14.8471 0.232427 14.749 0.134958L14.764 0.142455Z" fill="#FACB2C"/>
<path d="M4.71753 26.2268C4.71753 26.0993 4.76282 25.9869 4.86094 25.8894C4.95907 25.7919 5.07229 25.747 5.20061 25.747H18.1003C18.2286 25.747 18.3418 25.7919 18.44 25.8894C18.5381 25.9869 18.5834 26.0918 18.5834 26.2268V30.7704C18.5834 30.8978 18.5381 31.0028 18.44 31.1003C18.3418 31.1978 18.2286 31.2427 18.1003 31.2427H10.7409C10.6126 31.2427 10.4994 31.2877 10.4012 31.3852C10.3107 31.4827 10.2578 31.5951 10.2578 31.7226V33.627C10.2578 33.7545 10.3031 33.8669 10.4012 33.9644C10.4994 34.0619 10.6126 34.1068 10.7409 34.1068H16.402C16.5303 34.1068 16.6435 34.1518 16.7416 34.2493C16.8398 34.3468 16.885 34.4667 16.885 34.6167V39.1303C16.885 39.2802 16.8398 39.4002 16.7416 39.4977C16.6435 39.5951 16.5303 39.6401 16.402 39.6401H10.7409C10.6126 39.6401 10.4994 39.6851 10.4012 39.7826C10.3107 39.88 10.2578 39.9925 10.2578 40.12V47.5277C10.2578 47.6551 10.2125 47.7676 10.1144 47.865C10.0238 47.955 9.90307 48.0075 9.7823 48.0075H5.20816C5.07984 48.0075 4.96662 47.9625 4.86849 47.865C4.77037 47.7676 4.72508 47.6551 4.72508 47.5277V26.2343L4.71753 26.2268Z" fill="#FACB2C"/>
<path d="M49.3117 45.7732C48.5267 44.2887 48.1417 42.2343 48.1417 39.6176C48.1417 37.0009 48.5342 34.9541 49.3117 33.4695C50.0891 31.985 51.2138 31.2427 52.6857 31.2427C54.1123 31.2427 55.2218 31.9325 56.0144 33.3046C56.0823 33.4171 56.1729 33.447 56.2861 33.4171C56.3993 33.3871 56.4597 33.3046 56.4597 33.1771V26.2193C56.4597 26.0918 56.505 25.9794 56.6031 25.8819C56.7013 25.7844 56.8145 25.7395 56.9428 25.7395H61.5169C61.6453 25.7395 61.7585 25.7844 61.8491 25.8819C61.9472 25.9719 61.9925 26.0843 61.9925 26.2193V47.5127C61.9925 47.6401 61.9472 47.7526 61.8491 47.85C61.7585 47.94 61.6377 47.9925 61.5169 47.9925H56.9428C56.8145 47.9925 56.7013 47.9475 56.6031 47.85C56.505 47.7526 56.4597 47.6401 56.4597 47.5127V46.0506C56.4597 45.9231 56.3993 45.8482 56.271 45.8332C56.1653 45.7882 56.0823 45.8257 56.0144 45.9306C55.2294 47.3102 54.1123 47.9925 52.6857 47.9925C51.2138 47.9925 50.0891 47.2577 49.3117 45.7732ZM55.0558 42.4967C55.5238 42.4967 55.8785 42.2343 56.1125 41.702C56.3465 41.1696 56.4597 40.4798 56.4597 39.6176C56.4597 38.7629 56.3465 38.0656 56.1125 37.5333C55.8785 37.0084 55.5238 36.7385 55.0558 36.7385C54.6255 36.7385 54.2934 37.0084 54.0519 37.5483C53.8028 38.0881 53.682 38.7779 53.682 39.6176C53.682 40.4574 53.8028 41.1396 54.0519 41.687C54.2934 42.2268 54.6331 42.4967 55.0558 42.4967Z" fill="#FACB2C"/>
<path d="M46.4811 42.5942L42.0353 41.1621C41.907 41.1172 41.7787 41.1321 41.6655 41.1921C41.5447 41.2521 41.4692 41.3496 41.4239 41.477C41.2126 42.1593 40.8276 42.4967 40.2766 42.4967C39.5067 42.4967 39.0614 41.8594 38.9331 40.5923C38.9104 40.4649 38.9482 40.3449 39.0463 40.2474C39.1444 40.1425 39.2652 40.09 39.4161 40.09H46.4208C46.5491 40.09 46.6623 40.045 46.7604 39.9475C46.8586 39.85 46.9038 39.7301 46.9038 39.5801C46.9038 38.9278 46.8963 38.358 46.8736 37.8782C46.851 37.4058 46.7906 36.8585 46.6849 36.2362C46.5793 35.6214 46.4359 35.0965 46.2472 34.6617C46.066 34.2268 45.8094 33.7844 45.4773 33.3271C45.1451 32.8697 44.7526 32.5023 44.2922 32.2099C43.8318 31.925 43.2657 31.6926 42.5788 31.5127C41.8995 31.3327 41.1296 31.2427 40.2766 31.2427C39.4841 31.2427 38.7745 31.3102 38.1481 31.4527C37.5216 31.5876 36.8951 31.8426 36.2761 32.2174C35.6572 32.5848 35.1439 33.0797 34.7212 33.6795C34.3061 34.2868 33.9664 35.0965 33.7098 36.0937C33.4531 37.0984 33.3248 38.2755 33.3248 39.6251C33.3248 40.9747 33.4531 42.1518 33.7098 43.1565C33.9664 44.1612 34.3061 44.9635 34.7212 45.5708C35.1364 46.1706 35.6496 46.6654 36.2761 47.0478C36.8951 47.4302 37.5216 47.6851 38.1481 47.8126C38.7745 47.94 39.4841 48 40.2615 48C41.039 48 41.7409 47.9325 42.375 47.7901C43.0015 47.6551 43.628 47.4152 44.2318 47.0778C44.8432 46.7404 45.364 46.2381 45.7943 45.5858C46.2321 44.9335 46.5717 44.1387 46.8057 43.2015C46.8887 42.9016 46.7831 42.6992 46.4887 42.6017L46.4811 42.5942ZM39.2048 37.3908L39.5897 36.3037C39.7407 35.8688 40.3295 35.8088 40.571 36.2062L41.0314 36.9784C41.205 37.2709 41.0767 37.6457 40.7521 37.7582L39.9068 38.0731C39.4765 38.2306 39.0538 37.8182 39.2048 37.3908Z" fill="#FACB2C"/>
<path d="M31.7321 42.5942L27.2863 41.1621C27.158 41.1172 27.0297 41.1321 26.9164 41.1921C26.7957 41.2521 26.7202 41.3496 26.6749 41.477C26.4636 42.1593 26.0786 42.4967 25.5276 42.4967C24.7577 42.4967 24.3124 41.8594 24.184 40.5923C24.1614 40.4649 24.1991 40.3449 24.2973 40.2474C24.3954 40.1425 24.5162 40.09 24.6671 40.09H31.6717C31.8001 40.09 31.9133 40.045 32.0114 39.9475C32.1095 39.85 32.1548 39.7301 32.1548 39.5801C32.1548 38.9278 32.1473 38.358 32.1246 37.8782C32.102 37.4058 32.0416 36.8585 31.9359 36.2362C31.8302 35.6214 31.6868 35.0965 31.4981 34.6617C31.317 34.2268 31.0603 33.7844 30.7282 33.3271C30.3961 32.8697 30.0036 32.5023 29.5432 32.2099C29.0827 31.925 28.5166 31.6926 27.8298 31.5127C27.1504 31.3327 26.3805 31.2427 25.5276 31.2427C24.735 31.2427 24.0255 31.3102 23.399 31.4527C22.7725 31.5876 22.1461 31.8426 21.5271 32.2174C20.9082 32.5848 20.3949 33.0797 19.9722 33.6795C19.5571 34.2868 19.2174 35.0965 18.9608 36.0937C18.7041 37.0984 18.5758 38.2755 18.5758 39.6251C18.5758 40.9672 18.7041 42.1518 18.9608 43.1565C19.2174 44.1612 19.5571 44.9635 19.9722 45.5708C20.3873 46.1706 20.9006 46.6654 21.5271 47.0478C22.1461 47.4302 22.7725 47.6851 23.399 47.8126C24.0255 47.94 24.735 48 25.5125 48C26.29 48 26.9919 47.9325 27.626 47.7901C28.2525 47.6551 28.8789 47.4152 29.4828 47.0778C30.0942 46.7404 30.615 46.2381 31.0452 45.5858C31.483 44.9335 31.8227 44.1387 32.0567 43.2015C32.1397 42.9016 32.034 42.6992 31.7397 42.6017L31.7321 42.5942ZM24.4482 37.3683L24.8332 36.2812C24.9841 35.8463 25.5729 35.7938 25.8144 36.1837L26.2749 36.956C26.4485 37.2484 26.3201 37.6232 25.9956 37.7357L25.1502 38.0506C24.7199 38.2081 24.2973 37.7957 24.4482 37.3683Z" fill="#FACB2C"/>
</g>
<defs>
<clipPath id="clip0_1_31">
<rect width="62" height="48" fill="white"/>
</clipPath>
</defs>
</svg>
