<svg width="81" height="63" viewBox="0 0 81 63" fill="none" xmlns="http://www.w3.org/2000/svg">
<g clip-path="url(#clip0_164_2010)">
<path d="M19.4271 0.19C19.2971 0.06 19.1371 0 18.9371 0H12.9571C12.7571 0 12.6071 0.06 12.4971 0.19C12.3871 0.31 12.3271 0.46 12.3271 0.63V14.91C12.3271 15.61 12.3271 16.17 12.3071 16.59C12.2971 17.01 12.2771 17.55 12.2471 18.21C12.2171 18.87 12.1571 19.4 12.0771 19.79C11.9871 20.18 11.8871 20.58 11.7571 20.99C11.6271 21.39 11.4571 21.69 11.2471 21.89C11.0371 22.08 10.7771 22.18 10.4671 22.18C9.56714 22.18 9.01714 21.09 8.79714 18.93L9.42714 18.78C9.85714 18.68 10.0971 18.21 9.91714 17.8L6.38714 9.75C6.14714 9.19 5.36714 9.17 5.09714 9.72L0.0771433 19.79C-0.192857 20.33 0.287143 20.94 0.877143 20.81L1.58714 20.64C1.72714 21.82 1.93714 22.89 2.24714 23.83C2.56714 24.84 3.04714 25.79 3.69714 26.69C4.33714 27.59 5.23714 28.28 6.39714 28.76C7.54714 29.24 8.90714 29.47 10.4771 29.47C11.7471 29.47 12.8671 29.31 13.8471 28.97C14.8271 28.63 15.6371 28.23 16.2671 27.75C16.8971 27.27 17.4371 26.6 17.8871 25.73C18.3371 24.86 18.6671 24.08 18.8771 23.37C19.0871 22.67 19.2571 21.73 19.3871 20.55C19.5071 19.37 19.5871 18.45 19.5971 17.77C19.6071 17.1 19.6171 16.14 19.6171 14.91V0.63C19.6171 0.46 19.5571 0.31 19.4271 0.19Z" fill="#1B4995"/>
<path d="M21.6171 18.4V7.91003C21.6171 7.74003 21.6771 7.59003 21.8071 7.47003C21.9371 7.35003 22.0771 7.28003 22.2471 7.28003H28.2671C28.4371 7.28003 28.5871 7.34003 28.7071 7.47003C28.8271 7.60003 28.8971 7.74003 28.8971 7.91003V18.39C28.8971 19.49 29.0571 20.39 29.3771 21.11C29.6971 21.83 30.1571 22.18 30.7471 22.18C31.3371 22.18 31.7871 21.83 32.0971 21.13C32.4071 20.43 32.5671 19.51 32.5671 18.39V7.91003C32.5671 7.74003 32.6271 7.59003 32.7571 7.47003C32.8871 7.35003 33.0271 7.28003 33.1971 7.28003H39.2171C39.3871 7.28003 39.5371 7.34003 39.6571 7.47003C39.7771 7.60003 39.8471 7.74003 39.8471 7.91003V28.84C39.8471 29.01 39.7871 29.16 39.6571 29.28C39.5271 29.4 39.3871 29.47 39.2171 29.47H33.1971C33.0271 29.47 32.8771 29.41 32.7571 29.28C32.6371 29.16 32.5671 29.01 32.5671 28.84V26.9C32.5671 26.74 32.4871 26.63 32.3371 26.58C32.1871 26.53 32.0671 26.58 31.9771 26.73C30.9371 28.55 29.4771 29.46 27.5971 29.46C25.6571 29.46 24.1771 28.48 23.1571 26.52C22.1371 24.56 21.6171 21.84 21.6171 18.39V18.4Z" fill="#1B4995"/>
<path d="M41.8471 7.89001C41.8471 7.72001 41.9071 7.57001 42.0371 7.45001C42.1671 7.33001 42.3071 7.26001 42.4771 7.26001H48.4971C48.6671 7.26001 48.8171 7.32001 48.9371 7.45001C49.0671 7.58001 49.1271 7.72001 49.1271 7.89001V9.83001C49.1271 9.99001 49.2071 10.1 49.3571 10.15C49.5071 10.2 49.6271 10.15 49.7171 10C50.7571 8.18001 52.2171 7.27001 54.0971 7.27001C55.9771 7.27001 57.5171 8.25001 58.5371 10.22C59.5571 12.18 60.0771 14.91 60.0771 18.39V28.84C60.0771 29.01 60.0171 29.16 59.8871 29.28C59.7571 29.4 59.6171 29.47 59.4471 29.47H53.4271C53.2671 29.47 53.1071 29.41 52.9871 29.28C52.8571 29.16 52.7971 29.01 52.7971 28.84V18.39C52.7971 17.27 52.6371 16.35 52.3171 15.63C51.9971 14.91 51.5371 14.56 50.9471 14.56C50.3571 14.56 49.9071 14.91 49.5971 15.61C49.2871 16.31 49.1271 17.24 49.1271 18.39V28.84C49.1271 29.01 49.0671 29.16 48.9371 29.28C48.8071 29.4 48.6671 29.47 48.4971 29.47H42.4771C42.3071 29.47 42.1571 29.41 42.0371 29.28C41.9071 29.16 41.8471 29.01 41.8471 28.84V7.89001Z" fill="#1B4995"/>
<path d="M62.0871 0.63C62.0871 0.46 62.1471 0.31 62.2771 0.19C62.3971 0.06 62.5471 0 62.7171 0H68.7371C68.9071 0 69.0571 0.06 69.1771 0.19C69.3071 0.31 69.3671 0.46 69.3671 0.63V14.36C69.3671 14.56 69.4771 14.68 69.7071 14.74C69.9371 14.8 70.0771 14.73 70.1271 14.53L72.6971 7.71C72.8071 7.43 73.0071 7.29 73.2871 7.29H79.3471C79.5671 7.29 79.7571 7.39 79.8871 7.58C80.0271 7.78 80.0471 7.97 79.9371 8.17L75.8071 18.15C75.7271 18.29 75.7271 18.44 75.8071 18.61L79.9371 28.59C80.0471 28.79 80.0371 28.98 79.8871 29.18C79.7471 29.38 79.5671 29.47 79.3471 29.47H73.3271C73.0171 29.47 72.8071 29.33 72.6871 29.05L70.1171 22.23C70.0371 22.03 69.8971 21.96 69.6971 22.02C69.4771 22.07 69.3571 22.2 69.3571 22.39V28.83C69.3571 29 69.2971 29.15 69.1671 29.27C69.0371 29.39 68.8971 29.46 68.7271 29.46H62.7071C62.5371 29.46 62.3871 29.4 62.2671 29.27C62.1371 29.15 62.0771 29 62.0771 28.83V0.63H62.0871Z" fill="#1B4995"/>
<path d="M0 34.11C0 33.94 0.0600001 33.79 0.19 33.67C0.32 33.54 0.46 33.48 0.63 33.48H17.6C17.77 33.48 17.92 33.54 18.04 33.67C18.16 33.8 18.23 33.94 18.23 34.11V40.13C18.23 40.29 18.17 40.44 18.04 40.57C17.91 40.7 17.77 40.76 17.6 40.76H7.91C7.74 40.76 7.59 40.82 7.47 40.95C7.35 41.08 7.28 41.22 7.28 41.39V43.92C7.28 44.09 7.34 44.24 7.47 44.36C7.6 44.49 7.74 44.55 7.91 44.55H15.36C15.53 44.55 15.68 44.61 15.8 44.74C15.93 44.87 15.99 45.03 15.99 45.22V51.2C15.99 51.4 15.93 51.56 15.8 51.68C15.67 51.81 15.53 51.87 15.36 51.87H7.91C7.74 51.87 7.59 51.93 7.47 52.06C7.35 52.19 7.28 52.33 7.28 52.5V62.31C7.28 62.48 7.22 62.63 7.09 62.75C6.97 62.87 6.82 62.94 6.65 62.94H0.63C0.46 62.94 0.31 62.88 0.19 62.75C0.0700001 62.62 0 62.48 0 62.31V34.1V34.11Z" fill="#1B4995"/>
<path d="M37.52 55.8L31.67 53.9C31.5 53.85 31.34 53.86 31.19 53.94C31.03 54.02 30.93 54.15 30.87 54.32C30.59 55.22 30.08 55.67 29.36 55.67C28.35 55.67 27.76 54.83 27.59 53.14C27.56 52.97 27.61 52.82 27.74 52.68C27.87 52.54 28.03 52.47 28.22 52.47H37.44C37.61 52.47 37.76 52.41 37.88 52.28C38 52.15 38.07 52 38.07 51.8C38.07 50.93 38.06 50.18 38.03 49.55C38 48.92 37.92 48.2 37.78 47.38C37.64 46.57 37.45 45.87 37.21 45.3C36.97 44.72 36.63 44.14 36.2 43.54C35.77 42.94 35.24 42.44 34.64 42.06C34.04 41.68 33.29 41.37 32.39 41.13C31.49 40.89 30.48 40.77 29.36 40.77C28.32 40.77 27.39 40.86 26.56 41.04C25.73 41.22 24.91 41.56 24.1 42.05C23.28 42.54 22.61 43.19 22.06 43.98C21.51 44.78 21.07 45.85 20.73 47.18C20.4 48.51 20.23 50.07 20.23 51.85C20.23 53.63 20.4 55.19 20.73 56.52C21.07 57.85 21.51 58.92 22.06 59.72C22.61 60.52 23.28 61.17 24.1 61.68C24.91 62.18 25.74 62.52 26.56 62.69C27.39 62.86 28.31 62.94 29.34 62.94C30.36 62.94 31.29 62.85 32.12 62.67C32.95 62.49 33.76 62.18 34.56 61.72C35.36 61.27 36.05 60.61 36.62 59.74C37.2 58.87 37.64 57.82 37.95 56.58C38.06 56.19 37.92 55.92 37.53 55.78L37.52 55.8ZM27.93 48.88L28.43 47.44C28.63 46.87 29.41 46.79 29.72 47.31L30.33 48.33C30.56 48.71 30.38 49.21 29.97 49.37L28.86 49.79C28.29 50 27.73 49.45 27.94 48.88H27.93Z" fill="#1B4995"/>
<path d="M57.36 55.8L51.51 53.9C51.34 53.85 51.18 53.86 51.03 53.94C50.87 54.02 50.77 54.15 50.71 54.32C50.43 55.22 49.92 55.67 49.2 55.67C48.19 55.67 47.6 54.83 47.43 53.14C47.4 52.97 47.45 52.82 47.58 52.68C47.71 52.54 47.87 52.47 48.06 52.47H57.28C57.45 52.47 57.6 52.41 57.72 52.28C57.84 52.15 57.91 52 57.91 51.8C57.91 50.93 57.9 50.18 57.87 49.55C57.84 48.92 57.76 48.2 57.62 47.38C57.48 46.57 57.29 45.87 57.05 45.3C56.81 44.72 56.47 44.14 56.04 43.54C55.61 42.94 55.08 42.44 54.48 42.06C53.88 41.68 53.13 41.37 52.23 41.13C51.33 40.89 50.32 40.77 49.2 40.77C48.16 40.77 47.23 40.86 46.4 41.04C45.57 41.22 44.75 41.56 43.94 42.05C43.12 42.54 42.45 43.19 41.9 43.98C41.35 44.78 40.91 45.85 40.57 47.18C40.24 48.51 40.07 50.07 40.07 51.85C40.07 53.63 40.24 55.19 40.57 56.52C40.91 57.85 41.35 58.92 41.9 59.72C42.45 60.52 43.12 61.17 43.94 61.68C44.75 62.18 45.58 62.52 46.4 62.69C47.23 62.86 48.15 62.94 49.18 62.94C50.2 62.94 51.13 62.85 51.96 62.67C52.79 62.49 53.6 62.18 54.4 61.72C55.2 61.27 55.89 60.61 56.46 59.74C57.04 58.87 57.48 57.82 57.79 56.58C57.9 56.19 57.76 55.92 57.37 55.78L57.36 55.8ZM47.78 48.9L48.28 47.46C48.48 46.89 49.26 46.81 49.57 47.33L50.18 48.35C50.41 48.73 50.23 49.23 49.82 49.39L48.71 49.81C48.14 50.02 47.58 49.48 47.79 48.9H47.78Z" fill="#1B4995"/>
<path d="M61.45 60.01C60.42 58.05 59.91 55.33 59.91 51.86C59.91 48.39 60.42 45.68 61.45 43.71C62.47 41.75 63.95 40.76 65.89 40.76C67.77 40.76 69.23 41.67 70.27 43.49C70.36 43.64 70.48 43.68 70.63 43.64C70.78 43.6 70.86 43.49 70.86 43.32V34.1C70.86 33.93 70.92 33.78 71.05 33.66C71.18 33.53 71.32 33.47 71.49 33.47H77.51C77.67 33.47 77.83 33.53 77.95 33.66C78.08 33.78 78.14 33.93 78.14 34.1V62.31C78.14 62.48 78.08 62.63 77.95 62.75C77.83 62.87 77.68 62.94 77.51 62.94H71.49C71.32 62.94 71.17 62.88 71.05 62.75C70.93 62.62 70.86 62.48 70.86 62.31V60.37C70.86 60.21 70.78 60.1 70.61 60.08C70.47 60.03 70.36 60.07 70.27 60.21C69.23 62.03 67.77 62.94 65.89 62.94C64.01 62.94 62.47 61.96 61.45 60V60.01ZM69.01 55.66C69.63 55.66 70.09 55.31 70.4 54.61C70.71 53.91 70.86 52.99 70.86 51.85C70.86 50.72 70.71 49.79 70.4 49.09C70.09 48.39 69.63 48.04 69.01 48.04C68.45 48.04 68 48.4 67.68 49.11C67.36 49.83 67.2 50.74 67.2 51.85C67.2 52.96 67.36 53.87 67.68 54.59C68 55.31 68.44 55.66 69.01 55.66Z" fill="#1B4995"/>
</g>
<defs>
<clipPath id="clip0_164_2010">
<rect width="80.0109" height="62.94" fill="white"/>
</clipPath>
</defs>
</svg>
