<svg width="246" height="153" viewBox="0 0 246 153" fill="none" xmlns="http://www.w3.org/2000/svg">
<g clip-path="url(#clip0_29_2482)">
<path d="M42.3314 4.38143L226.151 46.2286C236.77 48.6461 243.433 59.24 241.014 69.8631L234.165 99.9491C227.623 128.685 198.99 146.706 170.264 140.167L52.0476 113.254C23.3218 106.715 5.31124 78.0752 11.8531 49.339L18.7023 19.2531C21.1207 8.62996 31.7122 1.96393 42.3314 4.38143Z" fill="#F3EFE8"/>
<path d="M168.298 133.04L56.2057 107.522C29.8988 101.533 13.3729 75.2542 19.3639 48.9377L24.5414 26.1949C26.9184 15.7536 37.3382 9.19564 47.7757 11.5718L217.439 50.1962C227.876 52.5723 234.431 62.9945 232.054 73.4357L226.876 96.1785C220.885 122.495 194.612 139.03 168.305 133.042L168.298 133.04ZM46.8475 15.649C38.6611 13.7853 30.4815 18.9334 28.6171 27.1228L23.4397 49.8656C17.9613 73.9301 33.0781 97.9681 57.1339 103.444L169.234 128.964C193.289 134.441 217.322 119.315 222.8 95.2507L227.978 72.5079C229.842 64.3185 224.697 56.137 216.511 54.2734L46.8475 15.649Z" fill="black"/>
<path d="M41.79 23.3615C41.8123 23.2636 41.868 23.1807 41.9624 23.1213C42.0568 23.0618 42.1487 23.046 42.2535 23.0698L49.1466 24.6391C49.2445 24.6613 49.3274 24.717 49.39 24.7974C49.4509 24.8849 49.4668 24.9768 49.4445 25.0747L47.3506 37.8901C47.3124 38.058 47.3911 38.1642 47.5799 38.2072C47.7686 38.2501 47.8856 38.1885 47.9238 38.0207L51.5837 25.5617C51.606 25.4638 51.6601 25.3878 51.7529 25.3354C51.8457 25.283 51.936 25.2741 52.0408 25.2979L58.9339 26.8672C59.0318 26.8895 59.1147 26.9451 59.1741 27.0396C59.2335 27.134 59.2493 27.2259 59.2254 27.3308L55.3853 44.199C55.363 44.297 55.3074 44.3799 55.213 44.4393C55.1186 44.4988 55.0267 44.5146 54.9218 44.4908L51.3215 43.6711C51.2236 43.6488 51.1407 43.5932 51.0813 43.4988C51.0219 43.4043 51.0061 43.3124 51.03 43.2075L53.9021 30.5913C53.9403 30.4234 53.8771 30.3134 53.7141 30.2543C53.5495 30.2021 53.4427 30.2513 53.3835 30.4144L48.8812 42.7625C48.8179 42.9761 48.6665 43.0594 48.4289 43.0052L44.7306 42.1633C44.493 42.1092 44.3926 41.9687 44.428 41.7487L45.7145 28.6685C45.7387 28.4975 45.6583 28.3983 45.4858 28.3811C45.3148 28.3568 45.2086 28.4357 45.1704 28.6035L42.2983 41.2197C42.276 41.3176 42.2203 41.4006 42.1259 41.46C42.0315 41.5194 41.9397 41.5353 41.8348 41.5114L38.2345 40.6918C38.1366 40.6695 38.0537 40.6139 37.9943 40.5194C37.9349 40.425 37.919 40.3331 37.9429 40.2282L41.783 23.3599L41.79 23.3615Z" fill="black"/>
<path d="M61.2668 27.7955C61.2891 27.6976 61.3448 27.6146 61.4392 27.5552C61.5336 27.4958 61.6254 27.4799 61.7303 27.5038L65.3306 28.3234C65.4285 28.3457 65.5114 28.4014 65.5708 28.4958C65.6302 28.5902 65.6461 28.6821 65.6222 28.787L61.7821 45.6553C61.7598 45.7532 61.7041 45.8361 61.6097 45.8956C61.5153 45.955 61.4234 45.9709 61.3186 45.947L57.7182 45.1274C57.6204 45.1051 57.5374 45.0494 57.478 44.955C57.4187 44.8606 57.4028 44.7687 57.4267 44.6638L61.2668 27.7955Z" fill="black"/>
<path d="M64.3721 41.6106C64.4183 41.4078 64.5378 41.3026 64.7377 41.2966L68.6023 40.9554C68.7323 40.9335 68.841 40.9729 68.9369 41.0683C69.0313 41.1707 69.0579 41.2798 69.0324 41.3916L68.9521 41.8736L68.9458 41.9015C68.8801 42.2544 68.9283 42.5596 69.0849 42.8086C69.2414 43.0575 69.4778 43.2143 69.7994 43.2875C70.121 43.3607 70.4019 43.3217 70.6509 43.1651C70.8998 43.0084 71.0629 42.744 71.1457 42.3803C71.211 42.0936 71.1774 41.8211 71.038 41.5613C70.9056 41.3032 70.6937 41.071 70.4148 40.8751C70.1358 40.6792 69.8111 40.4582 69.4531 40.2222C69.0966 39.9792 68.716 39.7454 68.3268 39.5171C67.9376 39.2887 67.5767 39.0006 67.2355 38.6581C66.9013 38.3172 66.6155 37.9579 66.3865 37.5748C66.1559 37.1986 65.9998 36.7217 65.9289 36.1612C65.8509 35.5991 65.897 34.977 66.0498 34.3056C66.451 32.5433 67.2718 31.2957 68.5052 30.5614C69.7386 29.8271 71.1627 29.6437 72.7707 30.0098C74.2947 30.3567 75.4769 31.0746 76.3189 32.1563C77.1609 33.2381 77.4388 34.5371 77.1696 36.0426C77.1422 36.2277 77.0296 36.3344 76.8319 36.363L72.9463 36.6995C72.8163 36.7214 72.7077 36.682 72.6117 36.5866C72.5174 36.4842 72.4907 36.3751 72.5162 36.2632L72.5965 35.7813L72.6029 35.7533C72.6825 35.4037 72.6483 35.1016 72.4917 34.8527C72.3352 34.6037 72.0988 34.4469 71.7772 34.3737C71.4556 34.3005 71.1747 34.3395 70.9188 34.4946C70.6629 34.6496 70.4927 34.9125 70.4099 35.2762C70.3367 35.5979 70.3935 35.8977 70.584 36.1911C70.7746 36.4846 71.0462 36.7451 71.4096 36.9896C71.7731 37.2342 72.1661 37.4782 72.5925 37.7371C73.0188 37.996 73.4443 38.2914 73.8617 38.6218C74.2791 38.9523 74.6489 39.3307 74.9656 39.7485C75.2822 40.1663 75.4965 40.6785 75.6053 41.2991C75.7156 41.9127 75.6762 42.6025 75.5042 43.3578C75.103 45.1202 74.2822 46.3677 73.0488 47.1021C71.8154 47.8364 70.3983 48.0213 68.8043 47.6585C67.2104 47.2956 66.0701 46.5873 65.2281 45.5055C64.3861 44.4238 64.1083 43.1247 64.3775 41.6192L64.3721 41.6106Z" fill="black"/>
<path d="M79.7369 32.0003C79.7592 31.9024 79.8148 31.8194 79.9093 31.76C80.0037 31.7006 80.0955 31.6847 80.2004 31.7086L85.2828 32.8656C86.2406 33.0836 87.0397 33.4494 87.6785 33.97C88.319 34.4836 88.7722 35.1091 89.0414 35.8324C89.3106 36.5557 89.459 37.3251 89.4812 38.1319C89.5104 38.9404 89.4188 39.7949 89.215 40.6901C89.0112 41.5852 88.7239 42.3952 88.3476 43.1113C87.9713 43.8274 87.5045 44.4568 86.9558 44.9939C86.4 45.5294 85.7223 45.89 84.921 46.0827C84.1214 46.2685 83.2411 46.2593 82.2833 46.0413L81.5772 45.8806C81.4584 45.8535 81.3525 45.8662 81.2651 45.9272C81.1707 45.9866 81.1166 46.0626 81.0928 46.1675L80.2506 49.867C80.2283 49.965 80.1726 50.0479 80.0782 50.1073C79.9838 50.1668 79.8919 50.1826 79.7871 50.1588L76.1867 49.3391C76.0889 49.3168 76.0059 49.2612 75.9465 49.1668C75.8872 49.0723 75.8713 48.9804 75.8952 48.8755L79.7353 32.0073L79.7369 32.0003ZM83.2838 41.679C83.4515 41.7172 83.6101 41.7312 83.7525 41.7195C83.8949 41.7078 84.0173 41.6547 84.1212 41.5533C84.2252 41.4519 84.3104 41.3683 84.3784 41.2956C84.4465 41.2228 84.5117 41.0979 84.5687 40.9122C84.624 40.7336 84.6683 40.6039 84.6858 40.527L85.0615 38.8765C85.0806 38.7926 85.1039 38.6581 85.1259 38.4645C85.1533 38.2795 85.1502 38.1317 85.1204 38.0366C85.0905 37.9415 85.0499 37.8293 84.9969 37.7069C84.9455 37.5775 84.8581 37.4767 84.7364 37.3975C84.6147 37.3183 84.4673 37.2553 84.2995 37.2171L83.5934 37.0564C83.4746 37.0293 83.3688 37.042 83.2813 37.103C83.1869 37.1624 83.1329 37.2384 83.109 37.3433L82.2668 41.0429C82.2445 41.1408 82.2587 41.2396 82.3181 41.3341C82.3775 41.4285 82.4674 41.4858 82.5793 41.5112L83.2854 41.672L83.2838 41.679Z" fill="black"/>
<path d="M94.2037 49.0419C94.1752 48.8442 94.0716 48.7176 93.8899 48.6762C93.771 48.6492 93.6652 48.6619 93.5777 48.7229C93.4833 48.7823 93.4293 48.8583 93.4054 48.9632L92.5632 52.6627C92.5409 52.7606 92.4852 52.8436 92.3908 52.903C92.2964 52.9624 92.2046 52.9783 92.0997 52.9544L88.4994 52.1348C88.4015 52.1125 88.3186 52.0569 88.2592 51.9624C88.1998 51.868 88.1839 51.7761 88.2078 51.6712L92.0479 34.8029C92.0702 34.705 92.1259 34.6221 92.2203 34.5627C92.3147 34.5032 92.4066 34.4874 92.5114 34.5112L97.5938 35.6683C98.5516 35.8863 99.3507 36.2521 99.9896 36.7727C100.63 37.2863 101.083 37.9118 101.352 38.6351C101.622 39.3584 101.77 40.1278 101.792 40.9346C101.821 41.7431 101.728 42.6046 101.523 43.5067C101.015 45.7376 100.074 47.3183 98.6952 48.2402C98.575 48.3158 98.5184 48.4353 98.5323 48.6003L98.973 53.9969C98.9777 54.1377 98.9296 54.2518 98.8305 54.3322C98.7313 54.4126 98.6137 54.4447 98.4808 54.4145L94.8316 53.5837C94.6498 53.5423 94.5516 53.4244 94.5457 53.2244L94.2037 49.0419ZM95.5878 44.48C95.7556 44.5182 95.9142 44.5323 96.0565 44.5206C96.1989 44.5088 96.3213 44.4558 96.4253 44.3544C96.5292 44.253 96.6144 44.1694 96.6825 44.0966C96.7505 44.0239 96.8157 43.8989 96.8727 43.7133C96.9281 43.5347 96.9723 43.405 96.9898 43.328L97.3656 41.6776C97.3847 41.5937 97.4079 41.4592 97.4299 41.2656C97.4573 41.0806 97.4542 40.9327 97.4244 40.8377C97.3946 40.7426 97.3539 40.6304 97.3009 40.508C97.2495 40.3786 97.1621 40.2778 97.0405 40.1986C96.9188 40.1194 96.7713 40.0564 96.6036 40.0182L95.8975 39.8575C95.7786 39.8304 95.6728 39.8431 95.5854 39.9041C95.491 39.9635 95.4369 40.0395 95.413 40.1444L94.5708 43.8439C94.5485 43.9419 94.5628 44.0407 94.6222 44.1352C94.6815 44.2296 94.7715 44.2868 94.8833 44.3123L95.5894 44.4731L95.5878 44.48Z" fill="black"/>
<path d="M104.555 37.6501C104.577 37.5522 104.633 37.4692 104.727 37.4098C104.822 37.3504 104.913 37.3345 105.018 37.3584L115.162 39.6677C115.26 39.69 115.343 39.7456 115.402 39.8401C115.462 39.9345 115.478 40.0264 115.454 40.1313L114.634 43.7329C114.611 43.8308 114.556 43.9138 114.461 43.9732C114.367 44.0326 114.275 44.0485 114.17 44.0246L108.41 42.7132C108.291 42.6862 108.185 42.6989 108.098 42.7599C108.003 42.8193 107.949 42.8952 107.925 43.0002L107.581 44.5107C107.559 44.6087 107.573 44.7075 107.633 44.802C107.692 44.8964 107.782 44.9536 107.894 44.9791L112.326 45.9881C112.424 46.0104 112.507 46.0661 112.566 46.1605C112.626 46.2549 112.638 46.3608 112.613 46.4727L111.799 50.0464C111.772 50.1653 111.715 50.2552 111.622 50.3076C111.528 50.3671 111.436 50.3829 111.331 50.3591L106.899 49.35C106.78 49.323 106.674 49.3357 106.587 49.3967C106.492 49.4561 106.438 49.5321 106.414 49.637L106.077 51.1196C106.05 51.2385 106.062 51.3443 106.123 51.4318C106.183 51.5262 106.273 51.5835 106.385 51.6089L112.145 52.9203C112.243 52.9426 112.326 52.9983 112.385 53.0927C112.445 53.1871 112.461 53.279 112.437 53.3839L111.617 56.9856C111.594 57.0835 111.539 57.1664 111.444 57.2259C111.35 57.2853 111.258 57.3011 111.153 57.2773L101.009 54.968C100.912 54.9457 100.829 54.8901 100.769 54.7956C100.71 54.7012 100.694 54.6093 100.718 54.5044L104.558 37.6361L104.555 37.6501Z" fill="black"/>
<path d="M113.847 52.8738C113.893 52.6709 114.013 52.5658 114.213 52.5598L118.077 52.2185C118.207 52.1966 118.316 52.236 118.412 52.3314C118.506 52.4338 118.533 52.5429 118.507 52.6548L118.427 53.1367L118.421 53.1647C118.355 53.5175 118.403 53.8227 118.56 54.0717C118.716 54.3207 118.953 54.4774 119.274 54.5507C119.596 54.6239 119.877 54.5848 120.126 54.4282C120.375 54.2715 120.538 54.0071 120.621 53.6434C120.686 53.3567 120.652 53.0842 120.513 52.8245C120.38 52.5663 120.169 52.3342 119.89 52.1382C119.611 51.9423 119.286 51.7213 118.928 51.4853C118.571 51.2423 118.191 51.0086 117.802 50.7802C117.412 50.5518 117.052 50.2637 116.71 49.9212C116.376 49.5803 116.09 49.221 115.861 48.8379C115.631 48.4617 115.475 47.9848 115.404 47.4243C115.326 46.8623 115.372 46.2401 115.525 45.5688C115.926 43.8064 116.747 42.5588 117.98 41.8245C119.213 41.0902 120.638 40.9068 122.246 41.2729C123.77 41.6198 124.952 42.3377 125.794 43.4194C126.636 44.5012 126.914 45.8002 126.644 47.3058C126.617 47.4908 126.504 47.5976 126.307 47.6261L122.421 47.9626C122.291 47.9845 122.183 47.9451 122.087 47.8497C121.992 47.7473 121.966 47.6382 121.991 47.5263L122.071 47.0444L122.078 47.0164C122.157 46.6668 122.123 46.3648 121.967 46.1158C121.81 45.8668 121.574 45.71 121.252 45.6368C120.93 45.5636 120.65 45.6026 120.394 45.7577C120.138 45.9128 119.968 46.1756 119.885 46.5393C119.812 46.861 119.868 47.1608 120.059 47.4543C120.249 47.7477 120.521 48.0082 120.884 48.2528C121.248 48.4973 121.641 48.7413 122.067 49.0002C122.494 49.2591 122.919 49.5545 123.337 49.885C123.754 50.2154 124.124 50.5938 124.44 51.0116C124.757 51.4294 124.971 51.9416 125.08 52.5622C125.19 53.1758 125.151 53.8656 124.979 54.6209C124.578 56.3833 123.757 57.6309 122.524 58.3652C121.29 59.0995 119.873 59.2844 118.279 58.9216C116.685 58.5587 115.545 57.8504 114.703 56.7687C113.861 55.6869 113.583 54.3879 113.852 52.8823L113.847 52.8738Z" fill="black"/>
<path d="M129.219 43.265C129.241 43.1671 129.297 43.0841 129.391 43.0247C129.486 42.9653 129.577 42.9494 129.682 42.9733L139.826 45.2826C139.924 45.3048 140.007 45.3605 140.066 45.4549C140.126 45.5494 140.142 45.6412 140.118 45.7461L139.298 49.3478C139.276 49.4457 139.22 49.5287 139.125 49.5881C139.031 49.6475 138.939 49.6634 138.834 49.6395L133.074 48.3281C132.955 48.301 132.849 48.3137 132.762 48.3747C132.667 48.4342 132.613 48.5101 132.589 48.615L132.245 50.1256C132.223 50.2235 132.237 50.3224 132.297 50.4168C132.356 50.5113 132.446 50.5685 132.558 50.594L136.99 51.603C137.088 51.6253 137.171 51.6809 137.23 51.7754C137.29 51.8698 137.302 51.9757 137.277 52.0876L136.463 55.6612C136.436 55.7801 136.379 55.8701 136.286 55.9225C136.192 55.9819 136.1 55.9978 135.995 55.9739L131.563 54.9649C131.444 54.9378 131.338 54.9505 131.251 55.0115C131.156 55.071 131.102 55.1469 131.078 55.2518L130.741 56.7345C130.714 56.8533 130.727 56.9592 130.787 57.0466C130.847 57.1411 130.937 57.1983 131.049 57.2238L136.809 58.5352C136.907 58.5575 136.99 58.6131 137.049 58.7076C137.109 58.802 137.125 58.8939 137.101 58.9988L136.281 62.6004C136.259 62.6983 136.203 62.7813 136.108 62.8407C136.014 62.9001 135.922 62.916 135.817 62.8921L125.673 60.5829C125.576 60.5606 125.493 60.5049 125.433 60.4105C125.374 60.316 125.358 60.2242 125.382 60.1193L129.222 43.251L129.219 43.265Z" fill="black"/>
<path d="M141.802 46.1297C141.825 46.0318 141.88 45.9489 141.975 45.8894C142.069 45.83 142.161 45.8141 142.266 45.838L145.964 46.6799C146.167 46.7261 146.272 46.8456 146.278 47.0456L146.433 53.5688C146.433 53.7306 146.518 53.8088 146.694 53.812C146.851 53.8331 146.94 53.7651 146.975 53.6112L148.339 47.6178C148.361 47.5199 148.417 47.4369 148.511 47.3775C148.606 47.3181 148.698 47.3022 148.802 47.3261L152.403 48.1457C152.501 48.168 152.584 48.2236 152.643 48.3181C152.702 48.4125 152.718 48.5044 152.694 48.6093L148.854 65.4776C148.832 65.5755 148.776 65.6584 148.682 65.7179C148.587 65.7773 148.496 65.7932 148.391 65.7693L144.693 64.9274C144.49 64.8812 144.385 64.7617 144.379 64.5617L144.224 58.0385C144.224 57.8767 144.139 57.7985 143.963 57.7953C143.806 57.7742 143.717 57.8422 143.682 57.9961L142.318 63.9895C142.295 64.0874 142.24 64.1704 142.145 64.2298C142.051 64.2892 141.959 64.3051 141.854 64.2812L138.254 63.4616C138.156 63.4393 138.073 63.3837 138.014 63.2892C137.954 63.1948 137.938 63.1029 137.962 62.998L141.802 46.1297Z" fill="black"/>
<path d="M156.366 54.0278C156.388 53.9298 156.374 53.831 156.314 53.7365C156.255 53.6421 156.179 53.588 156.074 53.5642L153.557 52.9912C153.459 52.9689 153.376 52.9133 153.317 52.8188C153.258 52.7244 153.242 52.6325 153.266 52.5276L154.086 48.926C154.108 48.8281 154.164 48.7451 154.258 48.6857C154.352 48.6263 154.444 48.6104 154.549 48.6343L164.693 50.9436C164.791 50.9658 164.874 51.0215 164.933 51.1159C164.993 51.2104 165.008 51.3023 164.985 51.4072L164.165 55.0088C164.142 55.1067 164.087 55.1897 163.992 55.2491C163.898 55.3085 163.806 55.3244 163.701 55.3005L161.184 54.7276C161.087 54.7053 160.988 54.7196 160.893 54.779C160.799 54.8384 160.745 54.9144 160.721 55.0193L157.873 67.5306C157.85 67.6285 157.795 67.7115 157.7 67.7709C157.606 67.8303 157.514 67.8462 157.409 67.8223L153.809 67.0027C153.711 66.9804 153.628 66.9247 153.569 66.8303C153.509 66.7359 153.493 66.644 153.517 66.5391L156.366 54.0278Z" fill="black"/>
<path d="M172.278 70.7586C172.251 70.8774 172.194 70.9674 172.112 71.037C172.009 71.1018 171.908 71.1231 171.803 71.0992L168.252 70.2907C168.154 70.2684 168.071 70.2128 168.009 70.1323C167.946 70.0519 167.932 69.953 167.954 69.8551L168.211 68.2733C168.234 68.1754 168.218 68.0835 168.157 67.9961C168.096 67.9086 168.018 67.8615 167.913 67.8377L166.655 67.5512C166.557 67.5289 166.458 67.5432 166.367 67.5886C166.276 67.6341 166.22 67.717 166.198 67.8149L165.745 69.3522C165.723 69.4501 165.669 69.5261 165.576 69.5785C165.483 69.6309 165.393 69.6398 165.288 69.6159L161.737 68.8074C161.618 68.7804 161.536 68.7177 161.486 68.6179C161.435 68.5181 161.429 68.4138 161.456 68.2949L167.149 51.8779C167.239 51.6481 167.397 51.5665 167.635 51.6206L173.926 53.0529C174.024 53.0752 174.107 53.1309 174.17 53.2113C174.231 53.2988 174.247 53.3906 174.224 53.4885L172.278 70.7586ZM170.029 57.0279C170.056 56.8429 169.974 56.7211 169.778 56.6765C169.582 56.632 169.471 56.7022 169.428 56.891L167.697 62.7495C167.656 62.8652 167.661 62.9695 167.726 63.0725C167.791 63.1755 167.872 63.2382 167.977 63.2621L168.578 63.3989C168.676 63.4212 168.777 63.3999 168.873 63.3335C168.969 63.2671 169.026 63.1772 169.053 63.0583L170.029 57.0279Z" fill="black"/>
<path d="M178.66 59.1031C178.682 59.0052 178.668 58.9063 178.608 58.8119C178.549 58.7174 178.473 58.6634 178.368 58.6395L175.851 58.0665C175.753 58.0443 175.671 57.9886 175.611 57.8942C175.552 57.7997 175.536 57.7079 175.56 57.6029L176.38 54.0013C176.402 53.9034 176.458 53.8204 176.552 53.761C176.646 53.7016 176.738 53.6857 176.843 53.7096L186.987 56.0189C187.085 56.0412 187.168 56.0968 187.227 56.1913C187.287 56.2857 187.302 56.3776 187.279 56.4825L186.459 60.0841C186.436 60.182 186.381 60.265 186.286 60.3244C186.192 60.3838 186.1 60.3997 185.995 60.3758L183.478 59.8029C183.381 59.7806 183.282 59.7949 183.187 59.8543C183.093 59.9137 183.039 59.9897 183.015 60.0946L180.167 72.6059C180.144 72.7038 180.089 72.7868 179.994 72.8462C179.9 72.9056 179.808 72.9215 179.703 72.8976L176.103 72.078C176.005 72.0557 175.922 72.0001 175.863 71.9056C175.803 71.8112 175.787 71.7193 175.811 71.6144L178.66 59.1031Z" fill="black"/>
<path d="M188.691 56.804C188.713 56.7061 188.769 56.6231 188.863 56.5637C188.958 56.5043 189.049 56.4884 189.154 56.5123L192.755 57.3319C192.852 57.3542 192.935 57.4098 192.995 57.5043C193.054 57.5987 193.07 57.6906 193.046 57.7955L189.206 74.6638C189.184 74.7617 189.128 74.8446 189.034 74.9041C188.939 74.9635 188.847 74.9793 188.743 74.9555L185.142 74.1358C185.044 74.1136 184.961 74.0579 184.902 73.9635C184.843 73.869 184.827 73.7772 184.851 73.6723L188.691 56.804Z" fill="black"/>
<path d="M192.527 68.0198C192.598 67.6755 192.698 67.2054 192.832 66.6179C192.966 66.0305 193.072 65.5619 193.164 65.2224C193.249 64.8813 193.374 64.4315 193.536 63.88C193.698 63.3285 193.844 62.8835 193.985 62.5551C194.119 62.2252 194.309 61.8418 194.543 61.3949C194.775 60.955 195.017 60.6054 195.272 60.3546C195.521 60.1023 195.822 59.8471 196.176 59.582C196.531 59.317 196.903 59.1369 197.295 59.0276C197.686 58.9254 198.141 58.867 198.657 58.8595C199.174 58.852 199.718 58.917 200.305 59.0507C200.892 59.1844 201.411 59.3613 201.866 59.59C202.314 59.8171 202.7 60.0595 203.007 60.3279C203.315 60.5893 203.571 60.9197 203.775 61.312C203.98 61.7044 204.141 62.0646 204.256 62.3997C204.371 62.7348 204.444 63.1561 204.463 63.6533C204.482 64.1505 204.488 64.5784 204.471 64.9424C204.463 65.301 204.408 65.7667 204.316 66.3341C204.224 66.9016 204.134 67.3593 204.056 67.702L203.419 70.4994C203.341 70.8421 203.224 71.2935 203.062 71.845C202.899 72.3965 202.747 72.8399 202.599 73.1667C202.451 73.4935 202.268 73.8784 202.034 74.3253C201.799 74.7722 201.56 75.1149 201.304 75.3656C201.055 75.618 200.755 75.8732 200.4 76.1382C200.046 76.4032 199.674 76.5834 199.281 76.6926C198.89 76.7949 198.436 76.8532 197.933 76.8639C197.431 76.8746 196.88 76.808 196.293 76.6743C195.706 76.5406 195.18 76.3621 194.725 76.1334C194.262 75.9031 193.876 75.6608 193.57 75.3924C193.262 75.1309 193.006 74.8006 192.801 74.4082C192.596 74.0159 192.436 73.6556 192.321 73.3205C192.206 72.9854 192.133 72.5642 192.113 72.067C192.094 71.5697 192.097 71.1364 192.114 70.7724C192.138 70.41 192.192 69.9443 192.283 69.3839C192.374 68.8234 192.455 68.3711 192.527 68.0198ZM197.278 72.3158C197.445 72.354 197.614 72.326 197.775 72.2304C197.937 72.1347 198.084 71.9698 198.219 71.7355C198.353 71.5013 198.471 71.2708 198.573 71.0512C198.674 70.8315 198.778 70.5388 198.875 70.1783C198.971 69.8178 199.047 69.5482 199.092 69.3524L199.611 67.0726C199.665 66.8348 199.724 66.5099 199.797 66.0925C199.87 65.6751 199.909 65.3455 199.921 65.0981C199.933 64.8508 199.933 64.5933 199.915 64.317C199.897 64.0408 199.835 63.8281 199.729 63.6789C199.623 63.5298 199.482 63.4389 199.301 63.3975C199.119 63.3561 198.959 63.3786 198.806 63.4689C198.653 63.5591 198.506 63.7241 198.363 63.9637C198.22 64.2034 198.1 64.4408 198.005 64.6621C197.909 64.8903 197.808 65.2056 197.693 65.6135C197.585 66.0229 197.498 66.3414 197.437 66.5776C197.376 66.8138 197.291 67.1549 197.187 67.6095L196.987 68.4906C196.952 68.6445 196.905 68.8473 196.86 69.1092C196.809 69.3696 196.77 69.6036 196.738 69.8095C196.706 70.0155 196.683 70.2457 196.663 70.4914C196.643 70.7442 196.637 70.9635 196.646 71.1495C196.655 71.3355 196.68 71.5176 196.723 71.682C196.765 71.8534 196.838 71.9876 196.93 72.0969C197.03 72.2079 197.146 72.2785 197.279 72.3088L197.278 72.3158Z" fill="black"/>
<path d="M207.364 61.0549C207.386 60.957 207.442 60.874 207.536 60.8146C207.63 60.7552 207.722 60.7393 207.827 60.7632L211.525 61.6051C211.728 61.6512 211.833 61.7708 211.839 61.9708L211.994 68.4939C211.994 68.6557 212.079 68.734 212.255 68.7372C212.412 68.7582 212.501 68.6902 212.536 68.5364L213.9 62.543C213.922 62.445 213.978 62.3621 214.072 62.3027C214.167 62.2432 214.259 62.2274 214.364 62.2512L217.964 63.0709C218.062 63.0932 218.145 63.1488 218.204 63.2433C218.264 63.3377 218.279 63.4296 218.255 63.5345L214.415 80.4027C214.393 80.5007 214.337 80.5836 214.243 80.643C214.149 80.7025 214.057 80.7183 213.952 80.6944L210.254 79.8525C210.051 79.8064 209.946 79.6868 209.94 79.4869L209.785 72.9637C209.785 72.8019 209.7 72.7237 209.524 72.7204C209.367 72.6994 209.278 72.7674 209.243 72.9213L207.879 78.9147C207.857 79.0126 207.801 79.0955 207.706 79.155C207.612 79.2144 207.52 79.2303 207.415 79.2064L203.815 78.3868C203.717 78.3645 203.634 78.3088 203.575 78.2144C203.515 78.12 203.5 78.0281 203.523 77.9232L207.364 61.0549Z" fill="black"/>
<path d="M87.5475 91.2649C85.8137 90.8702 84.3938 90.0983 83.2877 88.949C82.1817 87.7998 81.4574 86.3623 81.1149 84.6366C80.7725 82.911 80.8432 80.9851 81.3272 78.8591C81.9258 76.2295 82.8116 73.8566 83.9846 71.7403C85.1576 69.624 86.5256 67.8464 88.0885 66.4074C89.6515 64.9683 91.3242 63.9515 93.1067 63.3569C94.8892 62.7623 96.6893 62.6719 98.5069 63.0856C100.325 63.4994 101.694 64.2673 102.783 65.4273C103.872 66.5873 104.596 68.0248 104.956 69.7397C105.315 71.4545 105.253 73.375 104.769 75.501C104.177 78.1026 103.294 80.4615 102.121 82.5778C100.948 84.6941 99.5733 86.4702 97.9964 87.906C96.4195 89.3419 94.7382 90.3641 92.9525 90.9727C91.1668 91.5813 89.3651 91.6787 87.5475 91.2649ZM87.9371 89.9413C89.531 90.3041 91.1204 90.2025 92.7052 89.6365C94.29 89.0704 95.778 88.1219 97.1693 86.7909C98.5606 85.4599 99.7817 83.8106 100.833 81.8431C101.883 79.8755 102.689 77.6609 103.25 75.1992C103.893 72.3738 103.757 69.9965 102.844 68.0672C101.93 66.1379 100.354 64.9186 98.1173 64.4093C96.5234 64.0464 94.934 64.148 93.3492 64.7141C91.7644 65.2801 90.2833 66.2303 88.906 67.5644C87.5287 68.8986 86.3146 70.5495 85.2638 72.517C84.2129 74.4846 83.4072 76.6992 82.8468 79.1609C82.2036 81.9863 82.3389 84.3636 83.2527 86.2929C84.1665 88.2222 85.7279 89.4383 87.9371 89.9413Z" fill="#F0542E"/>
<path d="M101.785 93.844L103.594 89.5776L105.607 90.0359L103.798 94.3023L101.785 93.844Z" fill="#F0542E"/>
<path d="M117.154 98.005C115.42 97.6103 114.001 96.8383 112.894 95.6891C111.788 94.5398 111.064 93.1024 110.722 91.3767C110.379 89.651 110.45 87.7252 110.934 85.5991C111.533 82.9696 112.418 80.5967 113.591 78.4804C114.764 76.3641 116.132 74.5864 117.695 73.1474C119.258 71.7084 120.931 70.6915 122.713 70.0969C124.496 69.5023 126.296 69.4119 128.114 69.8257C129.931 70.2395 131.301 71.0073 132.39 72.1673C133.478 73.3274 134.203 74.7648 134.562 76.4797C134.922 78.1946 134.86 80.115 134.376 82.2411C133.784 84.8426 132.901 87.2016 131.728 89.3179C130.555 91.4341 129.18 93.2102 127.603 94.6461C126.026 96.0819 124.345 97.1041 122.559 97.7127C120.773 98.3213 118.972 98.4188 117.154 98.005ZM117.544 96.6813C119.138 97.0442 120.727 96.9426 122.312 96.3765C123.897 95.8105 125.385 94.8619 126.776 93.5309C128.167 92.1999 129.388 90.5507 130.439 88.5831C131.49 86.6156 132.296 84.401 132.856 81.9393C133.499 79.1139 133.364 76.7366 132.45 74.8072C131.537 72.8779 129.961 71.6586 127.724 71.1493C126.13 70.7865 124.541 70.8881 122.956 71.4541C121.371 72.0202 119.89 72.9703 118.513 74.3045C117.135 75.6387 115.921 77.2895 114.87 79.2571C113.82 81.2246 113.014 83.4392 112.454 85.9009C111.81 88.7263 111.946 91.1037 112.859 93.033C113.773 94.9623 115.335 96.1784 117.544 96.6813Z" fill="#F0542E"/>
<path d="M139.403 102.408L149.926 77.3071L137.266 82.7226L138.022 80.9527L150.794 75.4305L152.221 75.7551L140.871 102.742L139.403 102.408Z" fill="#F0542E"/>
<path d="M147.105 104.492L146.084 104.26L160.055 95.7667L161.111 96.007L147.105 104.492ZM148.332 96.7759C148.726 95.0485 150.169 93.2954 152.231 93.7649C153.671 94.0927 154.373 95.0469 154.04 96.5086C153.708 97.9702 152.361 100.01 150.145 99.5057C148.719 99.181 148 98.2376 148.331 96.7829L148.332 96.7759ZM153.212 96.4009C153.449 95.3589 153.004 94.7646 151.962 94.5274C150.585 94.2139 149.48 95.5145 149.174 96.8572C148.942 97.8783 149.369 98.4904 150.389 98.7227C151.766 99.0362 152.903 97.7576 153.212 96.4009ZM153.128 103.745C153.522 102.018 154.965 100.265 157.027 100.734C158.467 101.062 159.169 102.016 158.837 103.478C158.504 104.939 157.143 106.976 154.941 106.475C153.501 106.147 152.796 105.207 153.127 103.752L153.128 103.745ZM158 103.376C158.237 102.333 157.791 101.739 156.763 101.505C155.372 101.189 154.281 102.492 153.976 103.835C153.743 104.856 154.149 105.463 155.191 105.701C156.568 106.014 157.691 104.732 158 103.376Z" fill="#F0542E"/>
<path d="M76.7295 97.0849C76.3592 97.2581 75.931 97.3298 75.4277 97.2152C74.428 96.9876 73.9593 96.2042 74.2124 95.0922C74.4894 93.8754 75.2696 93.2585 76.3252 93.4988C77.1222 93.6803 77.4801 94.2399 77.3416 94.8483C77.3177 94.9532 77.2729 95.0533 77.0561 95.004C76.8814 94.9642 76.8414 94.8816 76.8636 94.7836C76.8716 94.7487 76.9095 94.647 76.9174 94.612C76.9859 94.3113 76.8141 94 76.2269 93.8663C75.4299 93.6849 74.8443 94.1253 74.6198 95.1114C74.3953 96.0975 74.7329 96.6819 75.5788 96.8745C75.9703 96.9636 76.4 96.8849 76.825 96.6653L76.7295 97.0849Z" fill="black"/>
<path d="M77.9876 95.9517C78.263 94.7418 79.0308 94.1148 80.1283 94.3646C81.0931 94.5843 81.5338 95.3614 81.2807 96.4733C81.0053 97.6832 80.2305 98.3086 79.1399 98.0603C78.1752 97.8407 77.7344 97.0636 77.9876 95.9517ZM80.8717 96.4611C81.0994 95.4611 80.8006 94.9002 79.9756 94.7124C79.1996 94.5357 78.6195 94.9848 78.3966 95.9638C78.1737 96.9429 78.4747 97.5264 79.2926 97.7126C80.1106 97.8988 80.6488 97.4402 80.8717 96.4611Z" fill="black"/>
<path d="M83.8741 99.0351L83.9569 98.6714L84.5232 98.8003L84.5467 98.7615L85.0037 96.7544C85.131 96.1949 84.8833 95.8296 84.38 95.715C83.9325 95.6132 83.4151 95.819 83.0682 96.1152L82.5667 98.3181L82.5711 98.3633L83.1374 98.4922L83.0546 98.8559L81.5306 98.5089L81.6134 98.1453L82.1657 98.271L82.1892 98.2322L82.8085 95.5117L82.8025 95.4736L82.1593 95.3272L82.2421 94.9635L83.2558 95.1943L83.1631 95.666L83.1981 95.674C83.5783 95.3927 84.0401 95.2698 84.4875 95.3717C85.1587 95.5245 85.5369 96.0593 85.3713 96.7866L84.9001 98.8567L84.9045 98.9018L85.4568 99.0276L85.374 99.3912L83.85 99.0443L83.8741 99.0351Z" fill="black"/>
<path d="M88.0999 99.8206C87.824 99.9343 87.5462 99.9594 87.2176 99.8846C86.7213 99.7716 86.4574 99.3805 86.5831 98.828L87.1149 96.4922L87.1089 96.454L86.5216 96.3203L86.6044 95.9567L87.2056 96.0935L87.3808 95.3242L87.7513 95.4086L87.5762 96.1779L88.8765 96.4739L88.7238 96.8216L87.4934 96.5415L86.968 98.8494C86.8661 99.297 87.0262 99.4658 87.3827 99.547C87.6414 99.6059 87.9443 99.5351 88.1938 99.408L88.0999 99.8206Z" fill="black"/>
<path d="M91.6272 100.476C91.2569 100.65 90.8288 100.721 90.3254 100.607C89.3257 100.379 88.857 99.5957 89.1101 98.4838C89.3871 97.2669 90.1673 96.6501 91.2229 96.8904C92.0688 97.083 92.4261 97.7748 92.2589 98.5091C92.2127 98.7119 92.129 98.9504 92.0345 99.1716L89.4968 98.5939C89.3146 99.5234 89.6602 100.073 90.4781 100.259C90.8696 100.348 91.2993 100.269 91.7243 100.05L91.6288 100.469L91.6272 100.476ZM91.7716 98.7439C91.7945 98.6756 91.8419 98.5319 91.8562 98.469C92.0059 97.8116 91.7134 97.3845 91.0842 97.2413C90.455 97.0981 89.8552 97.4397 89.5834 98.2458L91.7646 98.7423L91.7716 98.7439Z" fill="black"/>
<path d="M94.7661 101.515L94.8488 101.151L95.3382 101.262L95.3617 101.224L94.6883 99.886L94.6323 99.8733L93.4602 100.791L93.4646 100.836L93.954 100.947L93.8712 101.311L92.4101 100.978L92.4929 100.615L92.9823 100.726L94.5235 99.5763L93.6626 97.9312L93.1733 97.8198L93.2561 97.4561L94.7311 97.792L94.6484 98.1556L94.18 98.049L94.158 98.0808L94.8077 99.3615L94.8706 99.3758L95.9896 98.4977L95.9836 98.4596L95.5082 98.3514L95.591 97.9877L97.0312 98.3156L96.9484 98.6792L96.459 98.5678L94.9709 99.6782L95.8625 101.382L96.3519 101.493L96.2691 101.857L94.7661 101.515Z" fill="black"/>
<path d="M99.0547 102.314C98.7788 102.428 98.501 102.453 98.1725 102.378C97.6761 102.265 97.4122 101.874 97.538 101.322L98.0697 98.9861L98.0637 98.9479L97.4765 98.8142L97.5592 98.4506L98.1605 98.5874L98.3356 97.8181L98.7061 97.9025L98.531 98.6718L99.8313 98.9678L99.6786 99.3155L98.4482 99.0354L97.9228 101.343C97.8209 101.791 97.981 101.96 98.3375 102.041C98.5962 102.1 98.8991 102.029 99.1487 101.902L99.0547 102.314Z" fill="black"/>
<path d="M102.19 101.461C102.466 100.252 103.233 99.6246 104.331 99.8745C105.296 100.094 105.736 100.871 105.483 101.983C105.208 103.193 104.433 103.818 103.343 103.57C102.378 103.351 101.937 102.573 102.19 101.461ZM105.074 101.971C105.302 100.971 105.003 100.41 104.178 100.222C103.402 100.046 102.822 100.495 102.599 101.474C102.376 102.453 102.677 103.036 103.495 103.222C104.313 103.409 104.851 102.95 105.074 101.971Z" fill="black"/>
<path d="M105.756 104.017L105.839 103.653L106.391 103.779L106.414 103.74L107.034 101.019L107.028 100.981L106.385 100.835L106.467 100.471L107.495 100.705L107.31 101.516L107.338 101.523C107.919 100.912 108.258 100.776 108.622 100.859C109.09 100.965 109.294 101.394 109.172 101.933C109.125 102.135 109.085 102.215 108.869 102.165C108.687 102.124 108.655 102.036 108.679 101.931C108.695 101.861 108.74 101.761 108.765 101.649C108.81 101.453 108.754 101.279 108.482 101.217C108.188 101.15 107.771 101.4 107.163 102.13L106.776 103.83L106.781 103.875L107.333 104L107.25 104.364L105.74 104.02L105.756 104.017Z" fill="black"/>
<path d="M113.162 105.526C112.886 105.64 112.609 105.665 112.28 105.59C111.784 105.477 111.52 105.086 111.646 104.534L112.177 102.198L112.171 102.16L111.584 102.026L111.667 101.662L112.268 101.799L112.443 101.03L112.814 101.114L112.639 101.883L113.939 102.179L113.786 102.527L112.556 102.247L112.03 104.555C111.929 105.003 112.089 105.171 112.445 105.253C112.704 105.311 113.007 105.241 113.256 105.114L113.162 105.526Z" fill="black"/>
<path d="M116.529 106.469C116.235 106.402 116.076 106.197 116.13 105.863L116.081 105.852C115.704 106.119 115.264 106.277 114.725 106.154C114.187 106.032 113.848 105.55 113.977 104.983C114.132 104.305 114.879 103.931 116.503 104.161L116.535 104.021C116.672 103.419 116.524 103.033 115.881 102.886C115.35 102.765 115.01 102.901 114.945 103.188C114.93 103.251 114.93 103.317 114.919 103.366C114.897 103.464 114.832 103.523 114.657 103.483C114.44 103.434 114.431 103.343 114.46 103.218C114.61 102.56 115.207 102.358 115.983 102.534C116.857 102.733 117.087 103.308 116.926 104.014L116.494 105.91C116.472 106.007 116.526 106.093 116.624 106.116L117.022 106.206L116.94 106.57L116.52 106.474L116.529 106.469ZM116.443 104.456C115.106 104.321 114.517 104.518 114.394 105.056C114.313 105.413 114.502 105.713 114.901 105.804C115.299 105.895 115.826 105.713 116.207 105.462L116.436 104.454L116.443 104.456Z" fill="black"/>
<path d="M120.367 107.343L119.607 105.221L118.729 105.719L118.549 106.51L118.553 106.555L119.148 106.69L119.065 107.054L117.52 106.702L117.603 106.338L118.155 106.464L118.179 106.425L119.091 102.418L119.086 102.373L118.443 102.227L118.526 101.863L119.554 102.097L118.823 105.307L120.874 104.148L120.88 104.12L120.412 104.013L120.491 103.664L121.875 103.979L121.793 104.342L121.352 104.242L119.936 105.038L120.644 107.031L121.21 107.16L121.127 107.523L120.365 107.35L120.367 107.343Z" fill="black"/>
<path d="M124.555 107.973C124.184 108.146 123.756 108.217 123.253 108.103C122.253 107.875 121.784 107.092 122.037 105.98C122.315 104.763 123.095 104.146 124.15 104.386C124.996 104.579 125.353 105.271 125.186 106.005C125.14 106.208 125.056 106.446 124.962 106.668L122.424 106.09C122.242 107.019 122.588 107.569 123.405 107.755C123.797 107.844 124.227 107.765 124.652 107.546L124.556 107.966L124.555 107.973ZM124.699 106.24C124.722 106.172 124.769 106.028 124.784 105.965C124.933 105.308 124.641 104.881 124.012 104.737C123.382 104.594 122.783 104.936 122.511 105.742L124.692 106.238L124.699 106.24Z" fill="black"/>
<path d="M127.728 109.019L127.811 108.655L128.377 108.784L128.401 108.745L128.858 106.738C128.985 106.179 128.737 105.813 128.234 105.699C127.787 105.597 127.269 105.803 126.922 106.099L126.421 108.302L126.425 108.347L126.992 108.476L126.909 108.839L125.385 108.492L125.468 108.129L126.02 108.255L126.043 108.216L126.663 105.495L126.657 105.457L126.013 105.311L126.096 104.947L127.11 105.178L127.017 105.65L127.052 105.658C127.432 105.376 127.894 105.253 128.342 105.355C129.013 105.508 129.391 106.043 129.225 106.77L128.754 108.84L128.759 108.885L129.311 109.011L129.228 109.375L127.704 109.028L127.728 109.019Z" fill="black"/>
<path d="M132.377 108.334C132.653 107.124 133.42 106.497 134.518 106.747C135.483 106.966 135.923 107.743 135.67 108.855C135.395 110.065 134.62 110.691 133.529 110.442C132.565 110.223 132.124 109.446 132.377 108.334ZM135.261 108.843C135.489 107.843 135.19 107.282 134.365 107.094C133.589 106.918 133.009 107.367 132.786 108.346C132.563 109.325 132.864 109.908 133.682 110.095C134.5 110.281 135.038 109.822 135.261 108.843Z" fill="black"/>
<path d="M138.809 111.541L138.902 111.069L138.86 111.06C138.479 111.341 138.018 111.464 137.57 111.362C136.899 111.209 136.519 110.682 136.686 109.947L137.158 107.877L137.152 107.839L136.522 107.696L136.605 107.332L137.619 107.563L137.071 109.969C136.944 110.528 137.192 110.893 137.695 111.008C138.142 111.11 138.66 110.904 139.007 110.608L139.508 108.405L139.502 108.367L138.894 108.228L138.977 107.865L139.969 108.091L139.258 111.217L139.262 111.262L139.815 111.388L139.732 111.751L138.809 111.541Z" fill="black"/>
<path d="M142.489 112.203C142.213 112.316 141.936 112.341 141.607 112.267C141.111 112.154 140.847 111.762 140.973 111.21L141.504 108.874L141.498 108.836L140.911 108.702L140.994 108.339L141.595 108.475L141.77 107.706L142.141 107.791L141.966 108.56L143.266 108.856L143.113 109.204L141.883 108.923L141.358 111.231C141.256 111.679 141.416 111.848 141.772 111.929C142.031 111.988 142.334 111.917 142.583 111.79L142.489 112.203Z" fill="black"/>
<path d="M145.625 111.35C145.9 110.14 146.668 109.513 147.766 109.763C148.73 109.982 149.171 110.759 148.918 111.871C148.643 113.081 147.868 113.706 146.777 113.458C145.813 113.239 145.372 112.462 145.625 111.35ZM148.509 111.859C148.737 110.859 148.438 110.298 147.613 110.11C146.837 109.934 146.257 110.383 146.034 111.362C145.811 112.341 146.112 112.924 146.93 113.11C147.748 113.297 148.286 112.838 148.509 111.859Z" fill="black"/>
<path d="M149.128 113.89L149.21 113.527L149.763 113.652L149.786 113.614L150.405 110.893L150.399 110.855L149.812 110.721L149.895 110.358L150.496 110.494L150.573 110.159C150.78 109.25 151.212 108.87 151.939 109.035C152.54 109.172 152.793 109.546 152.667 110.099C152.643 110.204 152.599 110.304 152.382 110.254C152.207 110.215 152.167 110.132 152.189 110.034C152.197 109.999 152.226 109.939 152.243 109.862C152.297 109.625 152.182 109.451 151.868 109.38C151.385 109.27 151.118 109.474 150.935 110.278L150.865 110.586L152.005 110.845L151.852 111.193L150.782 110.949L150.153 113.712L150.158 113.757L150.871 113.919L150.788 114.283L149.117 113.903L149.128 113.89Z" fill="black"/>
<path d="M153.455 114.875L153.538 114.512L154.139 114.649L154.163 114.61L154.782 111.889L154.776 111.851L154.133 111.705L154.215 111.341L155.243 111.575L154.531 114.701L154.536 114.746L155.137 114.883L155.054 115.247L153.453 114.882L153.455 114.875ZM154.937 110.24C154.997 109.974 155.162 109.865 155.407 109.92C155.651 109.976 155.752 110.146 155.692 110.412C155.631 110.678 155.472 110.796 155.22 110.739C154.969 110.681 154.875 110.513 154.937 110.24Z" fill="black"/>
<path d="M157.702 115.666C157.426 115.779 157.148 115.804 156.819 115.73C156.323 115.617 156.059 115.226 156.185 114.673L156.717 112.337L156.711 112.299L156.123 112.165L156.206 111.802L156.807 111.939L156.983 111.169L157.353 111.254L157.178 112.023L158.478 112.319L158.326 112.667L157.095 112.387L156.57 114.694C156.468 115.142 156.628 115.311 156.985 115.392C157.243 115.451 157.546 115.38 157.796 115.253L157.702 115.666Z" fill="black"/>
</g>
<defs>
<clipPath id="clip0_29_2482">
<rect width="228" height="104" fill="white" transform="translate(23.0853) rotate(12.825)"/>
</clipPath>
</defs>
</svg>
