<svg width="171" height="194" viewBox="0 0 171 194" fill="none" xmlns="http://www.w3.org/2000/svg">
<g clip-path="url(#clip0_164_1948)">
<path d="M32.7293 124.245C23.563 103.648 20.4091 74.1748 31.5025 50.2202C42.1064 27.3354 65.4133 12.8962 93.3779 23.6673C133.745 39.2271 151.928 91.2954 144.015 127.063C139.572 147.13 122.598 177.474 87.9742 171.987C60.5447 167.64 40.7777 142.331 32.7293 124.245ZM37.5468 125.592C44.0134 139.991 56.4761 155.187 72.8382 163.86C110.437 183.8 135.821 153.544 140.92 125.404C146.85 92.7214 135.375 56.13 107.051 34.8564C79.1837 13.9259 46.2311 19.6365 32.6791 55.3332C23.7192 78.9434 28.4782 105.393 37.5537 125.59L37.5468 125.592Z" fill="black"/>
<path d="M91.0143 115.868C89.8569 118.095 89.9333 124.499 86.0142 125.221C78.7609 122.76 85.5871 120.08 85.1541 115.822L91.0212 115.865L91.0143 115.868Z" fill="#E0DFDE"/>
<path d="M79.8538 117.534C80.4248 116.385 83.4308 115.184 81.3722 113.175C82.7445 113.368 83.5699 113.124 84.5893 114.074C84.7767 114.251 84.7245 114.659 84.8716 114.948L79.8538 117.534Z" fill="#E0DFDE"/>
<path d="M73.8065 107.873C74.0246 108.715 74.2502 109.745 74.6558 110.503C72.6244 111.021 71.8558 108.641 73.8065 107.873Z" fill="#E0DFDE"/>
<path d="M75.2229 112.258C75.289 112.344 76.9815 113.551 77.1149 113.585L75.2229 112.258Z" fill="#E0DFDE"/>
<path d="M94.898 109.771C92.3944 110.986 92.5348 110.519 92.2479 110.627L94.898 109.771Z" fill="#E0DFDE"/>
<path d="M72.9572 105.244C72.9155 105.518 73.2126 105.797 73.2396 106.118L71.8011 106.1L72.9572 105.244Z" fill="#E0DFDE"/>
<path d="M73.9246 94.1982C67.2426 90.8022 89.0452 80.9555 91.729 86.1333C94.2928 91.0817 74.9526 94.7242 73.9246 94.1982Z" fill="#E0DFDE"/>
<path d="M29.6036 128.158C19.9587 106.957 15.5854 78.9507 25.4788 54.1272C32.157 37.3754 48.2925 17.3847 75.2 16.8905C142.336 15.6595 178.668 129.414 123.557 166.806C79.8896 196.433 39.3523 149.586 29.6036 128.158ZM32.7293 124.245C40.7778 142.33 60.5447 167.64 87.9743 171.987C122.598 177.474 139.572 147.13 144.015 127.063C151.935 91.2932 133.752 39.2248 93.378 23.6673C65.4134 12.8962 42.1064 27.3353 31.5025 50.2201C20.4022 74.177 23.5561 103.65 32.7293 124.245Z" fill="#F3EFE8"/>
<path d="M32.6789 55.3332C23.719 78.9434 28.4781 105.393 37.5536 125.59C44.0202 139.988 56.4829 155.185 72.845 163.858C110.444 183.798 135.828 153.542 140.927 125.402C146.857 92.7191 135.382 56.1278 107.058 34.8541C79.1836 13.9259 46.231 19.6365 32.6789 55.3332Z" fill="#F3EFE8"/>
<path d="M100.446 84.8496C98.7981 85.0832 97.0019 84.361 95.2044 83.0417C94.522 82.542 94.4482 81.5545 95.0348 80.9513C98.1515 77.7688 107.018 68.4541 107.96 64.8017C109.101 60.3651 106.768 61.1111 106.768 61.1111C106.768 61.1111 95.8388 69.376 92.7309 70.3799C90.608 71.0656 88.2707 71.5142 87.0006 71.7329C86.4279 71.8337 85.8564 71.5586 85.5706 71.0533C84.4002 68.9952 83.4365 67.0081 82.7604 65.3418C80.196 58.9686 74.7736 54.2541 73.5357 53.2443C73.3595 53.102 73.2366 52.9349 73.1532 52.7243C72.5174 51.1829 69.7535 44.4528 69.2135 42.7809C68.6039 40.8939 63.3314 43.3556 62.3455 44.9994C61.5984 46.2444 65.1094 51.2316 66.8559 53.5787C66.5668 54.4152 66.2285 55.0991 66.097 55.3561C66.0547 55.4387 66.0288 55.5007 66.0048 55.5927C65.7139 56.6367 63.8218 63.9897 65.5549 70.9915C67.4281 78.5456 68.3061 94.1897 62.6253 97.1663C58.5107 99.3228 48.3486 102.23 43.0741 103.666C41.856 103.998 41.6884 105.661 42.8128 106.225C46.3698 108.01 52.3533 110.406 56.8013 109.091C63.0132 107.261 76.1316 101.553 78.4286 85.3732C78.5938 84.2243 79.9813 83.7761 80.7873 84.6113C92.1045 96.3087 106.042 93.2775 112.144 91.1303C116.52 89.5941 119.971 84.1506 121.812 80.6219C122.398 79.4977 121.285 78.2562 120.103 78.6993C114.985 80.6206 105.04 84.2007 100.444 84.8657L100.446 84.8496Z" fill="#FACB2C"/>
<path d="M45.6412 133.527C45.5762 133.326 45.6261 133.172 45.7977 133.063L48.9985 130.757C49.1007 130.671 49.2162 130.649 49.3496 130.682C49.4853 130.723 49.5652 130.804 49.601 130.915L49.7812 131.378L49.7901 131.406C49.9161 131.748 50.1167 131.99 50.3829 132.126C50.649 132.262 50.9371 132.276 51.2562 132.173C51.5753 132.07 51.8006 131.89 51.9368 131.624C52.073 131.358 52.0783 131.042 51.9617 130.681C51.8699 130.397 51.699 130.176 51.4422 130.022C51.1924 129.865 50.8866 129.772 50.541 129.746C50.1955 129.719 49.7968 129.695 49.3613 129.675C48.9235 129.648 48.4694 129.641 48.0106 129.644C47.5517 129.646 47.0866 129.582 46.6105 129.46C46.1414 129.336 45.7048 129.17 45.3057 128.955C44.9088 128.746 44.5246 128.41 44.1715 127.957C43.8114 127.507 43.5285 126.939 43.3133 126.273C42.7486 124.525 42.8181 123.009 43.5147 121.726C44.2114 120.444 45.361 119.544 46.9566 119.029C48.469 118.54 49.8752 118.553 51.1731 119.061C52.4709 119.569 53.3885 120.559 53.9352 122.015C54.0074 122.191 53.9645 122.342 53.8065 122.47L50.5849 124.782C50.4827 124.869 50.3672 124.891 50.2338 124.858C50.0982 124.817 50.0182 124.736 49.9824 124.625L49.8022 124.162L49.7933 124.134C49.6812 123.787 49.4945 123.541 49.2283 123.405C48.9621 123.269 48.6741 123.255 48.3549 123.358C48.0358 123.461 47.8105 123.641 47.6674 123.909C47.5243 124.178 47.5121 124.496 47.6286 124.856C47.7317 125.175 47.937 125.408 48.256 125.565C48.575 125.723 48.9477 125.809 49.3924 125.834C49.8372 125.859 50.3074 125.868 50.8146 125.873C51.3217 125.877 51.847 125.915 52.3835 125.986C52.9201 126.058 53.4398 126.197 53.9336 126.397C54.4274 126.598 54.8808 126.934 55.2982 127.42C55.7133 127.899 56.0372 128.522 56.2792 129.271C56.8439 131.019 56.7745 132.536 56.0778 133.818C55.3812 135.1 54.2385 135.998 52.6568 136.509C51.0751 137.02 49.7105 136.993 48.4126 136.486C47.1147 135.978 46.1971 134.987 45.6504 133.532L45.6412 133.527Z" fill="black"/>
<path d="M54.0867 117.147C54.0553 117.05 54.0609 116.948 54.1125 116.847C54.1642 116.746 54.2362 116.685 54.3403 116.651L57.913 115.497C58.0102 115.466 58.1115 115.471 58.2125 115.523C58.3135 115.575 58.375 115.647 58.4087 115.751L62.411 128.141C62.449 128.259 62.5151 128.345 62.6138 128.39C62.7148 128.441 62.8231 128.444 62.9341 128.409L68.6505 126.562C68.7476 126.531 68.849 126.536 68.95 126.588C69.0509 126.64 69.1125 126.712 69.1461 126.816L70.3002 130.388C70.3316 130.486 70.326 130.587 70.2744 130.688C70.2227 130.789 70.1506 130.85 70.0466 130.884L59.9805 134.136C59.8834 134.167 59.782 134.161 59.681 134.11C59.5801 134.058 59.5185 133.986 59.4849 133.882L54.0797 117.149L54.0867 117.147Z" fill="black"/>
<path d="M66.2963 113.203C66.2649 113.106 66.2705 113.004 66.3221 112.903C66.3738 112.802 66.4459 112.741 66.5499 112.707L70.1226 111.553C70.2198 111.522 70.3212 111.527 70.4221 111.579C70.5231 111.631 70.5847 111.703 70.6183 111.807L76.0234 128.54C76.0548 128.637 76.0492 128.738 75.9975 128.839C75.9459 128.94 75.8738 129.002 75.7698 129.035L72.197 130.189C72.0999 130.221 71.9985 130.215 71.8976 130.164C71.7966 130.112 71.735 130.04 71.7014 129.936L66.2963 113.203Z" fill="black"/>
<path d="M72.6371 111.155C72.6057 111.058 72.6113 110.956 72.663 110.855C72.7146 110.754 72.7867 110.693 72.8907 110.659L77.9342 109.03C78.8846 108.723 79.7731 108.627 80.6019 108.75C81.4285 108.866 82.1496 109.177 82.7606 109.67C83.3715 110.162 83.9009 110.757 84.3394 111.45C84.7848 112.141 85.1486 112.936 85.4355 113.824C85.7223 114.712 85.8919 115.569 85.9349 116.39C85.978 117.211 85.8969 118.003 85.6962 118.758C85.4886 119.514 85.0835 120.181 84.4832 120.766C83.8807 121.344 83.1065 121.793 82.1561 122.1L81.4554 122.326C81.3375 122.364 81.2516 122.43 81.2068 122.529C81.1552 122.63 81.1474 122.724 81.181 122.829L82.3664 126.498C82.3978 126.596 82.3923 126.697 82.3406 126.798C82.2889 126.899 82.2169 126.96 82.1128 126.994L78.5401 128.148C78.443 128.179 78.3416 128.174 78.2406 128.122C78.1397 128.071 78.0781 127.999 78.0445 127.894L72.6394 111.162L72.6371 111.155ZM80.7647 117.769C80.9312 117.715 81.0771 117.645 81.1955 117.561C81.3138 117.476 81.3932 117.366 81.4314 117.224C81.4697 117.081 81.5007 116.964 81.5224 116.865C81.5441 116.766 81.5362 116.623 81.4895 116.431C81.4451 116.246 81.4164 116.11 81.3918 116.034L80.8629 114.397C80.836 114.313 80.7865 114.184 80.7052 114.003C80.6331 113.827 80.5536 113.7 80.4781 113.632C80.4027 113.565 80.3089 113.488 80.1989 113.408C80.0868 113.322 79.9581 113.279 79.8106 113.273C79.6631 113.267 79.5015 113.289 79.335 113.343L78.6343 113.569C78.5164 113.607 78.4305 113.673 78.3857 113.772C78.3341 113.873 78.3263 113.967 78.3599 114.071L79.5453 117.741C79.5767 117.838 79.6405 117.917 79.7415 117.969C79.8425 118.021 79.9508 118.024 80.0618 117.988L80.7625 117.762L80.7647 117.769Z" fill="black"/>
<path d="M84.8539 107.208C84.8225 107.111 84.8281 107.01 84.8798 106.909C84.9314 106.808 85.0035 106.746 85.1075 106.713L90.151 105.084C91.1014 104.777 91.9899 104.681 92.8187 104.804C93.6453 104.92 94.3664 105.231 94.9774 105.723C95.5883 106.216 96.1177 106.811 96.5562 107.504C97.0016 108.195 97.3654 108.989 97.6523 109.877C97.9391 110.765 98.1087 111.622 98.1517 112.443C98.1948 113.265 98.1136 114.057 97.913 114.811C97.7053 115.568 97.3003 116.235 96.7 116.82C96.0975 117.397 95.3233 117.847 94.3729 118.154L93.6722 118.38C93.5543 118.418 93.4684 118.484 93.4236 118.583C93.372 118.684 93.3642 118.778 93.3978 118.882L94.5832 122.552C94.6146 122.649 94.6091 122.751 94.5574 122.852C94.5057 122.953 94.4337 123.014 94.3296 123.048L90.7569 124.202C90.6598 124.233 90.5584 124.228 90.4574 124.176C90.3565 124.124 90.2949 124.052 90.2613 123.948L84.8562 107.215L84.8539 107.208ZM92.9745 113.825C93.141 113.771 93.2869 113.701 93.4053 113.617C93.5237 113.532 93.6031 113.422 93.6413 113.28C93.6795 113.137 93.7106 113.02 93.7322 112.921C93.7539 112.822 93.746 112.679 93.6994 112.487C93.655 112.302 93.6263 112.166 93.6017 112.09L93.0728 110.453C93.0459 110.369 92.9964 110.24 92.9151 110.059C92.8429 109.883 92.7634 109.756 92.688 109.688C92.6125 109.621 92.5187 109.544 92.4088 109.464C92.2966 109.378 92.1679 109.335 92.0204 109.329C91.8729 109.323 91.7113 109.345 91.5448 109.399L90.8442 109.625C90.7262 109.663 90.6403 109.729 90.5956 109.828C90.5439 109.929 90.5361 110.023 90.5698 110.127L91.7552 113.797C91.7866 113.894 91.8504 113.973 91.9513 114.025C92.0523 114.077 92.1606 114.08 92.2716 114.044L92.9723 113.818L92.9745 113.825Z" fill="black"/>
<path d="M97.0636 103.264C97.0323 103.167 97.0378 103.066 97.0895 102.965C97.1411 102.864 97.2132 102.802 97.3172 102.769L107.383 99.5172C107.48 99.4858 107.582 99.4914 107.683 99.543C107.784 99.5947 107.845 99.6667 107.879 99.7708L109.033 103.344C109.064 103.441 109.059 103.542 109.007 103.643C108.956 103.744 108.884 103.806 108.779 103.839L103.063 105.686C102.945 105.724 102.859 105.79 102.814 105.889C102.763 105.99 102.755 106.084 102.789 106.188L103.273 107.686C103.304 107.784 103.368 107.863 103.469 107.914C103.57 107.966 103.678 107.969 103.789 107.933L108.187 106.513C108.285 106.481 108.386 106.487 108.487 106.538C108.588 106.59 108.654 106.676 108.69 106.787L109.835 110.332C109.873 110.45 109.87 110.558 109.816 110.652C109.764 110.753 109.692 110.815 109.588 110.848L105.19 112.269C105.072 112.307 104.986 112.373 104.941 112.472C104.889 112.573 104.882 112.668 104.915 112.772L105.39 114.242C105.428 114.36 105.495 114.446 105.593 114.491C105.694 114.543 105.803 114.546 105.914 114.51L111.63 112.663C111.727 112.632 111.828 112.638 111.929 112.689C112.03 112.741 112.092 112.813 112.126 112.917L113.28 116.49C113.311 116.587 113.305 116.688 113.254 116.789C113.202 116.89 113.13 116.952 113.026 116.985L102.96 120.237C102.863 120.268 102.761 120.263 102.66 120.211C102.559 120.16 102.498 120.087 102.464 119.983L97.0592 103.251L97.0636 103.264Z" fill="black"/>
<path d="M118.831 110.552C118.703 110.394 118.547 110.337 118.367 110.395C118.249 110.433 118.163 110.499 118.118 110.598C118.067 110.699 118.059 110.794 118.092 110.898L119.278 114.568C119.309 114.665 119.304 114.766 119.252 114.867C119.2 114.968 119.128 115.03 119.024 115.063L115.451 116.217C115.354 116.249 115.253 116.243 115.152 116.191C115.051 116.14 114.989 116.068 114.956 115.964L109.551 99.2307C109.519 99.1336 109.525 99.0322 109.577 98.9312C109.628 98.8303 109.7 98.7687 109.804 98.7351L114.848 97.1059C115.798 96.7989 116.687 96.7034 117.516 96.8264C118.342 96.9425 119.063 97.2535 119.674 97.7457C120.285 98.2378 120.814 98.8329 121.253 99.5264C121.698 100.218 122.064 101.019 122.354 101.914C123.068 104.127 123.067 105.996 122.341 107.518C122.275 107.647 122.287 107.78 122.385 107.917L125.573 112.404C125.651 112.524 125.668 112.649 125.623 112.771C125.578 112.892 125.492 112.982 125.36 113.024L121.739 114.194C121.559 114.252 121.411 114.2 121.302 114.028L118.831 110.552ZM117.671 105.847C117.838 105.793 117.984 105.723 118.102 105.639C118.22 105.555 118.3 105.445 118.338 105.302C118.376 105.16 118.407 105.042 118.429 104.943C118.451 104.844 118.443 104.701 118.396 104.51C118.352 104.325 118.323 104.188 118.298 104.112L117.77 102.475C117.743 102.392 117.693 102.262 117.612 102.082C117.54 101.906 117.46 101.778 117.385 101.711C117.309 101.643 117.215 101.566 117.106 101.487C116.993 101.4 116.865 101.358 116.717 101.352C116.57 101.346 116.408 101.367 116.242 101.421L115.541 101.647C115.423 101.685 115.337 101.751 115.292 101.85C115.241 101.951 115.233 102.046 115.267 102.15L116.452 105.819C116.483 105.917 116.547 105.996 116.648 106.047C116.749 106.099 116.857 106.102 116.968 106.066L117.669 105.84L117.671 105.847Z" fill="black"/>
<path d="M126.872 103.427C126.856 103.378 126.836 103.339 126.804 103.311C123.635 99.2396 121.681 96.6992 120.948 95.6872C120.861 95.5849 120.839 95.4695 120.886 95.3316C120.934 95.1937 121.015 95.1137 121.133 95.0756L124.852 93.8745C124.949 93.8431 125.05 93.8487 125.147 93.8865C125.243 93.9243 125.307 94.0032 125.338 94.1004L127.793 99.8962C127.846 100.063 127.97 100.115 128.158 100.054C128.345 99.9935 128.415 99.8789 128.361 99.7124L126.934 93.585C126.916 93.4834 126.938 93.3844 126.992 93.2904C127.046 93.1964 127.12 93.1417 127.224 93.1081L130.894 91.9227C131.026 91.8801 131.148 91.902 131.258 91.9814C131.368 92.0608 131.427 92.172 131.43 92.3011L131.143 101.825C131.143 101.825 131.14 101.91 131.156 101.959L133.721 109.902C133.753 109.999 133.747 110.1 133.696 110.201C133.644 110.302 133.572 110.364 133.468 110.398L129.895 111.552C129.798 111.583 129.697 111.577 129.596 111.526C129.495 111.474 129.433 111.402 129.399 111.298L126.858 103.431L126.872 103.427Z" fill="black"/>
<path d="M67.1754 149.555C67.1104 149.354 67.1603 149.2 67.3319 149.091L70.5326 146.785C70.6349 146.698 70.7504 146.676 70.8838 146.71C71.0194 146.75 71.0994 146.832 71.1352 146.943L71.3154 147.406L71.3243 147.433C71.4502 147.776 71.6509 148.017 71.917 148.154C72.1832 148.29 72.4713 148.304 72.7904 148.201C73.1095 148.098 73.3348 147.918 73.471 147.652C73.6072 147.385 73.6124 147.07 73.4959 146.709C73.404 146.424 73.2332 146.204 72.9764 146.049C72.7266 145.892 72.4208 145.8 72.0752 145.773C71.7296 145.747 71.331 145.723 70.8955 145.703C70.4577 145.675 70.0035 145.669 69.5447 145.672C69.0859 145.674 68.6208 145.61 68.1447 145.488C67.6755 145.364 67.239 145.198 66.8399 144.982C66.443 144.773 66.0588 144.438 65.7056 143.985C65.3456 143.534 65.0627 142.967 64.8475 142.301C64.2828 140.553 64.3523 139.036 65.0489 137.754C65.7456 136.472 66.8952 135.572 68.4908 135.056C70.0031 134.568 71.4094 134.581 72.7072 135.089C74.0051 135.596 74.9227 136.587 75.4694 138.042C75.5415 138.218 75.4986 138.37 75.3407 138.498L72.1191 140.81C72.0169 140.897 71.9014 140.919 71.768 140.885C71.6323 140.845 71.5524 140.763 71.5165 140.652L71.3364 140.19L71.3274 140.162C71.2154 139.815 71.0286 139.569 70.7625 139.433C70.4963 139.296 70.2082 139.282 69.8891 139.385C69.57 139.488 69.3447 139.668 69.2016 139.937C69.0584 140.205 69.0462 140.523 69.1628 140.884C69.2659 141.203 69.4712 141.436 69.7902 141.593C70.1092 141.75 70.4819 141.837 70.9266 141.862C71.3713 141.887 71.8416 141.896 72.3487 141.9C72.8559 141.905 73.3812 141.942 73.9177 142.014C74.4542 142.086 74.974 142.225 75.4678 142.425C75.9616 142.626 76.415 142.962 76.8324 143.448C77.2475 143.926 77.5714 144.55 77.8134 145.299C78.3781 147.047 78.3087 148.563 77.612 149.846C76.9153 151.128 75.7727 152.026 74.191 152.537C72.6092 153.048 71.2446 153.021 69.9468 152.513C68.6489 152.006 67.7313 151.015 67.1846 149.56L67.1754 149.555Z" fill="black"/>
<path d="M75.6138 133.177C75.5824 133.08 75.588 132.978 75.6396 132.877C75.6913 132.776 75.7633 132.715 75.8674 132.681L79.4401 131.527C79.5373 131.496 79.6386 131.501 79.7396 131.553C79.8406 131.605 79.9021 131.677 79.9358 131.781L83.9381 144.171C83.9762 144.289 84.0422 144.375 84.1409 144.419C84.2419 144.471 84.3502 144.474 84.4612 144.439L90.1776 142.592C90.2747 142.561 90.3761 142.566 90.4771 142.618C90.578 142.67 90.6396 142.742 90.6732 142.846L91.8273 146.418C91.8587 146.515 91.8531 146.617 91.8015 146.718C91.7498 146.819 91.6778 146.88 91.5737 146.914L81.5076 150.166C81.4105 150.197 81.3091 150.191 81.2081 150.14C81.1072 150.088 81.0456 150.016 81.012 149.912L75.6069 133.179L75.6138 133.177Z" fill="black"/>
<path d="M90.6689 139.085C90.5522 138.748 90.3951 138.285 90.2069 137.702C90.0186 137.12 89.8685 136.655 89.7726 136.31C89.6697 135.968 89.5448 135.511 89.4003 134.944C89.2557 134.378 89.1516 133.914 89.1043 133.554C89.05 133.196 89.0171 132.762 88.9896 132.25C88.9643 131.745 88.9937 131.314 89.0869 130.962C89.1731 130.613 89.3035 130.233 89.4756 129.818C89.6478 129.402 89.8793 129.051 90.1657 128.752C90.4543 128.46 90.8212 128.173 91.2687 127.898C91.7163 127.623 92.2256 127.397 92.8083 127.209C93.3911 127.021 93.9362 126.906 94.453 126.869C94.9628 126.835 95.4261 126.846 95.8335 126.921C96.2386 126.99 96.6337 127.145 97.0166 127.382C97.3994 127.618 97.7269 127.85 98.0014 128.083C98.2759 128.316 98.5587 128.646 98.8337 129.07C99.1087 129.495 99.3358 129.866 99.5103 130.192C99.6895 130.51 99.8837 130.945 100.098 131.489C100.312 132.033 100.471 132.479 100.581 132.819L101.477 135.594C101.587 135.934 101.719 136.389 101.864 136.956C102.008 137.522 102.105 137.988 102.146 138.351C102.186 138.713 102.226 139.145 102.253 139.657C102.281 140.169 102.249 140.593 102.156 140.944C102.07 141.294 101.939 141.673 101.767 142.089C101.595 142.505 101.364 142.855 101.077 143.155C100.789 143.447 100.422 143.734 99.9881 144.004C99.5544 144.275 99.0382 144.503 98.4554 144.691C97.8727 144.879 97.3206 144.996 96.8038 145.033C96.2801 145.072 95.8168 145.061 95.4094 144.985C95.0043 144.917 94.6092 144.761 94.2264 144.525C93.8436 144.288 93.5161 144.057 93.2416 143.824C92.9671 143.591 92.6843 143.261 92.4092 142.836C92.1342 142.412 91.9118 142.032 91.7373 141.705C91.5698 141.376 91.3756 140.941 91.1639 140.404C90.9521 139.867 90.7879 139.43 90.6689 139.085ZM97.0547 140.378C97.2212 140.324 97.3536 140.213 97.4451 140.045C97.5365 139.878 97.5801 139.657 97.5757 139.383C97.5714 139.108 97.5554 138.845 97.53 138.601C97.5046 138.356 97.4429 138.046 97.3403 137.681C97.2376 137.316 97.1641 137.041 97.1014 136.847L96.3708 134.585C96.2946 134.349 96.1777 134.035 96.0246 133.632C95.8716 133.229 95.7338 132.921 95.616 132.699C95.4982 132.477 95.3643 132.252 95.2051 132.02C95.0458 131.788 94.8813 131.634 94.7114 131.559C94.5415 131.483 94.3709 131.477 94.1905 131.535C94.0102 131.594 93.8824 131.696 93.7956 131.854C93.7089 132.013 93.6653 132.234 93.665 132.517C93.6646 132.801 93.6829 133.071 93.7152 133.313C93.7498 133.562 93.8251 133.89 93.9365 134.307C94.0548 134.72 94.144 135.044 94.2133 135.282C94.2826 135.52 94.3854 135.862 94.5311 136.313L94.8134 137.187C94.8627 137.34 94.9277 137.541 95.0245 137.793C95.1144 138.048 95.2022 138.272 95.2811 138.469C95.3599 138.666 95.4594 138.879 95.5703 139.103C95.6834 139.335 95.7922 139.53 95.8968 139.687C96.0014 139.845 96.1176 139.991 96.241 140.112C96.3666 140.24 96.4996 140.32 96.6375 140.367C96.7823 140.413 96.9206 140.414 97.0524 140.371L97.0547 140.378Z" fill="black"/>
<path d="M100.019 125.293C99.9881 125.196 99.9936 125.095 100.045 124.994C100.097 124.893 100.169 124.831 100.273 124.798L105.317 123.168C106.267 122.861 107.155 122.766 107.984 122.889C108.811 123.005 109.532 123.316 110.143 123.808C110.754 124.3 111.283 124.896 111.722 125.589C112.167 126.28 112.531 127.074 112.818 127.962C113.105 128.85 113.274 129.707 113.317 130.528C113.36 131.349 113.279 132.142 113.078 132.896C112.871 133.653 112.466 134.32 111.866 134.904C111.263 135.482 110.489 135.931 109.538 136.238L108.838 136.465C108.72 136.503 108.634 136.569 108.589 136.668C108.538 136.769 108.53 136.863 108.563 136.967L109.749 140.637C109.78 140.734 109.775 140.836 109.723 140.936C109.671 141.037 109.599 141.099 109.495 141.133L105.922 142.287C105.825 142.318 105.724 142.313 105.623 142.261C105.522 142.209 105.46 142.137 105.427 142.033L100.022 125.3L100.019 125.293ZM108.14 131.91C108.307 131.856 108.452 131.786 108.571 131.701C108.689 131.617 108.769 131.507 108.807 131.365C108.845 131.222 108.876 131.105 108.898 131.006C108.919 130.907 108.912 130.764 108.865 130.572C108.821 130.387 108.792 130.251 108.767 130.175L108.238 128.538C108.211 128.454 108.162 128.325 108.081 128.144C108.008 127.968 107.929 127.841 107.854 127.773C107.778 127.706 107.684 127.629 107.574 127.549C107.462 127.463 107.333 127.42 107.186 127.414C107.038 127.408 106.877 127.43 106.71 127.484L106.01 127.71C105.892 127.748 105.806 127.814 105.761 127.913C105.709 128.014 105.702 128.108 105.735 128.212L106.921 131.882C106.952 131.979 107.016 132.058 107.117 132.11C107.218 132.161 107.326 132.165 107.437 132.129L108.138 131.903L108.14 131.91Z" fill="black"/>
<path d="M112.229 121.349C112.198 121.252 112.203 121.151 112.255 121.05C112.307 120.949 112.379 120.887 112.483 120.854L122.549 117.602C122.646 117.571 122.747 117.576 122.848 117.628C122.949 117.68 123.011 117.752 123.045 117.856L124.199 121.428C124.23 121.525 124.224 121.627 124.173 121.728C124.121 121.829 124.049 121.89 123.945 121.924L118.229 123.771C118.111 123.809 118.025 123.875 117.98 123.973C117.928 124.074 117.921 124.169 117.954 124.273L118.438 125.771C118.47 125.868 118.533 125.947 118.634 125.999C118.735 126.051 118.844 126.054 118.955 126.018L123.353 124.597C123.45 124.566 123.551 124.572 123.652 124.623C123.753 124.675 123.819 124.761 123.855 124.872L125 128.417C125.038 128.535 125.035 128.643 124.981 128.737C124.93 128.838 124.858 128.9 124.754 128.933L120.355 130.354C120.237 130.392 120.151 130.458 120.107 130.557C120.055 130.658 120.047 130.752 120.081 130.856L120.556 132.327C120.594 132.445 120.66 132.531 120.759 132.576C120.86 132.627 120.968 132.631 121.079 132.595L126.795 130.748C126.893 130.717 126.994 130.722 127.095 130.774C127.196 130.826 127.257 130.898 127.291 131.002L128.445 134.575C128.477 134.672 128.471 134.773 128.419 134.874C128.368 134.975 128.296 135.037 128.192 135.07L118.125 138.322C118.028 138.353 117.927 138.348 117.826 138.296C117.725 138.244 117.663 138.172 117.63 138.068L112.225 121.335L112.229 121.349Z" fill="black"/>
<path d="M92.8825 164.319L92.939 163.948L93.6342 164.061L93.653 164.024L94.2885 159.896L94.2751 159.855L93.5798 159.742L93.6363 159.371L97.451 159.963L97.2229 161.438L96.965 161.399L96.9364 160.267L94.7194 159.926L94.4274 161.82L95.6936 162.017L95.933 161.311L96.2322 161.36L95.8053 163.145L95.4991 163.098L95.614 162.387L94.3801 162.196L94.076 164.148L96.3022 164.494L96.8123 163.44L97.0702 163.479L96.6578 164.93L92.8753 164.344L92.8825 164.319Z" fill="black"/>
<path d="M100.613 165.032L100.612 164.649L101.209 164.648L101.226 164.604L101.208 162.51C101.202 161.923 100.875 161.622 100.347 161.624C99.8817 161.629 99.4199 161.954 99.1398 162.321L99.153 164.615L99.1665 164.656L99.7614 164.648L99.7624 165.031L98.1716 165.039L98.1728 164.663L98.7468 164.662L98.7634 164.618L98.7414 161.775L98.728 161.733L98.0478 161.739L98.049 161.363L99.105 161.359L99.1257 161.85L99.1649 161.853C99.4772 161.491 99.906 161.253 100.372 161.248C101.068 161.246 101.569 161.682 101.578 162.445L101.592 164.601L101.606 164.642L102.187 164.638L102.186 165.014L100.597 165.029L100.613 165.032Z" fill="black"/>
<path d="M106.178 164.33L106.074 163.888L106.039 163.9C105.756 164.328 105.376 164.597 104.972 164.673C104.008 164.87 103.308 164.314 103.074 163.164C102.816 161.891 103.295 161.047 104.302 160.845C104.727 160.761 105.12 160.818 105.469 161.019L105.511 161.006L105.273 159.819L105.245 159.781L104.585 159.918L104.512 159.551L105.563 159.342L106.473 163.844L106.501 163.881L107.069 163.766L107.141 164.133L106.199 164.323L106.178 164.33ZM105.58 161.458C105.236 161.225 104.797 161.144 104.423 161.219C103.603 161.385 103.244 161.983 103.456 163.041C103.654 164.034 104.16 164.461 104.922 164.306C105.317 164.225 105.709 163.945 105.986 163.473L105.58 161.458Z" fill="black"/>
<path d="M109.702 160.319L109.275 159.805C109.047 159.81 108.779 159.881 108.466 160.005C107.858 160.255 107.677 160.597 107.824 160.956C107.986 161.363 108.352 161.383 109.075 161.203C109.891 161.001 110.386 161.132 110.625 161.706C110.884 162.342 110.54 162.913 109.665 163.265C109.313 163.409 108.888 163.493 108.542 163.512L108.046 162.616L108.33 162.501L108.768 163.072C109.049 163.065 109.31 162.996 109.574 162.888C110.183 162.638 110.439 162.294 110.266 161.875C110.115 161.503 109.839 161.408 109.012 161.599C108.206 161.783 107.731 161.76 107.474 161.13C107.221 160.515 107.51 159.985 108.375 159.628C108.639 159.52 108.914 159.447 109.182 159.422L109.44 159.154L109.963 160.203L109.692 160.314L109.702 160.319Z" fill="black"/>
<path d="M114.812 160.652L112.187 156.796L112.148 156.77L111.589 157.15L111.373 156.837L112.257 156.229L113.251 157.693L113.288 157.666C113.376 157.155 113.631 156.782 113.97 156.55C114.786 155.995 115.644 156.231 116.301 157.198C117.027 158.259 116.94 159.222 116.053 159.822C115.777 160.011 115.34 160.152 114.975 160.186L114.794 160.643L114.812 160.652ZM114.743 159.87C115.131 159.837 115.549 159.732 115.818 159.546C116.528 159.063 116.62 158.375 116.01 157.484C115.442 156.649 114.81 156.447 114.169 156.883C113.837 157.113 113.587 157.524 113.51 158.069L114.736 159.872L114.743 159.87Z" fill="black"/>
<path d="M115.36 154.093C115.182 153.875 115.195 153.679 115.388 153.517C115.593 153.344 115.779 153.376 115.964 153.592C116.151 153.815 116.144 154.008 115.938 154.175C115.738 154.339 115.547 154.316 115.36 154.093ZM118.181 158.154L117.941 157.864L118.425 157.463L118.411 157.421L116.594 155.235L116.557 155.216L116.037 155.644L115.797 155.354L116.625 154.665L118.706 157.172L118.743 157.191L119.226 156.79L119.466 157.08L118.185 158.145L118.181 158.154Z" fill="black"/>
<path d="M121.523 155.006C122.215 154.468 122.657 154.486 123.057 154.894C123.507 155.361 123.391 156.211 122.579 156.994C121.832 157.718 121.218 157.832 120.77 157.371C120.519 157.116 120.407 156.7 120.571 156.21L120.548 156.187C120.298 156.267 120.064 156.205 119.904 156.042C119.733 155.868 119.647 155.627 119.752 155.287L119.729 155.264C119.32 155.373 118.897 155.226 118.529 154.847C117.897 154.193 117.872 153.427 118.553 152.763C118.716 152.603 118.888 152.494 119.055 152.417L120.057 151.442L120.269 151.764L119.541 152.429C119.869 152.399 120.209 152.527 120.496 152.825C121.085 153.439 121.088 154.181 120.406 154.846C120.278 154.971 120.141 155.069 120.011 155.142C119.924 155.369 119.975 155.552 120.092 155.675C120.24 155.826 120.473 155.813 120.687 155.644L121.514 155.001L121.523 155.006ZM120.208 153.117C119.749 152.645 119.235 152.642 118.779 153.081C118.33 153.517 118.334 154.052 118.804 154.536C119.286 155.031 119.743 155.022 120.215 154.563C120.671 154.124 120.678 153.601 120.208 153.117ZM120.992 157.016C121.291 157.326 121.746 157.286 122.314 156.743C122.991 156.087 123.088 155.512 122.782 155.205C122.561 154.97 122.284 154.967 121.936 155.217C121.53 155.502 121.158 155.821 120.879 156.026C120.7 156.513 120.798 156.818 120.992 157.016Z" fill="black"/>
<path d="M47.0949 44.2488L47.3067 44.0271C47.3067 44.0271 48.1923 44.4919 48.2038 44.5035C48.4378 44.3743 48.7605 44.1398 48.9956 43.8953C49.673 43.1938 49.7643 42.5514 49.3073 42.1091C48.8047 41.6203 48.3737 41.8514 47.5084 42.4221C46.7313 42.9336 46.0273 43.2682 45.3693 42.6304C44.7569 42.0391 44.8381 41.2468 45.6831 40.3762C45.9858 40.0563 46.2992 39.8171 46.6076 39.6332L46.7612 39.2312L47.8305 40.2648L47.6234 40.4773L46.8071 39.9902C46.5268 40.142 46.2274 40.3536 45.9155 40.6689C45.2846 41.3247 45.1989 41.8657 45.6308 42.2778C46.1198 42.748 46.5622 42.5285 47.4089 41.9716C48.2811 41.3987 48.9177 41.1164 49.5735 41.7473C50.2293 42.3782 50.1337 43.2442 49.2397 44.1765C48.9533 44.4759 48.5262 44.7901 48.0974 45.0282L47.0951 44.2257L47.0949 44.2488Z" fill="black"/>
<path d="M52.6293 40.6299C52.5573 40.929 52.4144 41.1743 52.1634 41.3933C51.7683 41.7355 51.2958 41.7196 50.9171 41.2826L49.3065 39.4509L49.2698 39.4321L48.8096 39.8336L48.5586 39.5546L49.0304 39.1417L48.4989 38.5396L48.7848 38.2864L49.3164 38.8884L50.3299 37.9941L50.5274 38.321L49.5674 39.1674L51.1552 40.9759C51.4608 41.3292 51.7032 41.2968 51.9775 41.055C52.1797 40.8748 52.3023 40.59 52.3418 40.3091L52.6293 40.6299Z" fill="black"/>
<path d="M55.4627 38.6805C55.2143 38.8603 54.9493 38.8464 54.735 38.5861L54.6979 38.6135C54.6589 39.0857 54.4865 39.5245 54.0361 39.8615C53.5857 40.1985 52.9914 40.1377 52.6385 39.6617C52.2173 39.093 52.4256 38.2672 53.6693 37.1606L53.5851 37.0423C53.2093 36.5431 52.8165 36.3942 52.2732 36.7995C51.8275 37.1274 51.7113 37.479 51.8911 37.7274C51.9298 37.7762 51.9825 37.8205 52.012 37.8645C52.0758 37.9435 52.0819 38.0335 51.9333 38.1428C51.7546 38.2771 51.6767 38.2257 51.5969 38.1212C51.1894 37.571 51.4277 36.9807 52.0755 36.4957C52.8114 35.9515 53.4066 36.1576 53.8415 36.745L55.0187 38.326C55.0825 38.4049 55.1815 38.4266 55.2674 38.3605L55.6017 38.1147L55.8294 38.4165L55.4765 38.676L55.4627 38.6805ZM53.8514 37.4159C52.8627 38.3635 52.6291 38.9446 52.9661 39.395C53.1846 39.6922 53.5461 39.744 53.8804 39.4981C54.2147 39.2522 54.4271 38.7239 54.4775 38.2633L53.8514 37.4159Z" fill="black"/>
<path d="M56.2398 38.1459L56.0445 37.826L56.5383 37.5285L56.5249 37.4869L55.0581 35.0571L55.0261 35.0291L54.4488 35.3765L54.2535 35.0565L55.1763 34.498L55.6146 35.2144L55.6423 35.2055C55.6389 34.3409 55.7896 34.0011 56.1095 33.8058C56.5269 33.5561 56.9795 33.724 57.2724 34.2039C57.3837 34.3825 57.4037 34.468 57.2113 34.5838C57.0443 34.6836 56.9617 34.6414 56.9073 34.544C56.871 34.4791 56.8305 34.3773 56.776 34.28C56.6739 34.1061 56.5087 34.0216 56.2652 34.1692C56.0032 34.3304 55.8743 34.8088 55.9483 35.7732L56.8679 37.2918L56.8999 37.3198L57.3937 37.0224L57.589 37.3423L56.2442 38.1598L56.2398 38.1459Z" fill="black"/>
<path d="M61.2078 35.2158C61.0646 35.4842 60.853 35.6828 60.5565 35.8322C60.0863 36.0607 59.6335 35.9158 59.3824 35.3994L58.3146 33.2084L58.2826 33.1805L57.7337 33.4497L57.5708 33.1116L58.1336 32.8379L57.7783 32.1175L58.1212 31.9455L58.4764 32.6658L59.6946 32.0731L59.7995 32.4453L58.6484 33.0087L59.7073 35.1718C59.9109 35.5887 60.1526 35.6256 60.4838 35.465C60.7293 35.3474 60.9253 35.1002 61.0315 34.836L61.2192 35.2274L61.2078 35.2158Z" fill="black"/>
<path d="M63.3705 31.7362L62.9627 31.2091C62.7322 31.2069 62.4618 31.2713 62.145 31.3813C61.5296 31.6107 61.3397 31.9479 61.4746 32.318C61.6298 32.7275 61.9915 32.7562 62.7146 32.5993C63.5393 32.4248 64.0291 32.5654 64.2426 33.1553C64.4832 33.8054 64.1231 34.3507 63.2347 34.6837C62.8784 34.8141 62.4581 34.8886 62.1077 34.8945L61.6435 33.9795L61.9304 33.8715L62.3514 34.4634C62.635 34.4637 62.8915 34.4038 63.1667 34.3073C63.7821 34.0778 64.0481 33.7391 63.8953 33.3134C63.7582 32.9364 63.4871 32.8324 62.651 32.9952C61.8357 33.1513 61.3634 33.1124 61.1295 32.4831C60.8978 31.8607 61.2025 31.3333 62.0792 31.0118C62.3523 30.9083 62.6226 30.8439 62.8948 30.8326L63.1554 30.5722L63.6457 31.6396L63.3727 31.7431L63.3705 31.7362Z" fill="black"/>
<path d="M69.3394 30.2447L69.0198 29.6585C68.7942 29.6241 68.5151 29.6376 68.1825 29.6991C67.5335 29.8245 67.2933 30.1242 67.3657 30.5145C67.4516 30.9465 67.8012 31.0327 68.5485 30.9982C69.3927 30.9553 69.8494 31.1832 69.9705 31.7953C70.1049 32.4721 69.6577 32.9613 68.7269 33.1393C68.3596 33.212 67.9239 33.2149 67.5785 33.1655L67.2625 32.1874L67.5651 32.1279L67.8888 32.7742C68.165 32.8229 68.4349 32.8046 68.7167 32.7519C69.3657 32.6266 69.6843 32.3321 69.5939 31.8863C69.5192 31.4891 69.2669 31.3484 68.416 31.3704C67.5881 31.3927 67.1212 31.2754 66.9935 30.6194C66.8659 29.9635 67.2507 29.4944 68.1745 29.3186C68.4563 29.2659 68.7401 29.2432 69.0096 29.271L69.3089 29.0594L69.6212 30.192L69.3394 30.2447Z" fill="black"/>
<path d="M75.3561 32.2927L75.3343 31.9167L75.8902 31.8827L75.8998 31.8413L75.7694 29.7536C75.7333 29.1677 75.4709 28.877 74.9541 28.9137C74.4882 28.9417 74.1436 29.2981 73.8842 29.6807L74.0312 31.9622L74.0447 32.0038L74.6284 31.9609L74.6502 32.3369L73.1046 32.4377L73.0827 32.0617L73.6387 32.0277L73.6483 31.9863L73.5179 29.8986C73.4818 29.3127 73.2194 29.0221 72.7026 29.0588C72.2366 29.0867 71.8899 29.4362 71.6373 29.8166L71.7866 32.105L71.8001 32.1466L72.356 32.1126L72.3779 32.4886L70.8323 32.5895L70.8104 32.2135L71.3894 32.1797L71.399 32.1383L71.2179 29.3008L71.2045 29.2592L70.5286 29.3013L70.5067 28.9253L71.5656 28.8591L71.6163 29.3484L71.651 29.3372C71.945 28.9664 72.367 28.7075 72.7407 28.6787C73.2506 28.6443 73.622 28.869 73.7909 29.2971L73.8256 29.2859C74.1455 28.8532 74.5655 28.5643 74.9923 28.5337C75.6912 28.4918 76.1092 28.9083 76.1621 29.665L76.2989 31.8196L76.3123 31.8613L76.896 31.8183L76.9179 32.1943L75.3722 32.2952L75.3561 32.2927Z" fill="black"/>
<path d="M80.2611 32.4168C79.9569 32.4001 79.7556 32.2276 79.7588 31.8818L79.7127 31.8814C79.3845 32.2173 78.9697 32.4509 78.4097 32.4249C77.8497 32.3989 77.4294 31.9754 77.4533 31.3854C77.4853 30.678 78.1724 30.1725 79.8376 30.1096L79.8436 29.9621C79.8724 29.3399 79.6545 28.9736 78.9839 28.9374C78.4309 28.9092 78.1178 29.1023 78.1034 29.4134C78.1005 29.4756 78.1137 29.5403 78.1086 29.5956C78.1031 29.697 78.0494 29.7679 77.8697 29.757C77.6438 29.7457 77.6147 29.6555 77.6205 29.5311C77.6522 28.8466 78.2129 28.5429 79.0218 28.5804C79.9321 28.6235 80.266 29.1592 80.2269 29.8919L80.1371 31.8669C80.1315 31.9683 80.1953 32.0473 80.3037 32.0506L80.7231 32.0683L80.7058 32.4417L80.2633 32.4237L80.2611 32.4168ZM79.8162 30.423C78.455 30.5256 77.9012 30.8271 77.8775 31.394C77.8579 31.7604 78.1067 32.0325 78.5192 32.0524C78.9317 32.0724 79.4322 31.7958 79.7672 31.4808L79.8185 30.4299L79.8162 30.423Z" fill="black"/>
<path d="M81.2171 32.5064L81.2575 32.1333L81.8287 32.1939L81.8475 32.1572L82.2896 27.9999L82.2762 27.9583L81.6083 27.8829L81.6487 27.5098L82.7197 27.6235L82.2345 32.1931L82.2479 32.2347L82.8191 32.2954L82.7788 32.6685L81.2149 32.4994L81.2171 32.5064Z" fill="black"/>
<path d="M83.3636 32.7477L83.4201 32.377L83.991 32.4607L84.0098 32.424L84.6131 28.2912L84.5997 28.2496L83.939 28.1489L83.9954 27.7783L85.0568 27.9334L84.3966 32.4829L84.41 32.5245L84.981 32.6082L84.9246 32.9789L83.3728 32.7523L83.3636 32.7477Z" fill="black"/>
</g>
<defs>
<clipPath id="clip0_164_1948">
<rect width="126.348" height="162.166" fill="white" transform="translate(0 38.8375) rotate(-17.9016)"/>
</clipPath>
</defs>
</svg>
