<svg width="173" height="173" viewBox="0 0 173 173" fill="none" xmlns="http://www.w3.org/2000/svg">
<path d="M161.364 50.9574C161.627 51.4882 166.321 53.6453 167.111 55.452C168.356 58.3118 165.091 61.4093 165.53 62.1827C165.647 62.3964 168.583 63.1982 169.812 64.6237C174.038 69.5447 168.039 71.6447 168.48 74.7907C168.673 76.1747 170.915 76.7207 171.513 77.9407C173.72 82.4217 169.099 84.4977 169.216 86.5647C169.301 88.1347 172.333 89.3827 171.775 92.9407C171.371 95.5407 168.766 96.7387 168.506 98.3387C168.139 100.631 171.112 102.128 171.218 103.53C171.366 105.458 166.511 107.056 166.149 109.662C165.912 111.357 168.376 114.737 166.98 117.871C166.438 119.094 163.069 117.641 162.004 119.705C160.677 122.277 163.207 124.412 162.821 126.224C161.7 131.479 156.623 129.595 155.634 131.676C154.907 133.196 156.792 138.094 155.63 139.091C155.351 139.335 150.521 138.579 149.009 140.509C147.557 142.354 148.34 145.791 146.95 147.309C146.061 148.283 143.403 147.708 142.01 148.898C140.513 150.182 140.257 153.962 137.623 155.334C135.697 156.345 133.088 155.605 131.419 156.604C129.575 157.703 129.664 160.692 127.105 161.753C125.004 162.621 120.822 161.688 119.849 162.309C119.06 162.811 119.034 166.106 116.637 166.888C114.5 167.581 111.929 166.354 109.588 167.028C108.015 167.484 106.684 170.035 104.768 170.263C102.381 170.554 100.473 168.34 98.4844 168.523C96.8854 168.669 94.8554 171.334 92.5724 171.71C89.3144 172.251 87.6244 170.056 85.4214 170.192C82.7294 170.353 81.0074 174.402 77.0794 171.114C76.3754 170.522 76.6474 168.71 75.9484 168.546C73.5104 167.976 71.2534 170.641 67.6614 169.895C65.1124 169.361 64.0302 167.148 62.1775 166.629C60.0834 166.045 57.8393 167.265 55.8139 166.412C53.7885 165.558 52.5635 162.301 51.1336 161.82C49.4922 161.262 46.8603 162.799 44.4807 161.638C42.606 160.717 42.5903 157.011 41.0126 155.934C39.4348 154.857 35.0577 156.857 32.5812 154.337C31.3583 153.097 33.0157 150.038 31.6094 148.725C30.203 147.413 26.4071 148.159 24.746 146.716C23.2783 145.439 24.1094 141.159 23.1547 140.23C22.2001 139.301 18.6357 139.32 17.356 138.137C16.3328 137.185 17.421 134.469 16.4061 132.521C14.9832 129.774 9.58216 129.376 9.60216 124.448C9.60806 123.238 11.2412 121.365 10.954 120.803C10.7874 120.476 5.93556 119.026 5.11016 116.346C4.44116 114.191 6.52756 112.281 5.97006 109.798C5.52246 107.812 1.98066 106.95 1.98816 103.404C1.98996 101.181 4.01006 99.0567 3.94146 97.1177C3.90256 95.8657 0.139864 95.0627 0.00276412 92.6947C-0.102436 90.8227 2.82896 88.3537 3.03616 86.1987C3.26546 83.7477 0.245365 82.4657 0.386065 79.9827C0.526665 77.4997 3.31656 76.3597 3.56866 74.6517C3.82076 72.9447 1.19456 70.9487 2.20036 67.5097C2.93986 64.9647 6.29846 64.3578 6.55046 62.2444C6.82146 59.9766 3.05876 58.069 6.44756 54.2529C7.31616 53.2694 9.48206 53.4424 10.1804 52.0462C11.5292 49.3549 9.57696 46.045 10.3893 44.2425C11.144 42.5612 14.3074 42.5003 15.4966 41.3424C16.6858 40.1845 15.6695 37.6662 17.0491 35.4203C18.8044 32.5509 22.8955 32.3615 23.7465 30.5922C24.5974 28.8229 24.0649 25.7869 24.9473 24.6911C25.2753 24.2825 29.1245 24.206 30.9711 22.5089C32.57 21.0308 33.677 16.942 34.2534 16.6565C35.6279 15.963 40.1811 17.9888 40.97 17.423C41.4077 17.1063 41.4506 11.8184 43.9021 10.7654C46.068 9.83423 49.2765 11.0326 51.3855 10.1585C52.8795 9.53663 53.7041 6.64573 55.4833 6.08023C57.6401 5.39713 60.1521 6.58143 62.5195 5.92423C64.2979 5.42273 66.2554 2.35723 67.8044 1.98433C69.7354 1.51583 71.4224 3.44673 73.7234 3.27293C75.8224 3.11713 78.7434 0.0344299 80.5574 0.000329945C82.3714 -0.0337701 83.8094 2.58613 85.7944 2.83673C87.9204 3.10453 89.9904 0.458833 92.1184 0.534533C94.1404 0.604333 95.8184 2.71933 97.6264 3.08353C99.9414 3.54553 102.36 1.76903 104.411 2.29843C106.476 2.82943 107.711 5.95153 109.836 6.28333C111.73 6.57973 113.573 4.61863 115.353 5.27143C117.235 5.95813 118.353 9.09443 120.087 9.88413C122.772 11.111 126.434 10.356 128.788 11.5494C130.538 12.4408 130.216 15.4718 131.956 16.3334C133.843 17.27 136.692 16.6932 138.478 17.5819C140.525 18.6094 139.468 21.8851 140.727 23.0582C142.14 24.3784 145.914 24.0433 147.883 25.8805C149.622 27.5042 148.897 30.2152 150.101 31.3815C151.361 32.6046 154.418 32.3098 155.614 34.4084C156.659 36.232 155.679 38.698 156.947 40.5631C157.991 42.0947 161.917 43.0248 162.746 45.4988C163.575 47.9728 160.952 50.1374 161.375 50.9871L161.364 50.9574ZM90.6334 12.0643C40.1087 8.81853 0.987462 56.718 13.7255 105.869C29.3392 166.136 109.637 181.738 146.279 131.398C181.32 83.2467 149.922 15.872 90.6414 12.0582L90.6334 12.0643Z" fill="#FACC2C"/>
<path d="M91.1194 11.3545C40.5947 8.10872 1.47346 56.0082 14.2037 105.165C29.8173 165.432 110.115 181.035 146.757 130.694C181.799 82.5437 150.4 15.1683 91.1194 11.3545Z" fill="#F7F7F6"/>
<path d="M32.3573 85.6757C33.4604 85.4377 33.0485 84.2797 32.8865 83.5297C32.7245 82.7797 32.6437 81.5497 31.5186 81.7927L30.9009 81.9267C30.7244 81.9647 30.5986 82.1307 30.6415 82.3287L31.3371 85.5497C31.38 85.7487 31.5631 85.8477 31.7396 85.8097L32.3573 85.6757ZM32.9473 89.7967C32.8746 89.6747 32.7452 89.6097 32.5908 89.6437L32.5688 89.6477C32.3923 89.6857 32.2713 89.8737 32.3094 90.0507L33.0051 93.2717C33.0479 93.4697 32.9221 93.6357 32.7456 93.6737L29.5909 94.3547C29.3923 94.3977 29.2314 94.2947 29.1885 94.0957L26.0004 79.3367C25.9575 79.1387 26.0566 78.9557 26.2551 78.9127L30.6894 77.9547C34.1751 77.2017 36.0675 79.6557 36.7251 82.7007C37.1016 84.4437 37.0179 86.1927 36.2366 87.4937C36.1674 87.6007 36.1739 87.7377 36.2197 87.8437L38.5675 91.9777C38.6307 92.0557 38.6324 92.1707 38.5853 92.2737C38.5382 92.3767 38.4595 92.4397 38.3492 92.4637L35.1503 93.1547C34.9959 93.1877 34.8444 93.1277 34.7717 93.0047L32.9473 89.7967ZM36.514 77.0657C36.4711 76.8677 36.5701 76.6837 36.7686 76.6417L45.6371 74.7257C45.8357 74.6827 46.0234 74.8037 46.0663 75.0027L46.743 78.1347C46.7859 78.3337 46.665 78.5217 46.4664 78.5647L41.4143 79.6557C41.2378 79.6937 41.112 79.8597 41.1549 80.0577L41.4409 81.3817C41.479 81.5577 41.6668 81.6787 41.8433 81.6407L45.7481 80.7977C45.9246 80.7597 46.1123 80.8807 46.1504 81.0567L46.832 84.2117C46.8701 84.3877 46.7491 84.5757 46.5726 84.6137L42.6677 85.4577C42.4913 85.4957 42.3702 85.6837 42.4083 85.8597L42.6941 87.1837C42.7323 87.3597 42.9201 87.4817 43.0965 87.4427L48.1485 86.3517C48.3471 86.3087 48.5349 86.4297 48.573 86.6067L49.2546 89.7617C49.2975 89.9597 49.1715 90.1257 48.973 90.1687L40.1045 92.0837C39.9059 92.1267 39.745 92.0237 39.7021 91.8247C38.6394 86.9047 37.5767 81.9857 36.514 77.0657ZM52.4195 77.5327C52.3861 77.3777 52.2568 77.3137 52.1023 77.3467C51.97 77.3757 51.8786 77.4877 51.8899 77.6467L52.6838 82.9247C52.7028 83.0127 52.766 83.0917 52.8244 83.1477C52.9049 83.1997 53.0026 83.2247 53.1129 83.2017L53.6203 83.0917C53.7086 83.0727 53.7921 83.0317 53.8393 82.9287C53.8911 82.8487 53.9161 82.7507 53.875 82.6667L52.4195 77.5327ZM59.2759 87.5737C59.317 87.6567 59.2919 87.7547 59.24 87.8347C59.1929 87.9377 59.1095 87.9787 59.0212 87.9977L55.9327 88.6647C55.7562 88.7027 55.5732 88.6037 55.513 88.4327L55.134 87.1057C55.0959 86.9297 54.908 86.8077 54.7315 86.8467L53.6506 87.0797C53.4741 87.1177 53.3531 87.3057 53.3692 87.4867L53.5716 88.8517C53.6097 89.0287 53.4838 89.1937 53.3073 89.2317L50.2187 89.8997C50.1084 89.9227 50.0155 89.9197 49.9523 89.8417C49.8719 89.7897 49.8086 89.7107 49.8116 89.6177L48.2512 74.4837C48.2351 74.3027 48.3389 74.1417 48.5154 74.1037L54.0529 72.9077C54.2073 72.8747 54.3903 72.9737 54.4505 73.1447L59.2759 87.5737ZM64.2648 78.7837C64.1123 78.0777 63.5805 74.8677 62.4775 75.1057L61.8598 75.2387C61.6833 75.2767 61.5573 75.4427 61.6002 75.6417C62.1149 78.0237 62.6249 80.3847 63.1396 82.7667C63.1777 82.9437 63.3655 83.0647 63.542 83.0267L64.1596 82.8927C65.2623 82.6547 64.4173 79.4897 64.2648 78.7837ZM56.9592 72.6497C56.9163 72.4507 57.0153 72.2677 57.2139 72.2247L61.8468 71.2237C66.4864 70.3607 67.3834 74.6227 68.1034 77.9547C68.8234 81.2857 69.7693 85.5607 65.1823 86.6667L60.5497 87.6677C60.3512 87.7107 60.1903 87.6067 60.1474 87.4077C59.0847 82.4887 58.0219 77.5687 56.9592 72.6497ZM78.4863 73.2177L78.3674 72.6657C78.2524 72.1367 77.7434 71.8077 77.2134 71.9227L76.5963 72.0557C76.4193 72.0937 76.2933 72.2597 76.3363 72.4577L76.7223 74.2447C76.7603 74.4217 76.9483 74.5427 77.1243 74.5047L77.7424 74.3707C78.2724 74.2567 78.5963 73.7247 78.4863 73.2177ZM77.8753 79.5837C77.9133 79.7607 78.1013 79.8817 78.2783 79.8437L78.8954 79.7097C79.4254 79.5957 79.7543 79.0857 79.6393 78.5567L79.5204 78.0047C79.4064 77.4757 78.8964 77.1467 78.3664 77.2607L77.7493 77.3947C77.5723 77.4327 77.4514 77.6207 77.4894 77.7967L77.8753 79.5837ZM74.8834 84.2247L71.6953 69.4657C71.6523 69.2677 71.7514 69.0847 71.9504 69.0417L76.5833 68.0407C79.0983 67.4977 81.5533 68.8147 82.0963 71.3297C82.3293 72.4107 82.6813 74.5747 80.1003 75.1317C80.0123 75.1507 79.8943 75.2457 79.9273 75.3997C79.9653 75.5767 80.1124 75.6137 80.2004 75.5947C82.7814 75.0377 83.3544 77.1537 83.5874 78.2347C84.1314 80.7497 82.4333 82.9407 79.9183 83.4837L75.2864 84.4847C75.0874 84.5277 74.9264 84.4237 74.8834 84.2247ZM82.2954 67.1767C82.2524 66.9777 82.3514 66.7947 82.5494 66.7517L91.4184 64.8357C91.6174 64.7937 91.8044 64.9147 91.8474 65.1127L92.5244 68.2457C92.5674 68.4437 92.4464 68.6317 92.2474 68.6747L87.1953 69.7657C87.0193 69.8047 86.8934 69.9697 86.9364 70.1687L87.2223 71.4917C87.2603 71.6687 87.4483 71.7897 87.6243 71.7517L91.5294 70.9077C91.7054 70.8697 91.8934 70.9907 91.9314 71.1677L92.6133 74.3227C92.6513 74.4987 92.5304 74.6867 92.3534 74.7247L88.4494 75.5677C88.2724 75.6067 88.1514 75.7937 88.1894 75.9707L88.4753 77.2947C88.5133 77.4707 88.7013 77.5917 88.8773 77.5537L93.9294 76.4627C94.1284 76.4197 94.3163 76.5407 94.3543 76.7167L95.0353 79.8717C95.0783 80.0707 94.9524 80.2357 94.7544 80.2787L85.8853 82.1947C85.6873 82.2377 85.5263 82.1337 85.4833 81.9357C84.4203 77.0157 83.3574 72.0957 82.2954 67.1767ZM96.7703 72.2467C96.7613 72.2027 96.7514 72.1587 96.7204 72.1187C95.0324 69.4357 93.0484 66.2387 92.3674 65.1157C92.3214 65.0107 92.2974 64.9007 92.3444 64.7977C92.3914 64.6947 92.4874 64.6047 92.5984 64.5817L95.8854 63.8713C96.0614 63.8332 96.2274 63.959 96.2824 64.1087L97.8633 69.2857C97.9133 69.4137 98.0474 69.4997 98.1804 69.4717C98.3124 69.4427 98.3994 69.3087 98.3924 69.1717L97.6944 63.8037C97.6834 63.6445 97.7824 63.4614 97.9584 63.4233L101.224 62.718C101.334 62.6942 101.436 62.7413 101.522 62.8153C101.607 62.8892 101.653 62.9948 101.632 63.1146L100.588 71.2137C100.576 71.2627 100.58 71.2847 100.59 71.3287L102.105 78.3447C102.148 78.5427 102.022 78.7087 101.824 78.7517L98.6914 79.4287C98.4934 79.4717 98.3104 79.3727 98.2674 79.1737L96.7703 72.2467ZM108.813 73.2477C109.917 73.0087 109.071 69.8437 108.941 69.1327C108.574 67.4337 108.102 65.2497 107.131 65.4597C106.183 65.6647 106.654 67.8487 107.021 69.5477C107.174 70.2537 107.71 73.4857 108.813 73.2477ZM103.205 70.3717C102.433 66.7977 101.581 62.6408 106.302 61.621C111.023 60.6012 111.985 64.7347 112.757 68.3087C113.534 71.9047 114.359 76.0437 109.638 77.0637C104.917 78.0837 103.982 73.9677 103.205 70.3717ZM112.22 60.7122C112.177 60.5136 112.276 60.3306 112.474 60.2877L115.717 59.5872C115.85 59.5586 116.028 59.6355 116.078 59.7631L118.614 64.8727C118.687 64.9957 118.811 65.0377 118.917 64.9917C119.022 64.9457 119.091 64.8387 119.063 64.7067L117.933 59.4779C117.89 59.2793 118.012 59.0916 118.21 59.0487L121.343 58.372C121.541 58.3291 121.707 58.4549 121.75 58.6535L124.938 73.4127C124.981 73.6107 124.877 73.7717 124.679 73.8147L121.436 74.5157C121.303 74.5437 121.152 74.4847 121.079 74.3617L118.539 69.2297C118.471 69.1287 118.346 69.0867 118.241 69.1327C118.135 69.1787 118.066 69.2857 118.095 69.4177L119.224 74.6467C119.267 74.8447 119.141 75.0107 118.943 75.0537L115.81 75.7307C115.612 75.7737 115.451 75.6697 115.408 75.4707L112.22 60.7122ZM130.405 64.4957C130.252 63.7902 129.721 60.58 128.617 60.8183L128 60.9517C127.823 60.9899 127.697 61.1556 127.74 61.3541C128.255 63.7367 128.765 66.0977 129.28 68.4797C129.318 68.6567 129.505 68.7777 129.682 68.7397L130.3 68.6057C131.403 68.3677 130.557 65.2017 130.405 64.4957ZM123.099 58.362C123.056 58.1634 123.155 57.9804 123.354 57.9375L127.987 56.9368C132.626 56.0731 133.524 60.3357 134.243 63.6669C134.963 66.9977 135.91 71.2737 131.323 72.3797L126.69 73.3807C126.491 73.4237 126.33 73.3197 126.287 73.1207C125.225 68.2017 124.162 63.2816 123.099 58.362Z" fill="black"/>
<path d="M30.3561 105.481C30.3179 105.305 30.1522 105.179 29.9537 105.222L27.7696 105.694C27.5711 105.737 27.4053 105.611 27.3624 105.412L26.6857 102.28C26.6429 102.081 26.7419 101.898 26.9404 101.855L35.809 99.9387C36.0075 99.8967 36.1953 100.018 36.2382 100.216L36.9149 103.349C36.9578 103.547 36.8368 103.735 36.6382 103.778L34.4541 104.25C34.2777 104.288 34.1518 104.454 34.1947 104.652L36.5584 115.595C36.6013 115.793 36.4755 115.959 36.2769 116.002L33.1442 116.679C32.9457 116.721 32.7627 116.622 32.7198 116.424L30.3561 105.481ZM37.0398 100.043C36.9969 99.8437 37.096 99.6607 37.2945 99.6187L40.4272 98.9417C40.6257 98.8987 40.8135 99.0197 40.8564 99.2187L41.9668 104.359C42.0049 104.535 42.1927 104.656 42.3692 104.618L43.6046 104.351C43.8032 104.309 43.9022 104.126 43.864 103.949L42.7537 98.8087C42.7108 98.6097 42.8319 98.4217 43.0304 98.3797L46.1631 97.7027C46.3616 97.6597 46.5494 97.7807 46.5923 97.9797L49.7805 112.738C49.8234 112.937 49.6975 113.103 49.499 113.146L46.3663 113.822C46.1677 113.865 45.9847 113.766 45.9418 113.568L44.8314 108.427C44.7933 108.251 44.6276 108.125 44.429 108.168L43.1936 108.435C43.0171 108.473 42.8961 108.661 42.9342 108.837L44.0446 113.978C44.0874 114.176 43.9616 114.342 43.7631 114.385L40.6304 115.061C40.4318 115.104 40.2709 115.001 40.228 114.802L37.0398 100.043ZM47.9412 97.6877C47.8983 97.4897 47.9973 97.3067 48.1958 97.2637L57.0644 95.3477C57.263 95.3047 57.4507 95.4257 57.4936 95.6247L58.1703 98.7567C58.2132 98.9557 58.0922 99.1437 57.8936 99.1867L52.8416 100.278C52.6651 100.316 52.5393 100.482 52.5822 100.68L52.8681 102.004C52.9062 102.18 53.094 102.302 53.2705 102.263L57.1753 101.42C57.3518 101.382 57.5396 101.503 57.5777 101.679L58.2592 104.834C58.2973 105.011 58.1763 105.198 57.9998 105.237L54.0949 106.08C53.9184 106.118 53.7974 106.306 53.8355 106.482L54.1214 107.806C54.1596 107.983 54.3473 108.104 54.5238 108.066L59.5758 106.974C59.7744 106.931 59.9622 107.052 60.0003 107.229L60.6818 110.384C60.7247 110.582 60.5988 110.748 60.4003 110.791L51.5317 112.707C51.3331 112.749 51.1722 112.646 51.1293 112.447C50.0666 107.527 49.0039 102.608 47.9412 97.6877ZM62.6558 94.5097C62.6129 94.3107 62.7119 94.1277 62.9104 94.0847L66.0433 93.4077C66.2413 93.3657 66.4293 93.4867 66.4723 93.6847L67.5823 98.8247C67.6213 99.0017 67.8083 99.1227 67.9853 99.0847L69.2203 98.8177C69.4193 98.7747 69.5183 98.5917 69.4803 98.4157L68.3693 93.2747C68.3263 93.0767 68.4473 92.8887 68.6463 92.8457L71.7793 92.1687C71.9773 92.1267 72.1653 92.2477 72.2083 92.4457L75.3963 107.205C75.4393 107.404 75.3133 107.569 75.1153 107.612L71.9823 108.289C71.7833 108.332 71.6003 108.233 71.5573 108.034L70.4473 102.894C70.4093 102.718 70.2433 102.592 70.0453 102.635L68.8093 102.901C68.6333 102.94 68.5123 103.127 68.5503 103.304L69.6603 108.444C69.7033 108.643 69.5773 108.808 69.3793 108.851L66.2463 109.528C66.0473 109.571 65.8873 109.467 65.8443 109.269L62.6558 94.5097ZM73.5573 92.1547C73.5143 91.9557 73.6133 91.7727 73.8113 91.7297L82.6803 89.8147C82.8793 89.7717 83.0663 89.8927 83.1093 90.0907L83.7863 93.2237C83.8293 93.4227 83.7083 93.6097 83.5093 93.6527L78.4573 94.7447C78.2813 94.7827 78.1553 94.9477 78.1983 95.1467L78.4843 96.4707C78.5223 96.6467 78.7103 96.7677 78.8863 96.7297L82.7913 95.8867C82.9673 95.8477 83.1553 95.9687 83.1933 96.1457L83.8753 99.3007C83.9133 99.4767 83.7923 99.6647 83.6153 99.7027L79.7113 100.547C79.5343 100.585 79.4133 100.773 79.4513 100.949L79.7373 102.273C79.7753 102.449 79.9633 102.57 80.1393 102.532L85.1913 101.441C85.3903 101.398 85.5783 101.519 85.6163 101.695L86.2973 104.85C86.3403 105.049 86.2143 105.214 86.0163 105.257L77.1473 107.173C76.9493 107.216 76.7883 107.112 76.7453 106.914C75.6823 101.994 74.6193 97.0737 73.5573 92.1547ZM89.4623 92.6207C89.4293 92.4667 89.3003 92.4017 89.1453 92.4357C89.0133 92.4637 88.9223 92.5757 88.9333 92.7357L89.7273 98.0137C89.7463 98.1017 89.8093 98.1807 89.8673 98.2367C89.9483 98.2887 90.0463 98.3137 90.1563 98.2897L90.6633 98.1807C90.7513 98.1617 90.8353 98.1197 90.8823 98.0177C90.9343 97.9367 90.9593 97.8397 90.9183 97.7557L89.4623 92.6207ZM96.3194 102.662C96.3604 102.746 96.3353 102.844 96.2833 102.924C96.2363 103.027 96.1523 103.068 96.0643 103.087L92.9763 103.754C92.7993 103.792 92.6163 103.693 92.5563 103.521L92.1773 102.195C92.1393 102.018 91.9513 101.897 91.7743 101.935L90.6933 102.169C90.5173 102.207 90.3963 102.395 90.4123 102.576L90.6143 103.941C90.6533 104.117 90.5273 104.283 90.3503 104.321L87.2623 104.988C87.1513 105.012 87.0583 105.009 86.9953 104.93C86.9153 104.879 86.8523 104.8 86.8553 104.707L85.2943 89.5727C85.2783 89.3917 85.3823 89.2307 85.5583 89.1927L91.0963 87.9967C91.2503 87.9627 91.4333 88.0617 91.4933 88.2337L96.3194 102.662ZM101.308 93.8717C101.155 93.1657 100.623 89.9557 99.5203 90.1947L98.9034 90.3277C98.7264 90.3657 98.6003 90.5317 98.6433 90.7297C99.1583 93.1127 99.6683 95.4737 100.182 97.8557C100.221 98.0327 100.408 98.1537 100.585 98.1157L101.203 97.9817C102.306 97.7437 101.46 94.5777 101.308 93.8717ZM94.0023 87.7377C93.9593 87.5397 94.0583 87.3567 94.2573 87.3137L98.8904 86.3127C103.529 85.4487 104.427 89.7117 105.146 93.0427C105.866 96.3737 106.812 100.65 102.226 101.756L97.5933 102.757C97.3943 102.8 97.2333 102.696 97.1903 102.497C96.1283 97.5777 95.0653 92.6577 94.0023 87.7377ZM104.623 85.4437C104.58 85.2447 104.679 85.0617 104.878 85.0187L108.033 84.3377C108.209 84.2997 108.397 84.4207 108.44 84.6197C109.226 88.2597 110.013 91.8997 110.804 95.5617C110.842 95.7377 111.03 95.8587 111.206 95.8207L116.258 94.7297C116.457 94.6867 116.644 94.8077 116.683 94.9847L117.364 98.1387C117.407 98.3377 117.281 98.5037 117.083 98.5467L108.214 100.462C108.015 100.505 107.854 100.401 107.812 100.203C106.749 95.2827 105.686 90.3637 104.623 85.4437ZM114.965 83.2097C114.922 83.0117 115.021 82.8287 115.219 82.7857L118.352 82.1087C118.55 82.0657 118.738 82.1867 118.781 82.3857L121.969 97.1447C122.012 97.3427 121.886 97.5087 121.688 97.5517L118.555 98.2277C118.357 98.2707 118.196 98.1677 118.153 97.9687L114.965 83.2097ZM120.135 82.0927C120.092 81.8947 120.191 81.7117 120.39 81.6687L123.633 80.9677C123.765 80.9397 123.943 81.0167 123.994 81.1437L126.529 86.2537C126.602 86.3757 126.727 86.4187 126.832 86.3727C126.938 86.3267 127.007 86.2197 126.978 86.0867L125.849 80.8587C125.806 80.6597 125.927 80.4727 126.126 80.4297L129.258 79.7527C129.457 79.7097 129.623 79.8357 129.666 80.0337L132.854 94.7927C132.897 94.9917 132.793 95.1527 132.594 95.1957L129.351 95.8957C129.219 95.9247 129.067 95.8647 128.995 95.7417L126.455 90.6107C126.387 90.5097 126.262 90.4677 126.157 90.5137C126.051 90.5587 125.982 90.6667 126.01 90.7987L127.14 96.0277C127.183 96.2257 127.057 96.3917 126.858 96.4347L123.726 97.1117C123.527 97.1537 123.366 97.0507 123.323 96.8517L120.135 82.0927ZM131.015 79.7427C130.972 79.5437 131.071 79.3607 131.27 79.3187L140.138 77.4027C140.337 77.3597 140.524 77.4807 140.567 77.6797L141.244 80.8117C141.287 81.0107 141.166 81.1987 140.967 81.2407L135.915 82.3327C135.739 82.3707 135.613 82.5367 135.656 82.7347L135.942 84.0587C135.98 84.2347 136.168 84.3557 136.344 84.3177L140.249 83.4747C140.426 83.4367 140.613 83.5577 140.651 83.7337L141.333 86.8887C141.371 87.0647 141.25 87.2527 141.074 87.2907L137.169 88.1347C136.992 88.1727 136.871 88.3607 136.909 88.5367L137.195 89.8607C137.233 90.0367 137.421 90.1577 137.598 90.1197L142.65 89.0287C142.848 88.9857 143.036 89.1067 143.074 89.2837L143.756 92.4377C143.798 92.6367 143.673 92.8027 143.474 92.8457L134.605 94.7607C134.407 94.8037 134.246 94.6997 134.203 94.5017C133.14 89.5817 132.078 84.6627 131.015 79.7427Z" fill="black"/>
</svg>
